<svg xmlns="http://www.w3.org/2000/svg" xmlns:xlink="http://www.w3.org/1999/xlink" width="431.026" height="149.681" viewBox="0 0 431.026 149.681">
  <defs>
    <clipPath id="clip-path">
      <rect id="Rectangle_52688" data-name="Rectangle 52688" width="431.026" height="149.681" fill="none"/>
    </clipPath>
  </defs>
  <g id="Group_121763" data-name="Group 121763" transform="translate(0 0)">
    <path id="Path_127506" data-name="Path 127506" d="M60.26,59.4v.154h.43v1.257h.184V59.557h.43V59.4Z" transform="translate(79.279 83.466)" fill="#fff"/>
    <g id="Group_121762" data-name="Group 121762" transform="translate(0 0)">
      <g id="Group_121761" data-name="Group 121761" clip-path="url(#clip-path)">
        <path id="Path_127507" data-name="Path 127507" d="M63.22,60.762c-.018-.339-.039-.746-.035-1.048h-.012c-.083.283-.183.588-.305.922l-.425,1.175h-.236l-.391-1.154c-.116-.341-.213-.655-.28-.943H61.53c-.007.3-.025.708-.046,1.073l-.065,1.038h-.3L61.29,59.4h.4l.411,1.171c.1.3.183.564.245.818h.009c.062-.244.148-.511.254-.818l.43-1.171h.4l.15,2.423H63.28Z" transform="translate(80.167 78.568)" fill="#fff"/>
        <path id="Path_127508" data-name="Path 127508" d="M63.276,65.571a3.555,3.555,0,1,1,3.539-3.554,3.548,3.548,0,0,1-3.539,3.554m0-6.777a3.223,3.223,0,1,0,3.209,3.224,3.217,3.217,0,0,0-3.209-3.224" transform="translate(78.354 77.322)" fill="#fff"/>
        <path id="Path_127509" data-name="Path 127509" d="M60.995,59.668H60.26V59.4h1.787v.265h-.737v2.158h-.314Z" transform="translate(79.037 78.569)" fill="#fff"/>
        <path id="Path_127510" data-name="Path 127510" d="M63.22,60.762c-.018-.339-.039-.746-.035-1.048h-.012c-.083.283-.183.588-.305.922l-.425,1.175h-.236l-.391-1.154c-.116-.341-.213-.655-.28-.943H61.53c-.007.3-.025.708-.046,1.073l-.065,1.038h-.3L61.29,59.4h.4l.411,1.171c.1.3.183.564.245.818h.009c.062-.244.148-.511.254-.818l.43-1.171h.4l.15,2.423H63.28Z" transform="translate(80.167 78.568)" fill="#fff"/>
        <path id="Path_127511" data-name="Path 127511" d="M63.276,65.571a3.555,3.555,0,1,1,3.539-3.554,3.548,3.548,0,0,1-3.539,3.554m0-6.777a3.223,3.223,0,1,0,3.209,3.224,3.217,3.217,0,0,0-3.209-3.224" transform="translate(78.354 77.322)" fill="#fff"/>
        <path id="Path_127512" data-name="Path 127512" d="M12.707,9.913a.723.723,0,0,0,.677-.681c0-.453-.451-.906-.677-.678l-3.833.453v.678a6.858,6.858,0,0,1,3.833.228" transform="translate(11.639 11.234)" fill="#fff"/>
        <path id="Path_127513" data-name="Path 127513" d="M12.024,10.854a.723.723,0,0,0,.677-.681.6.6,0,0,0-.677-.678l-3.833.678v.681a6.458,6.458,0,0,1,3.833,0" transform="translate(10.743 12.558)" fill="#fff"/>
        <path id="Path_127514" data-name="Path 127514" d="M11.566,11.83a.723.723,0,0,0,.677-.681c0-.453-.453-.678-.9-.678l-3.833.906.224.453a6.4,6.4,0,0,1,3.833,0" transform="translate(9.849 13.849)" fill="#fff"/>
        <path id="Path_127515" data-name="Path 127515" d="M10.884,12.9a.6.6,0,0,0,.677-.681c-.227-.453-.451-.678-.9-.678l-3.83,1.131.224.455a10.918,10.918,0,0,1,3.833-.228" transform="translate(8.954 15.268)" fill="#fff"/>
        <path id="Path_127516" data-name="Path 127516" d="M10.3,13.976c.224,0,.451-.453.451-.906,0-.228-.451-.453-.9-.453L6.242,14.2l.224.453a7.44,7.44,0,0,1,3.833-.681" transform="translate(8.187 16.687)" fill="#fff"/>
        <path id="Path_127517" data-name="Path 127517" d="M9.518,15.244c.227,0,.451-.453.451-.681,0-.453-.451-.678-.9-.678L5.461,15.471l.224.453a7.464,7.464,0,0,1,3.833-.681" transform="translate(7.163 18.364)" fill="#fff"/>
        <path id="Path_127518" data-name="Path 127518" d="M9.031,16.414c.451,0,.677-.453.451-.906,0-.228-.451-.453-.9-.453L4.974,16.414l.224.681a7.436,7.436,0,0,1,3.833-.681" transform="translate(6.524 19.912)" fill="#fff"/>
        <path id="Path_127519" data-name="Path 127519" d="M8.641,17.636c.451-.228.677-.453.451-.906,0-.453-.451-.681-.9-.453L4.584,17.636l.224.453a8.19,8.19,0,0,1,3.833-.453" transform="translate(6.012 21.41)" fill="#fff"/>
        <path id="Path_127520" data-name="Path 127520" d="M8.251,18.787a1,1,0,0,0,.227-1.133c0-.225-.453-.453-.9-.453l-3.38,1.812.224.455a7.254,7.254,0,0,1,3.833-.681" transform="translate(5.501 22.75)" fill="#fff"/>
        <path id="Path_127521" data-name="Path 127521" d="M7.636,19.851c.451,0,.677-.453.451-.906,0-.228-.451-.453-.9-.228L3.8,20.531l.227.453a14.375,14.375,0,0,1,3.606-1.133" transform="translate(4.988 24.632)" fill="#fff"/>
        <path id="Path_127522" data-name="Path 127522" d="M7.246,21.291c.451,0,.677-.453.451-.906a1.164,1.164,0,0,0-.9-.453L3.413,21.971l.227.453a14.375,14.375,0,0,1,3.606-1.133" transform="translate(4.477 26.362)" fill="#fff"/>
        <path id="Path_127523" data-name="Path 127523" d="M13.712,8.9a.72.72,0,0,0,.677-.678c0-.455-.451-.681-.9-.681l-3.833.681v.453a7.853,7.853,0,0,1,4.057.225" transform="translate(12.664 9.977)" fill="#fff"/>
        <path id="Path_127524" data-name="Path 127524" d="M14.492,7.928a.722.722,0,0,0,.675-.681c-.224-.453-.451-.678-.9-.678l-3.83.678V7.7a7.761,7.761,0,0,1,4.057.228" transform="translate(13.687 8.688)" fill="#fff"/>
        <path id="Path_127525" data-name="Path 127525" d="M15.243,7.179c.451,0,.675-.453.675-.906a.721.721,0,0,0-.675-.681l-3.833.681v.453a7.734,7.734,0,0,1,3.833.453" transform="translate(14.966 7.397)" fill="#fff"/>
        <path id="Path_127526" data-name="Path 127526" d="M15.925,6.106c.451-.225.677-.453.677-.906s-.451-.681-.9-.681L12.092,5.653v.681c1.426-.725,2.624-.372,3.833-.228" transform="translate(15.86 5.978)" fill="#fff"/>
        <path id="Path_127527" data-name="Path 127527" d="M12.423,4.146c0-.453-.451-.681-.9-.453-.451,0-.677.453-.451.906l1.352,3.626L12.874,8a9.586,9.586,0,0,1-.451-3.851" transform="translate(14.404 4.765)" fill="#fff"/>
        <path id="Path_127528" data-name="Path 127528" d="M11.494,4.778c0-.228-.451-.453-.9-.453-.227,0-.451.453-.451.906l1.352,3.623h.451a9.788,9.788,0,0,1-.451-4.076" transform="translate(13.302 5.72)" fill="#fff"/>
        <path id="Path_127529" data-name="Path 127529" d="M10.666,5.706c0-.453-.448-.678-.9-.453-.451,0-.675.453-.451.906l1.8,4.306h.453a13.665,13.665,0,0,1-.9-4.759" transform="translate(12.101 6.831)" fill="#fff"/>
        <path id="Path_127530" data-name="Path 127530" d="M9.964,6.664a1.21,1.21,0,0,0-.9-.681c-.451.228-.675.455-.675.908l1.8,4.531.448-.228a7.842,7.842,0,0,1-.675-4.531" transform="translate(11 7.913)" fill="#fff"/>
        <path id="Path_127531" data-name="Path 127531" d="M9.056,7.314c0-.453-.451-.453-.9-.453a1.184,1.184,0,0,0-.451.906l2.03,4.306h.451A10.43,10.43,0,0,1,9.056,7.314" transform="translate(10.105 9.074)" fill="#fff"/>
        <path id="Path_127532" data-name="Path 127532" d="M8.229,8.387a1.17,1.17,0,0,0-.9-.453.829.829,0,0,0-.453,1.133l2.032,4.3.448-.225A10.242,10.242,0,0,1,8.229,8.387" transform="translate(8.903 10.493)" fill="#fff"/>
        <path id="Path_127533" data-name="Path 127533" d="M7.4,9.558c0-.453-.451-.453-.9-.453a1.72,1.72,0,0,0-.451.906l2.03,4.306.451-.228A9.287,9.287,0,0,1,7.4,9.558" transform="translate(7.93 12.042)" fill="#fff"/>
        <path id="Path_127534" data-name="Path 127534" d="M6.642,10.458c0-.228-.451-.453-.9-.228-.227,0-.451.453-.227.908L7.77,15.215l.451-.225a14.554,14.554,0,0,1-1.579-4.531" transform="translate(7.11 13.407)" fill="#fff"/>
        <path id="Path_127535" data-name="Path 127535" d="M6.246,11.6a.9.9,0,0,0-.9-.453.829.829,0,0,0-.451,1.133l2.254,4.079.677-.228A8.4,8.4,0,0,1,6.246,11.6" transform="translate(6.302 14.747)" fill="#fff"/>
        <path id="Path_127536" data-name="Path 127536" d="M5.4,12.6c-.227-.228-.677-.453-.9-.228-.451.228-.451.681-.227,1.133l2.707,3.851.451-.225A12.411,12.411,0,0,1,5.4,12.6" transform="translate(5.416 16.245)" fill="#fff"/>
        <path id="Path_127537" data-name="Path 127537" d="M5.011,13.774c-.224-.225-.677-.453-.9-.225-.451.225-.677.678-.451.906l2.7,4.079.451-.228a12.919,12.919,0,0,1-1.8-4.531" transform="translate(4.682 17.795)" fill="#fff"/>
        <path id="Path_127538" data-name="Path 127538" d="M4.429,14.652c-.224-.225-.675-.453-.9-.225-.451.225-.451.678-.224,1.131l2.929,3.626.451-.228a10.47,10.47,0,0,1-2.254-4.3" transform="translate(4.138 18.956)" fill="#fff"/>
        <path id="Path_127539" data-name="Path 127539" d="M3.942,15.659a.557.557,0,0,0-.9-.228.564.564,0,0,0-.227.908l3.158,3.623.451-.228a13.24,13.24,0,0,1-2.48-4.076" transform="translate(3.497 20.214)" fill="#fff"/>
        <path id="Path_127540" data-name="Path 127540" d="M3.65,16.518a.68.68,0,0,0-.9,0,.562.562,0,0,0-.227.906L5.453,21.05l.451-.228a10.427,10.427,0,0,1-2.254-4.3" transform="translate(3.114 21.621)" fill="#fff"/>
        <path id="Path_127541" data-name="Path 127541" d="M3.173,18c-.224-.453-.677-.453-1.128-.225a1.017,1.017,0,0,0,0,1.131L5.2,22.3l.451-.453A11.669,11.669,0,0,1,3.173,18" transform="translate(2.462 23.31)" fill="#fff"/>
        <path id="Path_127542" data-name="Path 127542" d="M2.741,19.054a.68.68,0,0,0-.9,0c-.227.225-.451.681-.227.906l3.382,3.626.451-.453a13.711,13.711,0,0,1-2.7-4.079" transform="translate(1.993 24.975)" fill="#fff"/>
        <path id="Path_127543" data-name="Path 127543" d="M2.49,20.666c-.451-.225-.9-.453-1.128,0a.694.694,0,0,0,0,.906l3.382,3.4.451-.453a8,8,0,0,1-2.7-3.851" transform="translate(1.566 26.987)" fill="#fff"/>
        <path id="Path_127544" data-name="Path 127544" d="M2.3,22.325a.743.743,0,0,0-1.128,0,.694.694,0,0,0,0,.906l3.382,3.4L5,26.176a11.667,11.667,0,0,1-2.7-3.851" transform="translate(1.311 29.182)" fill="#fff"/>
        <path id="Path_127545" data-name="Path 127545" d="M2,24.125a1,1,0,0,0-1.126,0,.689.689,0,0,0,0,.906l3.38,3.4.451-.228A8.9,8.9,0,0,1,2,24.125" transform="translate(0.928 31.685)" fill="#fff"/>
        <path id="Path_127546" data-name="Path 127546" d="M1.73,26.031c-.224-.228-.675-.453-.9,0-.224.225-.451.678,0,.906l3.38,3.17.451-.225A11.8,11.8,0,0,1,1.73,26.031" transform="translate(0.748 34.083)" fill="#fff"/>
        <path id="Path_127547" data-name="Path 127547" d="M1.806,27.95c-.451-.453-.9-.453-1.123-.228a1.012,1.012,0,0,0,0,1.133l3.6,2.945.451-.228A10.66,10.66,0,0,1,1.806,27.95" transform="translate(0.672 36.47)" fill="#fff"/>
        <path id="Path_127548" data-name="Path 127548" d="M1.7,29.491a1,1,0,0,0-1.128,0c-.224.453-.224.906.227,1.133l4.057,2.49.227-.453A12.633,12.633,0,0,1,1.7,29.491" transform="translate(0.555 38.78)" fill="#fff"/>
        <path id="Path_127549" data-name="Path 127549" d="M1.763,31.2a.982.982,0,0,0-1.123.228,1,1,0,0,0,.224,1.131L5.147,34.6l.222-.453c-1.614-.829-2.859-1.5-3.606-2.945" transform="translate(0.715 41.147)" fill="#fff"/>
        <path id="Path_127550" data-name="Path 127550" d="M1.96,32.959a.981.981,0,0,0-1.126.228,1,1,0,0,0,.224,1.131l4.283,2.039.222-.453c-1.616-.829-2.859-1.5-3.6-2.945" transform="translate(0.971 43.467)" fill="#fff"/>
        <path id="Path_127551" data-name="Path 127551" d="M2.1,34.714a.99.99,0,0,0-1.128.228c0,.453,0,.906.451.906l4.51,1.584.224-.451A10.928,10.928,0,0,1,2.1,34.714" transform="translate(1.279 45.79)" fill="#fff"/>
        <path id="Path_127552" data-name="Path 127552" d="M2.223,36.078c-.451-.228-.9,0-.9.453-.227.228,0,.681.224.906l4.51,1.586.224-.453a12.063,12.063,0,0,1-4.057-2.492" transform="translate(1.61 47.599)" fill="#fff"/>
        <path id="Path_127553" data-name="Path 127553" d="M2.514,37.346c-.451-.228-.675,0-.9.453-.224.228,0,.681.227.906l4.508,1.586.224-.453a12.1,12.1,0,0,1-4.057-2.492" transform="translate(1.993 49.276)" fill="#fff"/>
        <path id="Path_127554" data-name="Path 127554" d="M2.883,38.422a.987.987,0,0,0-1.128.228,1.691,1.691,0,0,0,.227,1.131L7.166,42.5l.451-.453c-1.759-1.138-3.666-2.107-4.734-3.623" transform="translate(2.302 50.693)" fill="#fff"/>
        <path id="Path_127555" data-name="Path 127555" d="M7.464,22.808c.451-.228.451-.681.451-1.133a.985.985,0,0,0-1.126-.225L2.73,23.942l.227.453a10.557,10.557,0,0,1,4.508-1.586" transform="translate(3.581 28.245)" fill="#fff"/>
        <path id="Path_127556" data-name="Path 127556" d="M7.044,24.174c.224-.225.451-.678.224-.906a.557.557,0,0,0-.9-.228l-3.83,2.945.224.453a10.428,10.428,0,0,1,4.283-2.265" transform="translate(3.326 30.278)" fill="#fff"/>
        <path id="Path_127557" data-name="Path 127557" d="M6.946,25.832a.562.562,0,0,0,.227-.906.557.557,0,0,0-.9-.228L2.438,27.643l.224.453a10.428,10.428,0,0,1,4.283-2.265" transform="translate(3.198 32.471)" fill="#fff"/>
        <path id="Path_127558" data-name="Path 127558" d="M6.623,27.5c.451-.225.451-.681.227-1.133a1.008,1.008,0,0,0-1.128,0L2.34,29.541l.227.453A13.154,13.154,0,0,1,6.623,27.5" transform="translate(3.069 34.652)" fill="#fff"/>
        <path id="Path_127559" data-name="Path 127559" d="M6.526,29.148a.561.561,0,0,0,.224-.906.557.557,0,0,0-.9-.228l-3.606,3.4.451.453a21.525,21.525,0,0,1,3.833-2.717" transform="translate(2.942 36.857)" fill="#fff"/>
        <path id="Path_127560" data-name="Path 127560" d="M6.495,30.624c.451-.228.451-.681,0-1.133a.686.686,0,0,0-.9,0L2.438,33.116l.451.453a10.483,10.483,0,0,1,3.606-2.945" transform="translate(3.198 38.781)" fill="#fff"/>
        <path id="Path_127561" data-name="Path 127561" d="M6.593,31.989a1.021,1.021,0,0,0,0-1.133.686.686,0,0,0-.9,0L2.536,34.481l.224.453c1.246-1.421,2.268-2.548,3.833-2.945" transform="translate(3.326 40.586)" fill="#fff"/>
        <path id="Path_127562" data-name="Path 127562" d="M6.563,33.473a.689.689,0,0,0,0-.906c-.224-.453-.675-.228-1.128,0l-2.7,3.851.451.228a14.433,14.433,0,0,1,3.382-3.173" transform="translate(3.581 42.728)" fill="#fff"/>
        <path id="Path_127563" data-name="Path 127563" d="M6.727,34.9a1.021,1.021,0,0,0,0-1.133c-.451-.228-.9-.228-1.128.228L3.121,38.075l.451.228a12.716,12.716,0,0,1,3.155-3.4" transform="translate(4.094 44.469)" fill="#fff"/>
        <path id="Path_127564" data-name="Path 127564" d="M7.507,38.025c.227-.453.227-.906-.224-1.133a.557.557,0,0,0-.9.228L3.9,41.2l.451.225a7.9,7.9,0,0,1,3.155-3.4" transform="translate(5.117 48.598)" fill="#fff"/>
        <path id="Path_127565" data-name="Path 127565" d="M8.19,39.457a1,1,0,0,0-.224-1.133.988.988,0,0,0-1.128.228L4.584,43.307l.451.228c.9-1.747,1.618-3.231,3.155-4.079" transform="translate(6.012 50.564)" fill="#fff"/>
        <path id="Path_127566" data-name="Path 127566" d="M7.117,36.238A1,1,0,0,0,6.893,35.1c-.453-.225-.9,0-.9.228L3.511,40.089l.451.228a13.832,13.832,0,0,1,3.155-4.079" transform="translate(4.605 46.306)" fill="#fff"/>
        <path id="Path_127567" data-name="Path 127567" d="M27.232,4.032C13.706,17.4,5.14,33.486,2.659,50.931.181,68.6,4.011,86.5,13.706,102.584c.224.453.675.453,1.126.228a.562.562,0,0,0,.227-.906C5.59,86.047,1.758,68.6,4.238,51.156a80.1,80.1,0,0,1,23.9-45.991c.451-.228.451-.681,0-1.133a.68.68,0,0,0-.9,0" transform="translate(2.526 5.107)" fill="#fff"/>
        <path id="Path_127568" data-name="Path 127568" d="M59.091,9.913a.721.721,0,0,1-.675-.681c0-.453.224-.906.675-.678l3.833.453v.678a6.858,6.858,0,0,0-3.833.228" transform="translate(76.619 11.234)" fill="#fff"/>
        <path id="Path_127569" data-name="Path 127569" d="M59.775,10.854a.723.723,0,0,1-.677-.681.6.6,0,0,1,.677-.678l3.833.678v.681a6.458,6.458,0,0,0-3.833,0" transform="translate(77.514 12.558)" fill="#fff"/>
        <path id="Path_127570" data-name="Path 127570" d="M60.36,11.83a.723.723,0,0,1-.677-.681c0-.453.451-.678.9-.678l3.83.906-.224.453a6.4,6.4,0,0,0-3.833,0" transform="translate(78.281 13.849)" fill="#fff"/>
        <path id="Path_127571" data-name="Path 127571" d="M61.041,12.9a.6.6,0,0,1-.675-.681c.224-.453.448-.678.9-.678l3.83,1.131-.224.455a10.918,10.918,0,0,0-3.833-.228" transform="translate(79.177 15.268)" fill="#fff"/>
        <path id="Path_127572" data-name="Path 127572" d="M61.534,13.976a.67.67,0,0,1-.451-.906c0-.228.451-.453.9-.453L65.591,14.2l-.224.453a7.44,7.44,0,0,0-3.833-.681" transform="translate(80.038 16.687)" fill="#fff"/>
        <path id="Path_127573" data-name="Path 127573" d="M62.315,15.244c-.227,0-.677-.453-.451-.681,0-.453.451-.678.9-.678l3.606,1.586-.224.453a7.464,7.464,0,0,0-3.833-.681" transform="translate(81.061 18.364)" fill="#fff"/>
        <path id="Path_127574" data-name="Path 127574" d="M62.818,16.414c-.451,0-.675-.453-.451-.906,0-.228.451-.453.9-.453l3.606,1.359-.224.681a7.432,7.432,0,0,0-3.833-.681" transform="translate(81.686 19.912)" fill="#fff"/>
        <path id="Path_127575" data-name="Path 127575" d="M63.208,17.636c-.451-.228-.677-.453-.451-.906,0-.453.451-.681.9-.453l3.606,1.359-.224.453a8.19,8.19,0,0,0-3.833-.453" transform="translate(82.197 21.41)" fill="#fff"/>
        <path id="Path_127576" data-name="Path 127576" d="M63.473,18.787a1,1,0,0,1-.227-1.133c0-.225.451-.453.9-.453l3.382,1.812-.224.455a7.254,7.254,0,0,0-3.833-.681" transform="translate(82.833 22.75)" fill="#fff"/>
        <path id="Path_127577" data-name="Path 127577" d="M63.863,19.851c-.227,0-.451-.453-.227-.906,0-.228.453-.453.9-.228l3.382,1.814-.224.453a11.88,11.88,0,0,0-3.833-1.133" transform="translate(83.345 24.632)" fill="#fff"/>
        <path id="Path_127578" data-name="Path 127578" d="M64.625,21.537a.849.849,0,0,1-.613-1.15,1.158,1.158,0,0,1,.9-.455l3.38,2.039-.224.453a12.421,12.421,0,0,0-3.444-.887" transform="translate(83.873 26.362)" fill="#fff"/>
        <path id="Path_127579" data-name="Path 127579" d="M58.214,8.9a.718.718,0,0,1-.675-.678c0-.455.448-.681.9-.681l3.833.681v.453a7.853,7.853,0,0,0-4.057.225" transform="translate(75.469 9.977)" fill="#fff"/>
        <path id="Path_127580" data-name="Path 127580" d="M57.433,7.928a.722.722,0,0,1-.675-.681c0-.453.451-.678.9-.678l3.83.678V7.7a7.878,7.878,0,0,0-4.057.228" transform="translate(74.445 8.688)" fill="#fff"/>
        <path id="Path_127581" data-name="Path 127581" d="M56.589,7.179c-.451,0-.9-.453-.675-.906a.721.721,0,0,1,.675-.681l3.833.681v.453a7.738,7.738,0,0,0-3.833.453" transform="translate(73.259 7.397)" fill="#fff"/>
        <path id="Path_127582" data-name="Path 127582" d="M55.873,6.106c-.451-.225-.675-.453-.675-.906s.448-.681.9-.681l3.606,1.133v.681c-1.426-.725-2.624-.372-3.833-.228" transform="translate(72.398 5.978)" fill="#fff"/>
        <path id="Path_127583" data-name="Path 127583" d="M57.1,4.419c-.106-.439.277-.769.77-.655.437-.109.763.279.652.771l-.455,3.844-.492-.111A9.578,9.578,0,0,0,57.1,4.419" transform="translate(74.872 4.948)" fill="#fff"/>
        <path id="Path_127584" data-name="Path 127584" d="M58.77,4.778c0-.228.448-.453.9-.453.224,0,.451.453.451.906L58.77,8.854h-.451a9.864,9.864,0,0,0,.451-4.076" transform="translate(76.492 5.72)" fill="#fff"/>
        <path id="Path_127585" data-name="Path 127585" d="M59.9,5.706c0-.453.451-.678.9-.453.451,0,.451.453.451.906l-1.8,4.306H59a13.667,13.667,0,0,0,.9-4.759" transform="translate(77.386 6.831)" fill="#fff"/>
        <path id="Path_127586" data-name="Path 127586" d="M60.555,6.664c.227-.453.451-.681.9-.681.451.228.675.455.675.908l-1.8,4.531-.451-.228a7.9,7.9,0,0,0,.677-4.531" transform="translate(78.537 7.913)" fill="#fff"/>
        <path id="Path_127587" data-name="Path 127587" d="M61.591,7.314c0-.453.451-.453.9-.453a1.184,1.184,0,0,1,.451.906l-2.03,4.306h-.451a10.43,10.43,0,0,0,1.128-4.759" transform="translate(79.304 9.074)" fill="#fff"/>
        <path id="Path_127588" data-name="Path 127588" d="M62.469,8.387a1.175,1.175,0,0,1,.9-.453.831.831,0,0,1,.451,1.133c-.227.225-.451.453-.677.453l-1.352,3.851-.451-.225L62.7,9.293c-.227-.225-.453-.453-.227-.906" transform="translate(80.456 10.493)" fill="#fff"/>
        <path id="Path_127589" data-name="Path 127589" d="M63.376,9.558c0-.453.451-.453.9-.453a1.72,1.72,0,0,1,.451.906L62.7,14.317l-.675-.228a8.784,8.784,0,0,0,1.352-4.531" transform="translate(81.351 12.042)" fill="#fff"/>
        <path id="Path_127590" data-name="Path 127590" d="M64.187,10.458c0-.228.448-.453.9-.228.227,0,.451.453.227.908l-2.252,4.076-.451-.225a14.606,14.606,0,0,0,1.577-4.531" transform="translate(82.12 13.407)" fill="#fff"/>
        <path id="Path_127591" data-name="Path 127591" d="M64.87,11.8a.9.9,0,0,1,.9-.453.829.829,0,0,1,.451,1.133l-2.254,4.076-.677-.225A8.4,8.4,0,0,0,64.87,11.8" transform="translate(83.013 15.009)" fill="#fff"/>
        <path id="Path_127592" data-name="Path 127592" d="M65.712,12.6c.227-.228.675-.453.9-.228.451.228.451.681.224,1.133l-2.7,3.851-.451-.225a12.411,12.411,0,0,0,2.03-4.531" transform="translate(83.526 16.245)" fill="#fff"/>
        <path id="Path_127593" data-name="Path 127593" d="M66.07,13.774c.227-.225.677-.453.9-.225a.9.9,0,0,1,.451.906l-2.7,4.079-.451-.228a12.875,12.875,0,0,0,1.8-4.531" transform="translate(84.293 17.795)" fill="#fff"/>
        <path id="Path_127594" data-name="Path 127594" d="M66.814,14.652c.224-.225.675-.453.9-.225.451.225.451.678.224,1.131l-2.929,3.626-.451-.228a10.5,10.5,0,0,0,2.254-4.3" transform="translate(84.678 18.956)" fill="#fff"/>
        <path id="Path_127595" data-name="Path 127595" d="M67.429,15.659a.557.557,0,0,1,.9-.228.564.564,0,0,1,.227.908L65.4,19.963l-.451-.228a13.24,13.24,0,0,0,2.48-4.076" transform="translate(85.188 20.214)" fill="#fff"/>
        <path id="Path_127596" data-name="Path 127596" d="M67.594,16.518a.68.68,0,0,1,.9,0,.561.561,0,0,1,.224.906L65.791,21.05l-.451-.228a10.427,10.427,0,0,0,2.254-4.3" transform="translate(85.701 21.621)" fill="#fff"/>
        <path id="Path_127597" data-name="Path 127597" d="M68.208,18c.227-.453.677-.453,1.128-.225a1.017,1.017,0,0,1,0,1.131l-3.158,3.4-.448-.453A11.66,11.66,0,0,0,68.208,18" transform="translate(86.212 23.31)" fill="#fff"/>
        <path id="Path_127598" data-name="Path 127598" d="M68.728,19.054a.68.68,0,0,1,.9,0c.224.225.451.681.224.906l-3.38,3.626-.451-.453a13.756,13.756,0,0,0,2.7-4.079" transform="translate(86.597 24.975)" fill="#fff"/>
        <path id="Path_127599" data-name="Path 127599" d="M69.02,20.666a.743.743,0,0,1,1.128,0,.694.694,0,0,1,0,.906l-3.382,3.4-.451-.453a8,8,0,0,0,2.7-3.851" transform="translate(86.98 26.987)" fill="#fff"/>
        <path id="Path_127600" data-name="Path 127600" d="M69.215,22.325a.743.743,0,0,1,1.128,0,.694.694,0,0,1,0,.906l-3.382,3.4-.451-.453a11.666,11.666,0,0,0,2.7-3.851" transform="translate(87.235 29.182)" fill="#fff"/>
        <path id="Path_127601" data-name="Path 127601" d="M69.508,24.125a1,1,0,0,1,1.126,0,.689.689,0,0,1,0,.906l-3.38,3.4L66.8,28.2a8.918,8.918,0,0,0,2.7-4.079" transform="translate(87.62 31.685)" fill="#fff"/>
        <path id="Path_127602" data-name="Path 127602" d="M69.831,26.031c.224-.228.675-.453.9,0,.224.225.451.678,0,.906l-3.382,3.17-.451-.225a11.737,11.737,0,0,0,2.931-3.851" transform="translate(87.747 34.083)" fill="#fff"/>
        <path id="Path_127603" data-name="Path 127603" d="M69.831,27.95c.451-.453.9-.453,1.126-.228a1.012,1.012,0,0,1,0,1.133L67.351,31.8l-.451-.228a10.547,10.547,0,0,0,2.931-3.623" transform="translate(87.747 36.47)" fill="#fff"/>
        <path id="Path_127604" data-name="Path 127604" d="M70.311,29.491a1,1,0,0,1,1.128,0,1,1,0,0,1-.227,1.133l-4.057,2.49-.451-.453a12.9,12.9,0,0,0,3.606-3.17" transform="translate(87.491 38.78)" fill="#fff"/>
        <path id="Path_127605" data-name="Path 127605" d="M70.214,31.2a.986.986,0,0,1,1.126.228,1,1,0,0,1-.224,1.131L66.83,34.6l-.222-.453c1.616-.829,2.862-1.5,3.606-2.945" transform="translate(87.364 41.147)" fill="#fff"/>
        <path id="Path_127606" data-name="Path 127606" d="M70.148,32.959a.982.982,0,0,1,1.126.228,1.706,1.706,0,0,1-.224,1.131l-4.283,2.039-.451-.453c1.727-.841,3.058-1.5,3.833-2.945" transform="translate(86.98 43.467)" fill="#fff"/>
        <path id="Path_127607" data-name="Path 127607" d="M70.08,34.714a.99.99,0,0,1,1.128.228c0,.453,0,.906-.451.906l-4.51,1.584-.224-.451a10.928,10.928,0,0,0,4.057-2.267" transform="translate(86.597 45.79)" fill="#fff"/>
        <path id="Path_127608" data-name="Path 127608" d="M69.884,36.078c.451-.228.9,0,.9.453.227.228,0,.681-.224.906l-4.51,1.586-.224-.453a12.063,12.063,0,0,0,4.057-2.492" transform="translate(86.34 47.599)" fill="#fff"/>
        <path id="Path_127609" data-name="Path 127609" d="M69.592,37.346c.224-.228.675,0,.9.453.224.228,0,.681-.227.906l-4.508,1.586-.224-.453a12.077,12.077,0,0,0,4.057-2.492" transform="translate(85.957 49.276)" fill="#fff"/>
        <path id="Path_127610" data-name="Path 127610" d="M69.684,38.422c.451-.228.9,0,.9.228a1.008,1.008,0,0,1,0,1.131L65.4,42.5l-.451-.453c1.759-1.138,3.666-2.107,4.734-3.623" transform="translate(85.189 50.693)" fill="#fff"/>
        <path id="Path_127611" data-name="Path 127611" d="M64.718,22.808c-.451-.228-.451-.681-.451-1.133a.986.986,0,0,1,1.126-.225l4.059,2.492-.224.453a10.807,10.807,0,0,0-4.51-1.586" transform="translate(84.293 28.245)" fill="#fff"/>
        <path id="Path_127612" data-name="Path 127612" d="M64.936,24.174c-.224-.225-.451-.678-.224-.906a.555.555,0,0,1,.9-.228l3.83,2.945-.224.453a10.42,10.42,0,0,0-4.281-2.265" transform="translate(84.753 30.278)" fill="#fff"/>
        <path id="Path_127613" data-name="Path 127613" d="M65.064,25.832a.66.66,0,0,1,.675-1.133l3.833,2.945-.227.453a15.359,15.359,0,0,0-4.281-2.265" transform="translate(84.849 32.471)" fill="#fff"/>
        <path id="Path_127614" data-name="Path 127614" d="M65.259,27.5c-.451-.225-.451-.681-.227-1.133a1.008,1.008,0,0,1,1.128,0,.834.834,0,0,1,.227.681l3.155,2.492-.227.453L65.936,27.5a.421.421,0,0,1-.677,0" transform="translate(85.104 34.652)" fill="#fff"/>
        <path id="Path_127615" data-name="Path 127615" d="M65.143,29.148a.689.689,0,0,1,0-.906.557.557,0,0,1,.9-.228l3.606,3.4-.451.453a13.626,13.626,0,0,0-4.057-2.717" transform="translate(85.22 36.857)" fill="#fff"/>
        <path id="Path_127616" data-name="Path 127616" d="M65.239,30.624c-.451-.228-.451-.681,0-1.133a.686.686,0,0,1,.9,0L69.3,33.116l-.451.453a10.441,10.441,0,0,0-3.606-2.945" transform="translate(85.125 38.781)" fill="#fff"/>
        <path id="Path_127617" data-name="Path 127617" d="M65.044,31.989a1.021,1.021,0,0,1,0-1.133.686.686,0,0,1,.9,0L69.1,34.481l-.224.453c-1.232-1.4-2.286-2.553-3.833-2.945" transform="translate(85.093 40.586)" fill="#fff"/>
        <path id="Path_127618" data-name="Path 127618" d="M64.948,33.473a.689.689,0,0,1,0-.906c.224-.453.675-.228.9,0l2.931,3.851-.451.228a14.433,14.433,0,0,0-3.382-3.173" transform="translate(84.964 42.728)" fill="#fff"/>
        <path id="Path_127619" data-name="Path 127619" d="M64.656,34.9a1.013,1.013,0,0,1,0-1.133c.451-.228.9-.228,1.126.228l2.48,4.076-.451.228a12.754,12.754,0,0,0-3.155-3.4" transform="translate(84.581 44.469)" fill="#fff"/>
        <path id="Path_127620" data-name="Path 127620" d="M63.865,38.025c-.227-.453-.227-.906.224-1.133a.557.557,0,0,1,.9.228l2.48,4.079-.451.225a12.644,12.644,0,0,0-3.155-3.4" transform="translate(83.57 48.598)" fill="#fff"/>
        <path id="Path_127621" data-name="Path 127621" d="M63.15,39.457a1,1,0,0,1,.224-1.133.989.989,0,0,1,1.128.228l2.254,4.757-.451.228c-.9-1.747-1.618-3.231-3.155-4.079" transform="translate(82.706 50.564)" fill="#fff"/>
        <path id="Path_127622" data-name="Path 127622" d="M64.253,36.238c-.227-.453-.227-.906.227-1.133.224-.225.675,0,.9.228l2.478,4.757-.448.228a13.838,13.838,0,0,0-3.158-4.079" transform="translate(84.08 46.306)" fill="#fff"/>
        <path id="Path_127623" data-name="Path 127623" d="M57.071,4.032C70.6,17.4,79.163,33.486,81.644,50.931,84.124,68.6,80.292,86.5,70.6,102.584a.783.783,0,0,1-1.126.228.562.562,0,0,1-.227-.906c9.468-15.859,13.3-33.3,10.821-50.75A80.089,80.089,0,0,0,56.17,5.166c-.451-.228-.451-.681,0-1.133a.68.68,0,0,1,.9,0" transform="translate(73.23 5.107)" fill="#fff"/>
        <path id="Path_127624" data-name="Path 127624" d="M82.825,49.563l-3.049-9.3a66.664,66.664,0,0,1-30.241,35V90.746H47.883v2.769A82.531,82.531,0,0,0,97.252,37.783Z" transform="translate(62.804 49.973)" fill="#fff"/>
        <path id="Path_127625" data-name="Path 127625" d="M47.716,90.748V75.216h.171C34,67.758,22.825,55.757,17.358,40.866l-2.929,8.7L0,37.782A82.541,82.541,0,0,0,49.369,93.516V90.748Z" transform="translate(0 49.971)" fill="#fff"/>
        <path id="Path_127626" data-name="Path 127626" d="M85.711,69.877H20.519v-16.1H85.711Zm-64.626-.569H85.142V54.345H21.085Z" transform="translate(26.913 71.126)" fill="#fff"/>
        <path id="Path_127627" data-name="Path 127627" d="M37.819,66.132a5.664,5.664,0,1,1,5.636-5.663,5.656,5.656,0,0,1-5.636,5.663m0-10.531a4.868,4.868,0,1,0,4.845,4.868A4.863,4.863,0,0,0,37.819,55.6" transform="translate(42.209 72.486)" fill="#fff"/>
        <path id="Path_127628" data-name="Path 127628" d="M44.92,66.132a5.664,5.664,0,1,1,5.638-5.663,5.654,5.654,0,0,1-5.638,5.663m0-10.531a4.868,4.868,0,1,0,4.845,4.868A4.863,4.863,0,0,0,44.92,55.6" transform="translate(51.525 72.486)" fill="#fff"/>
        <path id="Path_127629" data-name="Path 127629" d="M41.369,66.132a5.664,5.664,0,1,1,5.638-5.663,5.654,5.654,0,0,1-5.638,5.663m0-10.531a4.868,4.868,0,1,0,4.845,4.868A4.863,4.863,0,0,0,41.369,55.6" transform="translate(46.868 72.486)" fill="#fff"/>
        <path id="Path_127630" data-name="Path 127630" d="M34.268,66.132a5.664,5.664,0,1,1,5.638-5.663,5.656,5.656,0,0,1-5.638,5.663m0-10.531a4.868,4.868,0,1,0,4.845,4.868A4.861,4.861,0,0,0,34.268,55.6" transform="translate(37.551 72.486)" fill="#fff"/>
        <path id="Path_127631" data-name="Path 127631" d="M30.717,66.132a5.664,5.664,0,1,1,5.638-5.663,5.656,5.656,0,0,1-5.638,5.663m0-10.531a4.868,4.868,0,1,0,4.843,4.868A4.863,4.863,0,0,0,30.717,55.6" transform="translate(32.894 72.486)" fill="#fff"/>
        <path id="Path_127632" data-name="Path 127632" d="M27.166,66.132A5.664,5.664,0,1,1,32.8,60.469a5.656,5.656,0,0,1-5.638,5.663m0-10.531a4.868,4.868,0,1,0,4.843,4.868A4.863,4.863,0,0,0,27.166,55.6" transform="translate(28.236 72.486)" fill="#fff"/>
        <path id="Path_127633" data-name="Path 127633" d="M48.471,66.132a5.664,5.664,0,1,1,5.638-5.663,5.655,5.655,0,0,1-5.638,5.663m0-10.531a4.868,4.868,0,1,0,4.845,4.868A4.861,4.861,0,0,0,48.471,55.6" transform="translate(56.183 72.486)" fill="#fff"/>
        <path id="Path_127634" data-name="Path 127634" d="M136.717,62.056l-.039-.75-.608-.441c-.513-.372-1.056-.718-1.63-1.085-2.247-1.435-4.794-3.064-5.509-6.431s.955-5.895,2.425-8.122c.363-.55.737-1.117,1.059-1.675l.374-.65-.266-.7c-.726-1.9-1.551-3.793-2.453-5.625l-.337-.685-.749-.156c-.617-.13-1.26-.221-1.942-.321-2.688-.386-5.469-.785-7.36-3.5-1.9-2.736-1.278-5.484-.675-8.157.141-.632.275-1.226.372-1.816l.127-.771-.536-.567c-1.325-1.408-2.739-2.78-4.207-4.081l-.587-.52-.767.16c-.594.123-1.214.29-1.817.453a16.447,16.447,0,0,1-4.263.757,6.764,6.764,0,0,1-3.8-1.126c-2.76-1.8-3.195-4.569-3.618-7.247-.1-.622-.2-1.266-.328-1.87l-.166-.766L98.7,6.036c-1.75-.8-3.569-1.538-5.407-2.188l-.733-.26-.65.43c-.506.334-1,.706-1.53,1.1C88.619,6.442,86.62,7.94,84.075,7.94A7.061,7.061,0,0,1,82.7,7.8c-3.243-.627-4.739-3.015-6.181-5.324-.361-.576-.7-1.12-1.066-1.633L75,.222l-.765-.03C73.266.153,72.406.134,71.613.134c-1.142,0-2.323.033-3.507.1l-.747.039L66.92.88c-.368.509-.714,1.054-1.084,1.635-1.429,2.255-3.049,4.813-6.405,5.528a7.814,7.814,0,0,1-1.623.177c-2.545,0-4.63-1.387-6.479-2.615-.571-.383-1.11-.741-1.657-1.057l-.647-.376-.7.267c-1.9.729-3.782,1.556-5.6,2.462l-.684.341-.155.748c-.127.618-.217,1.257-.317,1.949-.384,2.7-.781,5.491-3.491,7.388a6.975,6.975,0,0,1-4.129,1.28,18.158,18.158,0,0,1-3.981-.6c-.633-.144-1.232-.279-1.824-.379l-.767-.128-.566.537c-1.4,1.329-2.767,2.75-4.064,4.223l-.52.59.16.771c.123.59.282,1.185.451,1.823.7,2.618,1.426,5.324-.368,8.094s-4.552,3.208-7.219,3.63c-.652.1-1.269.2-1.863.332l-.763.167-.326.713c-.8,1.756-1.533,3.582-2.18,5.428l-.259.734.428.653c.331.509.7,1.008,1.1,1.535,1.625,2.183,3.306,4.441,2.677,7.716-.626,3.254-3,4.757-5.3,6.206-.548.344-1.11.7-1.627,1.071l-.624.448-.03.766c-.037.969-.058,1.828-.058,2.636,0,1.15.032,2.334.095,3.521l.039.75.608.439c.518.376,1.084.739,1.632,1.089,2.247,1.435,4.792,3.061,5.506,6.429s-.955,5.895-2.425,8.125c-.381.576-.74,1.122-1.061,1.672l-.374.65.268.7c.726,1.9,1.551,3.8,2.453,5.625l.337.687.749.156c.617.128,1.255.218,1.939.318,2.564.367,5.469.783,7.36,3.5,1.9,2.738,1.281,5.486.677,8.152-.141.634-.275,1.231-.372,1.821l-.127.771.534.567c1.327,1.408,2.742,2.778,4.209,4.079l.585.523.767-.16c.589-.121,1.181-.281,1.819-.453a16.528,16.528,0,0,1,4.263-.757,6.74,6.74,0,0,1,3.8,1.126c2.76,1.8,3.195,4.569,3.618,7.247.044.279.095.532.139.8h.518c-.049-.286-.095-.578-.141-.88-.418-2.662-.892-5.679-3.849-7.607a7.273,7.273,0,0,0-4.085-1.21,16.937,16.937,0,0,0-4.4.776c-.624.167-1.211.327-1.785.446l-.513.107-.391-.348c-1.456-1.291-2.859-2.65-4.175-4.044l-.356-.381.086-.513c.095-.578.229-1.171.37-1.8.6-2.641,1.271-5.632-.761-8.559-2.02-2.9-5.046-3.338-7.716-3.721-.67-.1-1.3-.186-1.907-.311l-.5-.1-.227-.458c-.895-1.819-1.713-3.7-2.432-5.579l-.178-.467.25-.434c.31-.537.666-1.078,1.043-1.647,1.528-2.316,3.259-4.936,2.5-8.522s-3.4-5.272-5.737-6.764c-.571-.365-1.107-.708-1.607-1.068l-.4-.295-.025-.5c-.062-1.178-.095-2.353-.095-3.493,0-.8.018-1.651.058-2.615l.021-.511.414-.3c.5-.358,1.031-.7,1.6-1.054,2.284-1.44,4.873-3.073,5.541-6.55.673-3.5-1.156-5.962-2.772-8.129-.388-.523-.756-1.015-1.08-1.51l-.284-.434.173-.49c.643-1.833,1.371-3.642,2.164-5.384l.217-.474.506-.114c.58-.128,1.19-.223,1.833-.325,2.651-.418,5.657-.894,7.577-3.863s1.13-5.916.432-8.519c-.166-.622-.324-1.215-.444-1.791l-.1-.513.344-.393c1.288-1.461,2.642-2.871,4.031-4.19l.377-.358.511.086c.578.1,1.17.23,1.794.372a18.521,18.521,0,0,0,4.1.611,7.483,7.483,0,0,0,4.429-1.375c2.894-2.028,3.326-5.066,3.706-7.746.1-.671.187-1.308.312-1.914l.1-.5.455-.228c1.808-.9,3.678-1.719,5.559-2.441l.465-.179.43.251c.539.311,1.075.669,1.641,1.045,1.9,1.266,4.055,2.7,6.759,2.7a8.4,8.4,0,0,0,1.731-.188c3.571-.762,5.254-3.417,6.738-5.76.363-.571.705-1.11,1.066-1.61L67.634.78l.5-.028c1.172-.06,2.344-.093,3.479-.093.791,0,1.641.019,2.605.056l.511.021.3.416c.356.5.691,1.036,1.047,1.607C77.51,5.051,79.135,7.65,82.6,8.321a7.874,7.874,0,0,0,1.477.144c2.714,0,4.79-1.554,6.62-2.927.518-.39,1.01-.76,1.5-1.085l.432-.286.488.172c1.824.646,3.629,1.377,5.361,2.174l.474.216.113.511c.127.581.224,1.192.326,1.84.416,2.659.89,5.679,3.847,7.6a7.257,7.257,0,0,0,4.085,1.212,16.937,16.937,0,0,0,4.4-.776c.622-.17,1.211-.327,1.785-.446l.511-.107.393.346c1.454,1.291,2.857,2.652,4.175,4.048l.356.379-.086.513c-.095.578-.229,1.173-.37,1.8-.6,2.639-1.271,5.632.761,8.557,2.02,2.9,5.046,3.338,7.716,3.721.668.1,1.3.188,1.9.311l.5.1.224.458c.9,1.819,1.715,3.7,2.434,5.579l.178.467-.25.434c-.312.537-.666,1.075-1.043,1.647-1.528,2.313-3.259,4.936-2.5,8.522s3.405,5.275,5.737,6.764c.571.365,1.107.708,1.607,1.068l.4.293.025.5c.062,1.178.092,2.353.092,3.493,0,.8-.016,1.651-.055,2.615l-.021.511-.414.3c-.5.358-1.031.694-1.6,1.052-2.284,1.44-4.873,3.073-5.541,6.55-.673,3.5,1.156,5.96,2.769,8.129.391.523.758,1.015,1.082,1.51l.284.437-.173.49c-.645,1.835-1.373,3.647-2.164,5.382l-.217.474-.506.111c-.58.13-1.19.225-1.833.327-2.651.418-5.659.894-7.58,3.863s-1.128,5.916-.432,8.519c.166.625.326,1.215.446,1.791l.1.513-.344.393c-1.285,1.459-2.64,2.868-4.031,4.19l-.377.358-.511-.086c-.578-.1-1.17-.23-1.794-.372a18.5,18.5,0,0,0-4.1-.611,7.481,7.481,0,0,0-4.427,1.375c-2.894,2.028-3.326,5.066-3.708,7.746-.09.634-.178,1.233-.294,1.809h.534c.106-.555.19-1.124.277-1.735.365-2.576.781-5.493,3.491-7.391a6.957,6.957,0,0,1,4.126-1.28,18.167,18.167,0,0,1,3.994.6c.629.142,1.225.279,1.812.376l.767.128.566-.537c1.4-1.333,2.772-2.755,4.064-4.223l.52-.59-.16-.769c-.123-.595-.282-1.192-.453-1.826-.7-2.618-1.426-5.324.37-8.094s4.549-3.21,7.219-3.63c.652-.1,1.267-.2,1.863-.332l.763-.17.326-.711c.8-1.751,1.53-3.577,2.18-5.428l.259-.734-.425-.653c-.331-.5-.693-.992-1.1-1.535-1.623-2.183-3.3-4.443-2.675-7.716.624-3.254,3-4.754,5.319-6.213.569-.36,1.107-.7,1.611-1.064l.624-.448.03-.766c.037-.966.058-1.828.058-2.636,0-1.147-.032-2.334-.095-3.521" transform="translate(8.415 0.177)" fill="#fff"/>
        <path id="Path_127635" data-name="Path 127635" d="M65.734,4.61a55.046,55.046,0,1,0,54.838,55.047A55,55,0,0,0,65.734,4.61M119.4,58.3l-2.071.072-.035-1.038,2.071-.074Zm-.224-3.753-2.062.218L117,53.727l2.062-.218Zm-.483-3.728-2.043.362-.183-1.024,2.043-.362Zm-.747-3.684-2.011.5-.252-1.01,2.013-.5Zm-1-3.626-1.972.643-.319-.989,1.969-.643ZM115.7,39.961l-1.923.778-.388-.964,1.923-.78Zm-1.491-3.451-1.861.913-.458-.934,1.863-.913Zm-1.727-3.335-1.8,1.041-.518-.9,1.794-1.041Zm-1.953-3.208-1.72,1.164-.58-.862,1.718-1.166Zm-2.813-3.883.64.82-1.637,1.282-.638-.82Zm-2.434-2.857.693.773-1.542,1.394-.693-.773Zm-2.631-2.678.747.722-1.44,1.5-.747-.722Zm-2.809-2.49.8.669-1.331,1.6-.8-.671Zm-2.975-2.285.841.611-1.221,1.684-.839-.611ZM93.739,13.7l.881.553-1.1,1.765-.881-.55Zm-3.264-1.847.918.488-.973,1.837-.915-.488Zm-3.382-1.617.948.423-.844,1.9-.948-.423ZM83.607,8.86l.971.355-.707,1.956-.973-.355ZM80.031,7.734l1,.288-.571,2-1-.288Zm-3.645-.876,1.015.216-.43,2.037L75.958,8.9Zm-3.7-.615,1.029.144-.289,2.063L72.4,8.305Zm-3.729-.358,1.033.072-.143,2.076-1.036-.072Zm-3.745-.093h1.036V7.873H65.216Zm-2.709.093.146,2.076-1.033.074-.146-2.079Zm-3.729.358.287,2.063-1.024.144L57.75,6.387Zm-3.7.618.43,2.035L54.5,9.111l-.43-2.035Zm-3.645.873.571,2-.994.286-.573-2ZM47.863,8.86l.71,1.956-.975.358L46.89,9.218Zm-3.486,1.375.841,1.9-.948.423-.844-1.9Zm-3.387,1.617.976,1.837-.915.49-.973-1.84ZM37.731,13.7l1.1,1.765-.878.55-1.1-1.765ZM34.6,15.773l1.218,1.684-.839.611-1.218-1.684Zm-2.975,2.285,1.331,1.6-.793.669-1.334-1.6Zm-2.809,2.49,1.44,1.5-.747.725-1.44-1.5Zm-2.628,2.678,1.54,1.394-.693.773L25.5,24Zm-2.436,2.857,1.634,1.282-.638.82L23.117,26.9ZM21.524,29.1l1.72,1.164-.583.862-1.72-1.164Zm-2.016,3.168,1.8,1.041-.52.9-1.8-1.041Zm-1.792,3.3,1.863.913-.455.936-1.861-.913Zm-1.558,3.419,1.923.78-.388.966-1.923-.78Zm-1.315,3.521,1.972.643-.319.989-1.974-.643Zm-1.068,3.6,2.016.5-.254,1.01-2.011-.5Zm-.811,3.67,2.041.362-.18,1.024-2.043-.362Zm-.559,3.719,2.064.218-.111,1.034L12.3,54.542Zm-.3,3.746,2.076.074-.039,1.041L12.072,58.3Zm-.035,3.76,2.074-.072.037,1.041-2.076.072Zm.224,3.753,2.064-.216.109,1.034-2.064.216Zm.485,3.728,2.043-.36.18,1.024-2.043.36Zm.744,3.684,2.011-.5.254,1.013-2.016.5Zm1,3.626,1.974-.643.319.992-1.972.641Zm1.248,3.544,1.926-.778.386.966-1.923.778ZM17.262,82.8l1.865-.913.455.938-1.865.91Zm1.727,3.338,1.8-1.041.52.9-1.8,1.038Zm1.953,3.208,1.722-1.164.58.864-1.72,1.164Zm2.813,3.881-.638-.818,1.634-1.282.64.82Zm2.436,2.859-.693-.773,1.542-1.394.693.776Zm2.628,2.68-.747-.722,1.442-1.5.744.722Zm2.809,2.488-.8-.669,1.336-1.6.793.671Zm2.973,2.285-.837-.611,1.221-1.684.839.611Zm3.128,2.074-.878-.553,1.1-1.765.878.553Zm3.262,1.847-.915-.488.975-1.837.915.488Zm3.384,1.619-.948-.425.846-1.9.945.423Zm3.488,1.373-.973-.358.71-1.956.973.358Zm3.574,1.126-1-.286.573-2,1,.288Zm3.643.876-1.012-.216L54.5,110.2l1.012.216Zm3.7.618-1.026-.146.291-2.06,1.026.144Zm3.731.355-1.033-.074.146-2.074,1.033.072Zm3.745.1H65.216V111.44h1.036Zm2.709-.1-.146-2.076,1.033-.072L70,113.354Zm3.731-.355-.289-2.063,1.026-.144.289,2.06Zm3.7-.618-.43-2.037,1.012-.216.43,2.037Zm3.643-.876-.571-2,1-.286.571,2Zm3.576-1.126-.71-1.956.973-.355.71,1.956Zm3.486-1.373-.844-1.9.948-.425.844,1.9Zm3.384-1.617-.973-1.84.915-.488.973,1.837Zm3.262-1.849-1.1-1.765.878-.553,1.1,1.768Zm3.128-2.074-1.221-1.684.839-.611,1.221,1.684Zm2.975-2.285L98.51,99.66l.791-.669,1.334,1.593Zm-34.108,8.731a50.327,50.327,0,1,1,50.139-50.327,50.233,50.233,0,0,1-50.139,50.327m36.914-11.218-1.44-1.5.747-.722,1.44,1.5Zm2.631-2.678-1.542-1.394.693-.776,1.542,1.4Zm2.434-2.859-1.634-1.282.638-.82,1.637,1.282Zm2.231-3.019-1.718-1.164.58-.864,1.72,1.164Zm2.016-3.168L110.166,86l.518-.9,1.8,1.041Zm1.791-3.305-1.863-.913.458-.934,1.861.913Zm1.558-3.419-1.923-.778.388-.966,1.923.78Zm1.315-3.521-1.969-.641.319-.992,1.972.643Zm1.068-3.6-2.013-.5.252-1.013,2.011.506Zm.814-3.672-2.043-.36.183-1.024,2.043.36Zm.557-3.716L117,65.586l.109-1.034,2.062.216Zm.3-3.749-2.071-.072.035-1.041,2.071.074Z" transform="translate(14.294 6.097)" fill="#fff"/>
        <path id="Path_127636" data-name="Path 127636" d="M134.3,67.255c.032-.855.053-1.712.053-2.573q0-1.728-.092-3.438c-2.545-1.847-6.706-3.533-7.753-8.464s2.09-8.183,3.662-10.912q-1.071-2.812-2.393-5.488c-3.031-.632-7.46-.423-10.266-4.459s-1.068-8.1-.566-11.132q-1.963-2.083-4.108-3.981c-2.989.62-6.96,2.532-11.052-.137s-3.964-7.1-4.623-10.1q-2.576-1.185-5.275-2.139c-2.554,1.689-5.55,4.952-10.375,4.02S75.09,3.391,73.287.867C72.436.834,71.581.811,70.723.811,69.575.811,68.433.846,67.3.9c-1.842,2.555-3.521,6.733-8.435,7.781S50.714,6.592,48,5.013q-2.8,1.077-5.469,2.4c-.629,3.043-.421,7.486-4.443,10.306s-8.072,1.071-11.089.567q-2.074,1.972-3.967,4.123c.617,3,2.522,6.987-.136,11.093s-7.078,3.983-10.058,4.641q-1.182,2.589-2.131,5.3c1.683,2.564,4.935,5.572,4,10.415S9.662,60.3,7.147,62.108c-.03.855-.053,1.712-.053,2.573q0,1.728.09,3.438c2.547,1.849,6.711,3.535,7.755,8.466s-2.09,8.183-3.664,10.909q1.075,2.815,2.395,5.491c3.031.629,7.46.42,10.266,4.459s1.068,8.1.566,11.13q1.963,2.083,4.108,3.981c2.987-.618,6.96-2.529,11.052.137,3.779,2.464,3.962,6.417,4.482,9.365h9.542a8.776,8.776,0,0,1,6.248-1.147,8.431,8.431,0,0,1,2.931,1.147h16.47a8.961,8.961,0,0,1,3.243-1.38,9.819,9.819,0,0,1,7.252,1.38h8.858c.076-.037.155-.07.231-.107.626-3.043.418-7.488,4.443-10.306s8.072-1.071,11.089-.569q2.074-1.972,3.967-4.123c-.617-3-2.522-6.984.134-11.093s7.08-3.981,10.06-4.641q1.182-2.589,2.131-5.3c-1.681-2.562-4.935-5.572-4-10.412s5.044-6.448,7.559-8.257M70.723,120.776A56.093,56.093,0,1,1,126.6,64.681a56.053,56.053,0,0,1-55.881,56.094" transform="translate(9.305 1.072)" fill="#fff"/>
        <path id="Path_127637" data-name="Path 127637" d="M56.843,12.067,19.213,66.87,59.927,55.444Z" transform="translate(25.199 15.959)" fill="#fff"/>
        <path id="Path_127638" data-name="Path 127638" d="M54.178,13.023,25.029,41.187,19.208,63.951Z" transform="translate(25.194 17.224)" fill="#fff"/>
        <path id="Path_127639" data-name="Path 127639" d="M66.765,37.54,32.486,48.765,48.6,52.454Z" transform="translate(42.609 49.651)" fill="#fff"/>
        <path id="Path_127640" data-name="Path 127640" d="M22.652,38.322l26.59-25.691L32.453,22.974Z" transform="translate(29.71 16.706)" fill="#fff"/>
        <path id="Path_127641" data-name="Path 127641" d="M32.111,56.464,68.323,44.607l-24.6-13.43Z" transform="translate(42.118 41.236)" fill="#fff"/>
        <path id="Path_127642" data-name="Path 127642" d="M52.5,49.059l9.6-8.768L36.335,12.5Z" transform="translate(47.658 16.536)" fill="#fff"/>
        <path id="Path_127643" data-name="Path 127643" d="M52.212,49.426,35.94,12.621,38.911,54.4Z" transform="translate(47.14 16.693)" fill="#fff"/>
        <path id="Path_127644" data-name="Path 127644" d="M37.532,33.7,61.111,46.574,50.556,28.833Z" transform="translate(49.228 38.136)" fill="#fff"/>
        <path id="Path_127645" data-name="Path 127645" d="M43.516,33.513,54,51.142,52.921,24.924Z" transform="translate(57.075 32.965)" fill="#fff"/>
        <path id="Path_127646" data-name="Path 127646" d="M59.463,31.209,19.294,42.481,47.817,56.57Z" transform="translate(25.306 41.278)" fill="#fff"/>
        <path id="Path_127647" data-name="Path 127647" d="M85.185,36.178l7.436,23.974H90.407l-1.916-6.308H79.138l-1.884,6.308H75.139l7.536-23.974Zm2.744,15.873L83.863,38.5H83.8L79.767,52.051Z" transform="translate(98.553 47.85)" fill="#fff"/>
        <path id="Path_127648" data-name="Path 127648" d="M93.124,60.525H90.415L88.5,54.215h-9l-1.884,6.311H75l7.684-24.45h2.859Zm-2.36-.476h1.72L85.2,36.551H83.03l-7.386,23.5h1.618l1.884-6.308h9.7Zm-2.335-7.628h-8.8L83.8,38.4h.416Zm-8.165-.474h7.529l-3.779-12.6Z" transform="translate(98.37 47.714)" fill="#fff"/>
        <path id="Path_127649" data-name="Path 127649" d="M85.707,45.053H83.03V43.46h2.677V40.638c0-1.593.231-4.518,4.263-4.518a9.643,9.643,0,0,1,1.123.135v1.658H89.607c-1.916,0-1.916,1.728-1.916,2.69V43.46h3.37v1.593H87.69V60.229H85.707Z" transform="translate(108.903 47.773)" fill="#fff"/>
        <path id="Path_127650" data-name="Path 127650" d="M88.06,60.6H85.6V45.426H82.928V43.356H85.6V40.771c0-1.175,0-4.752,4.5-4.752a5.461,5.461,0,0,1,.772.079l.587.084v2.1H89.74c-1.551,0-1.681,1.212-1.681,2.453v2.618h3.37v2.069H88.06Zm-1.983-.474h1.509V44.95h3.373V43.832H87.586V40.739c0-.95,0-2.927,2.154-2.927h1.251V36.6l-.185-.028a5.142,5.142,0,0,0-.7-.074c-3.569,0-4.027,2.285-4.027,4.278v3.061H83.4V44.95h2.677Z" transform="translate(108.769 47.64)" fill="#fff"/>
        <path id="Path_127651" data-name="Path 127651" d="M89.5,41.727h.065a5.069,5.069,0,0,1,4.6-2.59v2.025a4,4,0,0,0-4.66,4.283V56.239H87.518V39.469H89.5Z" transform="translate(114.79 51.764)" fill="#fff"/>
        <path id="Path_127652" data-name="Path 127652" d="M89.871,56.61H87.416V39.367h2.455v1.775A5.426,5.426,0,0,1,94.3,39.035h.236v2.52l-.257-.021a3.764,3.764,0,0,0-4.4,4.048Zm-1.983-.474H89.4V45.583a4.549,4.549,0,0,1,1.341-3.454,4.445,4.445,0,0,1,3.319-1.082V39.513a4.8,4.8,0,0,0-4.149,2.46l-.067.128H89.4V39.843H87.888Z" transform="translate(114.656 51.629)" fill="#fff"/>
        <path id="Path_127653" data-name="Path 127653" d="M91.478,36.178h2.446V38.7H91.478Zm.231,7.2h1.983v16.77H91.709Z" transform="translate(119.984 47.85)" fill="#fff"/>
        <path id="Path_127654" data-name="Path 127654" d="M94.062,60.525H91.607V43.282h2.455Zm-1.983-.476h1.512V43.756H92.079Zm2.215-20.976H91.376v-3h2.917ZM91.848,38.6h1.974V36.551H91.848Z" transform="translate(119.85 47.714)" fill="#fff"/>
        <path id="Path_127655" data-name="Path 127655" d="M102.189,44.284c.1-2.093-.661-3.554-2.943-3.554a2.754,2.754,0,0,0-2.675,1.928,22.986,22.986,0,0,0-.46,5.279c0,3.022,0,7.04,3.07,7.04,2.612,0,2.94-1.661,3.04-3.686H104.2c.164,4.515-3.007,5.279-4.561,5.279-5.65,0-5.65-4.483-5.65-8.633a22.323,22.323,0,0,1,.495-5.546c.86-2.39,2.744-3.254,5.025-3.254,2.873,0,4.822,1.628,4.658,5.147Z" transform="translate(123.284 51.764)" fill="#fff"/>
        <path id="Path_127656" data-name="Path 127656" d="M99.78,56.943c-5.888,0-5.888-4.713-5.888-8.87a22.311,22.311,0,0,1,.509-5.623c.814-2.267,2.58-3.414,5.247-3.414a4.9,4.9,0,0,1,3.673,1.361,5.28,5.28,0,0,1,1.223,4.034l-.012.225h-2.455l.012-.249a3.449,3.449,0,0,0-.691-2.6,2.667,2.667,0,0,0-2.016-.708,2.52,2.52,0,0,0-2.453,1.768,23.149,23.149,0,0,0-.448,5.2c0,3.031,0,6.8,2.836,6.8,2.441,0,2.709-1.5,2.8-3.461l.012-.225h2.436l.007.23a5.461,5.461,0,0,1-1.294,4.139,4.935,4.935,0,0,1-3.5,1.387m-.132-17.434c-2.448,0-4.064,1.043-4.8,3.1a20.545,20.545,0,0,0-.481,5.465c0,4.127,0,8.394,5.414,8.394a4.453,4.453,0,0,0,3.162-1.24,4.877,4.877,0,0,0,1.167-3.563h-1.528c-.113,1.9-.527,3.686-3.264,3.686-3.31,0-3.31-4.206-3.31-7.277a23.086,23.086,0,0,1,.476-5.358,2.979,2.979,0,0,1,2.9-2.086,3.113,3.113,0,0,1,2.358.855,3.718,3.718,0,0,1,.828,2.7h1.512a4.7,4.7,0,0,0-1.1-3.458,4.451,4.451,0,0,0-3.331-1.215" transform="translate(123.15 51.629)" fill="#fff"/>
        <path id="Path_127657" data-name="Path 127657" d="M108.8,54.178h-.067a5.347,5.347,0,0,1-4.725,2.39c-2.975,0-4.593-2.025-4.593-4.945,0-5.879,5.883-5.282,9.253-5.546v-1.4c0-2.455-.728-3.951-3.37-3.951-1.819,0-3.273.9-3.273,2.889H99.907c.166-3.222,2.644-4.483,5.553-4.483,1.685,0,5.19.167,5.19,4.45v8.434a36.315,36.315,0,0,0,.2,4.218H108.8Zm-.132-6.508c-2.843.1-7.138-.232-7.138,3.851,0,1.893.957,3.454,3.007,3.454a4.3,4.3,0,0,0,4.131-4.25Z" transform="translate(130.39 51.764)" fill="#fff"/>
        <path id="Path_127658" data-name="Path 127658" d="M104.139,56.943c-2.98,0-4.829-1.986-4.829-5.184,0-5.363,4.681-5.563,8.1-5.709.4-.016.791-.033,1.154-.056V44.818c0-2.673-.878-3.714-3.135-3.714-1.9,0-3.037.992-3.037,2.652v.237h-2.6l.014-.251c.155-2.992,2.263-4.708,5.788-4.708,1.341,0,5.425,0,5.425,4.689v8.434a35.717,35.717,0,0,0,.2,4.192l.025.26H108.7V54.943a5.671,5.671,0,0,1-4.556,2m1.29-16.312c3.2,0,3.606,2.237,3.606,4.188v1.614l-.217.016c-.428.035-.9.056-1.387.077-3.407.144-7.649.325-7.649,5.233,0,2.95,1.63,4.71,4.357,4.71a5.094,5.094,0,0,0,4.528-2.285l.072-.1h.428v2.058h1.553a35.886,35.886,0,0,1-.173-3.979V43.724c0-3.779-2.827-4.213-4.954-4.213-1.5,0-4.961.4-5.3,4.007h1.632c.106-1.788,1.426-2.887,3.5-2.887m-.761,14.719c-2,0-3.243-1.414-3.243-3.691,0-3.937,3.782-4.014,6.544-4.069.282,0,.557-.009.823-.019l.243-.009v3.3a4.545,4.545,0,0,1-4.367,4.487m3.9-7.3-.585.014c-2.853.056-6.082.121-6.082,3.593,0,1.554.728,3.217,2.772,3.217a4.058,4.058,0,0,0,3.9-4.014Z" transform="translate(130.256 51.629)" fill="#fff"/>
        <path id="Path_127659" data-name="Path 127659" d="M107.927,56.239h-1.983V39.469h1.983v2.06h.067a4.821,4.821,0,0,1,4.031-2.392c4.131,0,4.561,3.089,4.561,5.282v11.82H114.6V44.516c0-1.958-.761-3.784-3.072-3.784-1.785,0-3.6,1.226-3.6,4.98Z" transform="translate(138.958 51.764)" fill="#fff"/>
        <path id="Path_127660" data-name="Path 127660" d="M116.956,56.61H114.5V44.651c0-1.324-.37-3.547-2.836-3.547-1.012,0-3.368.462-3.368,4.743V56.61h-2.455V39.367H108.3v1.672a4.842,4.842,0,0,1,3.863-2c4.8,0,4.8,4.153,4.8,5.519Zm-1.983-.474h1.512V44.554c0-2.348-.492-5.045-4.325-5.045a4.542,4.542,0,0,0-3.837,2.29l-.072.1h-.425V39.843h-1.512V56.137h1.512V45.847c0-4.84,2.938-5.217,3.84-5.217,2.1,0,3.308,1.466,3.308,4.02Z" transform="translate(138.824 51.629)" fill="#fff"/>
        <path id="Path_127661" data-name="Path 127661" d="M115.322,60.152V36.178h3.6l7.039,21.649h.067l6.939-21.649h3.373V60.152h-2.115V38.236h-.067l-7.007,21.916h-2.446L117.5,38.236h-.065V60.152Z" transform="translate(151.258 47.85)" fill="#fff"/>
        <path id="Path_127662" data-name="Path 127662" d="M136.711,60.524h-2.587V39.678L127.46,60.524h-2.79l-6.863-20.878V60.524H115.22V36.076h4.011l.051.165L126.129,57.3l6.8-21.222h3.779ZM134.6,60.05h1.644V36.55h-2.964L126.334,58.2h-.409l-.053-.163L118.886,36.55h-3.195v23.5h1.644V38.134h.472l7.205,21.916h2.1l7.007-21.916h.474Z" transform="translate(151.124 47.715)" fill="#fff"/>
        <path id="Path_127663" data-name="Path 127663" d="M126.343,36.178h2.446V38.7h-2.446Zm.231,7.2h1.983v16.77h-1.983Z" transform="translate(165.713 47.85)" fill="#fff"/>
        <path id="Path_127664" data-name="Path 127664" d="M128.927,60.525h-2.455V43.282h2.455Zm-1.983-.476h1.512V43.756h-1.512Zm2.215-20.976h-2.917v-3h2.917Zm-2.443-.474h1.974V36.551h-1.974Z" transform="translate(165.579 47.714)" fill="#fff"/>
        <path id="Path_127665" data-name="Path 127665" d="M131.171,56.239h-1.983V39.469h1.983v2.06h.067a4.821,4.821,0,0,1,4.031-2.392c4.131,0,4.561,3.089,4.561,5.282v11.82h-1.983V44.516c0-1.958-.761-3.784-3.074-3.784-1.782,0-3.6,1.226-3.6,4.98Z" transform="translate(169.445 51.764)" fill="#fff"/>
        <path id="Path_127666" data-name="Path 127666" d="M140.2,56.61h-2.455V44.651c0-1.324-.37-3.547-2.836-3.547-1.012,0-3.368.462-3.368,4.743V56.61h-2.453V39.367h2.453v1.672a4.842,4.842,0,0,1,3.863-2c4.8,0,4.8,4.153,4.8,5.519Zm-1.983-.474h1.512V44.554c0-2.348-.492-5.045-4.325-5.045a4.542,4.542,0,0,0-3.837,2.29l-.072.1h-.425V39.843h-1.509V56.137h1.509V45.847c0-4.84,2.938-5.217,3.84-5.217,2.1,0,3.308,1.466,3.308,4.02Z" transform="translate(169.311 51.629)" fill="#fff"/>
        <path id="Path_127667" data-name="Path 127667" d="M137.189,48.268v1.3c0,2.323.629,5.412,3.768,5.412,2.478,0,3.7-1.593,3.669-3.851h2.083c-.234,4.051-2.413,5.444-5.751,5.444-2.876,0-5.751-1.161-5.751-6.241V46.21c0-4.847,2.018-7.072,5.751-7.072,5.751,0,5.751,4.151,5.751,9.13Zm7.536-1.593c0-3.719-.6-5.944-3.768-5.944s-3.768,2.225-3.768,5.944Z" transform="translate(177.338 51.765)" fill="#fff"/>
        <path id="Path_127668" data-name="Path 127668" d="M141.092,56.94c-3.974,0-5.989-2.179-5.989-6.478V46.344c0-4.852,2.016-7.309,5.989-7.309,5.985,0,5.985,4.341,5.985,9.367v.237H137.56V49.7c0,2.36.613,5.175,3.532,5.175a3.381,3.381,0,0,0,2.517-.913,3.674,3.674,0,0,0,.913-2.7l0-.239h2.57l-.014.251c-.22,3.814-2.175,5.667-5.985,5.667m0-17.431c-3.712,0-5.516,2.237-5.516,6.836v4.118c0,4.041,1.8,6,5.516,6,3.472,0,5.224-1.582,5.5-4.97h-1.6a4.021,4.021,0,0,1-1.049,2.8,3.876,3.876,0,0,1-2.853,1.054c-2.584,0-4.006-2.007-4.006-5.649V48.165h9.519c0-4.857-.09-8.656-5.513-8.656m4,7.537h-8.007v-.237c0-3.816.67-6.181,4.006-6.181s4,2.364,4,6.181Zm-7.534-.474h7.062c-.025-3.549-.626-5.47-3.53-5.47s-3.507,1.921-3.532,5.47" transform="translate(177.203 51.629)" fill="#fff"/>
        <path id="Path_127669" data-name="Path 127669" d="M143.636,41.727h.065a5.068,5.068,0,0,1,4.593-2.59v2.025a4,4,0,0,0-4.658,4.283V56.239h-1.983V39.469h1.983Z" transform="translate(185.794 51.764)" fill="#fff"/>
        <path id="Path_127670" data-name="Path 127670" d="M144.006,56.61h-2.455V39.367h2.455v1.775a5.425,5.425,0,0,1,4.422-2.107h.236v2.52l-.254-.021a3.764,3.764,0,0,0-4.4,4.048Zm-1.983-.474h1.512V45.583a4.549,4.549,0,0,1,1.341-3.454,4.463,4.463,0,0,1,3.317-1.082V39.513a4.8,4.8,0,0,0-4.147,2.46l-.067.128h-.444V39.843h-1.512Z" transform="translate(185.66 51.629)" fill="#fff"/>
        <path id="Path_127671" data-name="Path 127671" d="M154.483,54.178h-.065a5.354,5.354,0,0,1-4.727,2.39c-2.975,0-4.593-2.025-4.593-4.945,0-5.879,5.883-5.282,9.253-5.546v-1.4c0-2.455-.726-3.951-3.37-3.951-1.819,0-3.271.9-3.271,2.889H145.6c.164-3.222,2.642-4.483,5.55-4.483,1.685,0,5.19.167,5.19,4.45v8.434a35.9,35.9,0,0,0,.2,4.218h-2.05Zm-.132-6.508c-2.841.1-7.138-.232-7.138,3.851,0,1.893.959,3.454,3.007,3.454a4.3,4.3,0,0,0,4.131-4.25Z" transform="translate(190.312 51.764)" fill="#fff"/>
        <path id="Path_127672" data-name="Path 127672" d="M149.825,56.943c-2.977,0-4.829-1.986-4.829-5.184,0-5.363,4.681-5.563,8.1-5.709.4-.016.791-.033,1.153-.056V44.818c0-2.673-.878-3.714-3.135-3.714-1.9,0-3.035.992-3.035,2.652v.237h-2.6l.012-.251c.153-2.992,2.261-4.708,5.786-4.708,1.341,0,5.425,0,5.425,4.689v8.434a35.726,35.726,0,0,0,.2,4.192l.028.26h-2.547V54.94a5.666,5.666,0,0,1-4.556,2m1.29-16.312c3.178,0,3.606,2.116,3.606,4.188v1.614l-.217.016c-.428.035-.9.056-1.387.077-3.407.144-7.649.325-7.649,5.233,0,2.95,1.63,4.71,4.357,4.71a5.1,5.1,0,0,0,4.531-2.285l.069-.1h.43v2.058h1.551a35.889,35.889,0,0,1-.173-3.979V43.724c0-3.779-2.827-4.213-4.954-4.213-1.5,0-4.963.395-5.3,4.007h1.634c.106-1.788,1.426-2.887,3.5-2.887m-.761,14.719c-2,0-3.243-1.414-3.243-3.691,0-3.937,3.782-4.014,6.544-4.069.284,0,.559-.009.823-.019l.243-.009v3.3a4.543,4.543,0,0,1-4.367,4.487m3.9-7.3-.585.014c-2.85.056-6.082.121-6.082,3.593,0,1.554.728,3.217,2.772,3.217a4.058,4.058,0,0,0,3.9-4.014Z" transform="translate(190.179 51.629)" fill="#fff"/>
        <rect id="Rectangle_52686" data-name="Rectangle 52686" width="1.983" height="23.974" transform="translate(351.173 84.029)" fill="#fff"/>
        <path id="Path_127673" data-name="Path 127673" d="M154.27,60.524h-2.455V36.076h2.455Zm-1.983-.476h1.51v-23.5h-1.51Z" transform="translate(199.122 47.715)" fill="#fff"/>
        <path id="Path_127674" data-name="Path 127674" d="M159.409,56.571c-3.6,0-5.023-1.758-4.991-5.312h2.016c0,2.29.529,3.818,3.074,3.818,1.916,0,2.841-1.1,2.841-2.957,0-4.383-7.5-3.252-7.5-8.8,0-3.089,2.115-4.185,5.023-4.185,3.306,0,4.364,2.292,4.364,4.85h-1.951c-.1-2.125-.661-3.254-2.908-3.254a2.383,2.383,0,0,0-2.545,2.425c0,4.183,7.5,3.054,7.5,8.666,0,3.154-1.817,4.747-4.924,4.747" transform="translate(202.536 51.764)" fill="#fff"/>
        <path id="Path_127675" data-name="Path 127675" d="M159.542,56.94a5.253,5.253,0,0,1-3.927-1.291,5.741,5.741,0,0,1-1.3-4.26l0-.235H156.8v.237c0,2.211.474,3.582,2.839,3.582,1.727,0,2.605-.915,2.605-2.717,0-1.919-1.526-2.69-3.292-3.586-1.974-1-4.209-2.132-4.209-5.214,0-2.892,1.817-4.42,5.259-4.42,2.966,0,4.6,1.8,4.6,5.084v.237h-2.411l-.012-.225c-.092-1.963-.546-3.029-2.672-3.029A2.155,2.155,0,0,0,157.2,43.29c0,1.791,1.486,2.527,3.208,3.379,2.013,1,4.293,2.128,4.293,5.286,0,3.215-1.831,4.984-5.16,4.984m-4.753-5.312a5.128,5.128,0,0,0,1.16,3.686,4.82,4.82,0,0,0,3.592,1.152c3.068,0,4.688-1.559,4.688-4.511,0-2.864-2.048-3.879-4.031-4.861-1.785-.883-3.47-1.719-3.47-3.8a2.605,2.605,0,0,1,2.781-2.662c2.395,0,3,1.238,3.132,3.254h1.489c-.056-2.049-.841-4.374-4.124-4.374-3.176,0-4.787,1.329-4.787,3.946,0,2.789,2.009,3.809,3.951,4.792,1.745.885,3.551,1.8,3.551,4.009,0,2.058-1.093,3.191-3.077,3.191-2.8,0-3.278-1.8-3.31-3.818Z" transform="translate(202.404 51.629)" fill="#fff"/>
        <path id="Path_127676" data-name="Path 127676" d="M76.025,51.29h6.313c6.676,0,7.5,3.918,7.5,12.087,0,7.969-1.158,11.887-8.361,11.887H76.025ZM78.14,73.471h2.577c6.378,0,7.007-1.726,7.007-11.523,0-6.873-.925-8.866-6.808-8.866H78.14Z" transform="translate(99.715 67.838)" fill="#fff"/>
        <path id="Path_127677" data-name="Path 127677" d="M81.612,75.635H75.923V51.187h6.546c7.219,0,7.739,4.657,7.739,12.324,0,8.215-1.285,12.124-8.6,12.124m-5.217-.474h5.217c6.951,0,8.125-3.593,8.125-11.65s-.717-11.85-7.268-11.85H76.395Zm4.457-1.319H78.038V52.98H81.05c6.073,0,7.044,2.162,7.044,9.1,0,10.745-1.281,11.757-7.242,11.757m-2.342-.474h2.342c6.01,0,6.771-1.266,6.771-11.283,0-6.791-.818-8.631-6.572-8.631H78.51Z" transform="translate(99.582 67.702)" fill="#fff"/>
        <path id="Path_127678" data-name="Path 127678" d="M85.427,63.379v1.3c0,2.323.626,5.412,3.766,5.412,2.478,0,3.7-1.593,3.669-3.851h2.083c-.231,4.051-2.413,5.444-5.751,5.444-2.873,0-5.749-1.161-5.749-6.241V61.321c0-4.847,2.016-7.072,5.749-7.072,5.751,0,5.751,4.151,5.751,9.13Zm7.534-1.593c0-3.719-.594-5.944-3.768-5.944s-3.766,2.225-3.766,5.944Z" transform="translate(109.446 71.751)" fill="#fff"/>
        <path id="Path_127679" data-name="Path 127679" d="M89.327,72.052c-3.971,0-5.985-2.179-5.985-6.478V61.456c0-4.852,2.013-7.309,5.985-7.309,5.987,0,5.987,4.341,5.987,9.367v.237H85.8V64.81c0,2.36.61,5.175,3.53,5.175a3.375,3.375,0,0,0,2.52-.915,3.669,3.669,0,0,0,.913-2.7l0-.239h2.571l-.014.251c-.22,3.814-2.178,5.667-5.987,5.667m0-17.431c-3.71,0-5.513,2.237-5.513,6.836v4.118c0,4.041,1.8,6,5.513,6,3.474,0,5.227-1.582,5.5-4.97H93.231a4.021,4.021,0,0,1-1.049,2.8,3.878,3.878,0,0,1-2.855,1.054c-2.582,0-4-2.007-4-5.649V63.277h9.519c0-4.857-.09-8.657-5.516-8.657m4,7.537H85.323v-.237c0-3.816.67-6.181,4-6.181s4,2.364,4,6.181ZM85.8,61.684h7.06c-.023-3.549-.624-5.47-3.53-5.47s-3.5,1.921-3.53,5.47" transform="translate(109.312 71.617)" fill="#fff"/>
        <path id="Path_127680" data-name="Path 127680" d="M95.252,68.637h.065l4.066-14.245H101.3L96.343,71.159H94.061L89.105,54.392h2.147Z" transform="translate(116.871 71.941)" fill="#fff"/>
        <path id="Path_127681" data-name="Path 127681" d="M96.7,71.533H94.065l-.051-.17L88.968,54.29H91.61l.049.174,3.8,13.557L99.384,54.29H101.8Zm-2.282-.474h1.928l4.817-16.293H99.74L95.674,69.011h-.423l-.046-.174L91.254,54.766H89.6Z" transform="translate(116.692 71.806)" fill="#fff"/>
        <path id="Path_127682" data-name="Path 127682" d="M97.049,63.379v1.3c0,2.323.626,5.412,3.766,5.412,2.478,0,3.7-1.593,3.669-3.851h2.083c-.231,4.051-2.413,5.444-5.751,5.444-2.873,0-5.749-1.161-5.749-6.241V61.321c0-4.847,2.016-7.072,5.749-7.072,5.751,0,5.751,4.151,5.751,9.13Zm7.534-1.593c0-3.719-.594-5.944-3.768-5.944s-3.766,2.225-3.766,5.944Z" transform="translate(124.69 71.751)" fill="#fff"/>
        <path id="Path_127683" data-name="Path 127683" d="M100.949,72.052c-3.971,0-5.985-2.179-5.985-6.478V61.456c0-4.852,2.013-7.309,5.985-7.309,5.987,0,5.987,4.341,5.987,9.367v.237H97.419V64.81c0,2.36.61,5.175,3.53,5.175a3.375,3.375,0,0,0,2.52-.915,3.669,3.669,0,0,0,.913-2.7l0-.239h2.571l-.014.251c-.22,3.814-2.178,5.667-5.987,5.667m0-17.431c-3.71,0-5.513,2.237-5.513,6.836v4.118c0,4.041,1.8,6,5.513,6,3.474,0,5.227-1.582,5.5-4.97h-1.6a4.021,4.021,0,0,1-1.049,2.8,3.878,3.878,0,0,1-2.855,1.054c-2.582,0-4-2.007-4-5.649V63.277h9.519c0-4.857-.09-8.657-5.516-8.657m4,7.537H96.945v-.237c0-3.816.67-6.181,4-6.181s4,2.364,4,6.181Zm-7.534-.474h7.06c-.023-3.549-.624-5.47-3.53-5.47s-3.5,1.921-3.53,5.47" transform="translate(124.556 71.617)" fill="#fff"/>
        <rect id="Rectangle_52687" data-name="Rectangle 52687" width="1.983" height="23.974" transform="translate(235.188 119.126)" fill="#fff"/>
        <path id="Path_127684" data-name="Path 127684" d="M104.095,75.635H101.64V51.187h2.455Zm-1.983-.474h1.512v-23.5h-1.512Z" transform="translate(133.312 67.702)" fill="#fff"/>
        <path id="Path_127685" data-name="Path 127685" d="M104.3,64.775V61.157c0-4.35,1.852-6.908,5.751-6.908s5.751,2.557,5.751,6.908v3.619c0,4.35-1.852,6.908-5.751,6.908s-5.751-2.557-5.751-6.908m1.983-1.826c0,4.383.5,7.14,3.768,7.14s3.768-2.757,3.768-7.14c0-4.35-.495-7.107-3.768-7.107s-3.768,2.757-3.768,7.107" transform="translate(136.801 71.751)" fill="#fff"/>
        <path id="Path_127686" data-name="Path 127686" d="M110.185,72.054c-3.916,0-5.987-2.469-5.987-7.142V61.29c0-4.673,2.071-7.144,5.987-7.144s5.987,2.471,5.987,7.144v3.621c0,4.673-2.071,7.142-5.987,7.142m0-17.431c-4.558,0-5.516,3.626-5.516,6.668v3.621c0,3.04.957,6.668,5.516,6.668s5.516-3.628,5.516-6.668V61.29c0-3.043-.957-6.668-5.516-6.668m0,15.838c-3.7,0-4-3.489-4-7.377,0-3.87.305-7.342,4-7.342s4,3.472,4,7.342c0,3.888-.307,7.377-4,7.377m0-14.245c-2.968,0-3.532,2.413-3.532,6.868,0,4.478.564,6.9,3.532,6.9s3.532-2.425,3.532-6.9c0-4.455-.564-6.868-3.532-6.868" transform="translate(136.667 71.615)" fill="#fff"/>
        <path id="Path_127687" data-name="Path 127687" d="M112.635,56.606l.067-.033a4.931,4.931,0,0,1,4.031-2.325c5.222,0,5.254,4.583,5.254,6.773v3.753c0,4.348-1.486,6.905-5.751,6.905a4.082,4.082,0,0,1-3.47-2.19l-.065-.033v8.234h-1.983V54.581h1.916Zm.067,7.837c0,3.818,1.717,5.644,3.534,5.644,3.273,0,3.768-2.755,3.768-7.137,0-4.35-.495-7.107-3.768-7.107-1.288,0-3.534,1.461-3.534,5.612Z" transform="translate(145.22 71.751)" fill="#fff"/>
        <path id="Path_127688" data-name="Path 127688" d="M113.073,78.065h-2.457V54.48h2.39v1.593a5.1,5.1,0,0,1,3.863-1.928c5.49,0,5.49,4.915,5.49,7.012v3.753c0,4.873-1.9,7.142-5.987,7.142a4.087,4.087,0,0,1-3.3-1.777Zm-1.983-.474H112.6V69.206l.465.237.035.053a3.877,3.877,0,0,0,3.271,2.083c3.814,0,5.515-2.056,5.515-6.668V61.158c0-2.121,0-6.536-5.018-6.536a4.682,4.682,0,0,0-3.835,2.216l-.035.056-.465.228V54.954H111.09Zm5.282-7.131c-1.877,0-3.77-1.819-3.77-5.881V61.59c0-4.262,2.312-5.848,3.77-5.848,3.7,0,4,3.472,4,7.342,0,3.888-.307,7.377-4,7.377m0-14.245c-1.276,0-3.3,1.459-3.3,5.375v2.989c0,3.735,1.657,5.407,3.3,5.407,2.968,0,3.532-2.425,3.532-6.9,0-4.455-.564-6.868-3.532-6.868" transform="translate(145.085 71.615)" fill="#fff"/>
        <path id="Path_127689" data-name="Path 127689" d="M118.863,71.351H116.88v-16.8h1.785v2.093h.067a4.494,4.494,0,0,1,3.964-2.392,3.894,3.894,0,0,1,3.8,2.625,4.41,4.41,0,0,1,4.1-2.625c2.776,0,4.23,1.925,4.33,4.617V71.351h-1.983V59.363c-.032-1.661-.629-3.519-2.577-3.519-2.51,0-3.47,2.522-3.47,4.715V71.351h-1.983V59.363c-.032-1.661-.629-3.519-2.577-3.519-2.51,0-3.47,2.522-3.47,4.715Z" transform="translate(153.301 71.751)" fill="#fff"/>
        <path id="Path_127690" data-name="Path 127690" d="M135.294,71.722h-2.455V59.5c-.021-.985-.289-3.282-2.342-3.282-2.235,0-3.234,2.248-3.234,4.478V71.722h-2.455V59.5c-.021-.985-.289-3.282-2.342-3.282-2.235,0-3.234,2.248-3.234,4.478V71.722h-2.455V54.447h2.256v1.644a4.621,4.621,0,0,1,3.8-1.944,4.167,4.167,0,0,1,3.83,2.316,4.6,4.6,0,0,1,4.068-2.316c2.746,0,4.452,1.812,4.565,4.845Zm-1.983-.474h1.509V59c-.1-2.738-1.63-4.381-4.092-4.381a4.153,4.153,0,0,0-3.888,2.492l-.252.509-.183-.537a3.634,3.634,0,0,0-3.576-2.464,4.262,4.262,0,0,0-3.761,2.274l-.069.118h-.437V54.92H117.25V71.249h1.51V60.695c0-2.464,1.147-4.952,3.708-4.952,1.715,0,2.767,1.4,2.813,3.751V71.249h1.509V60.695c0-2.464,1.147-4.952,3.708-4.952,1.715,0,2.767,1.4,2.813,3.751Z" transform="translate(153.168 71.617)" fill="#fff"/>
        <path id="Path_127691" data-name="Path 127691" d="M128.08,63.379v1.3c0,2.323.629,5.412,3.768,5.412,2.48,0,3.7-1.593,3.669-3.851H137.6c-.233,4.051-2.416,5.444-5.754,5.444-2.876,0-5.747-1.161-5.747-6.241V61.321c0-4.847,2.013-7.072,5.747-7.072,5.754,0,5.754,4.151,5.754,9.13Zm7.536-1.593c0-3.719-.594-5.944-3.768-5.944s-3.768,2.225-3.768,5.944Z" transform="translate(165.396 71.751)" fill="#fff"/>
        <path id="Path_127692" data-name="Path 127692" d="M131.985,72.052c-3.974,0-5.987-2.179-5.987-6.478V61.456c0-4.852,2.013-7.309,5.987-7.309,5.985,0,5.985,4.341,5.985,9.367v.237h-9.517V64.81c0,2.36.613,5.175,3.532,5.175a3.373,3.373,0,0,0,2.517-.915,3.67,3.67,0,0,0,.915-2.7l0-.239h2.57l-.014.251c-.22,3.814-2.175,5.667-5.985,5.667m0-17.431c-3.712,0-5.515,2.237-5.515,6.836v4.118c0,4.041,1.8,6,5.515,6,3.472,0,5.224-1.582,5.5-4.97h-1.6a4.03,4.03,0,0,1-1.047,2.8,3.885,3.885,0,0,1-2.855,1.054c-2.584,0-4.006-2.007-4.006-5.649V63.277H137.5c0-4.857-.088-8.657-5.513-8.657m4,7.537h-8.007v-.237c0-3.816.67-6.181,4.006-6.181s4,2.364,4,6.181Zm-7.534-.474h7.062c-.025-3.549-.626-5.47-3.53-5.47s-3.507,1.921-3.532,5.47" transform="translate(165.261 71.617)" fill="#fff"/>
        <path id="Path_127693" data-name="Path 127693" d="M134.473,71.351H132.49V54.581h1.983v2.06h.067a4.815,4.815,0,0,1,4.031-2.392c4.129,0,4.559,3.089,4.559,5.282v11.82h-1.981V59.628c0-1.958-.76-3.784-3.074-3.784-1.785,0-3.6,1.226-3.6,4.98Z" transform="translate(173.776 71.751)" fill="#fff"/>
        <path id="Path_127694" data-name="Path 127694" d="M143.5,71.722h-2.455V59.763c0-1.324-.37-3.547-2.839-3.547-1.01,0-3.366.462-3.366,4.743V71.722h-2.455V54.479h2.455v1.672a4.835,4.835,0,0,1,3.863-2c4.8,0,4.8,4.153,4.8,5.519Zm-1.983-.474h1.509V59.666c0-2.348-.49-5.045-4.323-5.045a4.537,4.537,0,0,0-3.837,2.29l-.072.1h-.425V54.955H132.86V71.249h1.512V60.959c0-4.84,2.938-5.217,3.837-5.217,2.1,0,3.31,1.466,3.31,4.02Z" transform="translate(173.642 71.617)" fill="#fff"/>
        <path id="Path_127695" data-name="Path 127695" d="M138.051,58.444V56.851h2.677V53.4l1.983-.864v4.318h3.37v1.593h-3.37V69.2c0,2.225.231,2.757,1.817,2.757a9.742,9.742,0,0,0,1.553-.1v1.726a17.167,17.167,0,0,1-1.882.1c-2.679,0-3.472-1.2-3.472-3.254V58.444Z" transform="translate(181.069 69.482)" fill="#fff"/>
        <path id="Path_127696" data-name="Path 127696" d="M144.331,74.13c-2.561,0-3.706-1.078-3.706-3.493V58.886h-2.677V56.819h2.677V53.446l2.455-1.068v4.441h3.37v2.067h-3.37V69.408c0,2.19.208,2.52,1.581,2.52a9.375,9.375,0,0,0,1.516-.1l.273-.042V74l-.21.023a17.789,17.789,0,0,1-1.909.1m-5.911-15.717H141.1V70.636c0,1.812.55,3.017,3.234,3.017.557,0,1.133-.026,1.648-.077v-1.24a11.309,11.309,0,0,1-1.318.065c-1.868,0-2.053-.866-2.053-2.994v-11h3.37v-1.12h-3.37V53.1l-1.512.657v3.535h-2.677Z" transform="translate(180.936 69.277)" fill="#fff"/>
        <path id="Path_127697" data-name="Path 127697" d="M145.5,63.542c0-6.476.067-12.452,7.205-12.452,5.781,0,5.881,4.782,5.881,6.94H156.47c0-2.657-.726-5.147-3.766-5.147-5.023,0-5.09,4.283-5.09,10.659S147.681,74.2,152.7,74.2c2.742,0,3.766-2.457,3.8-5.544h2.245c0,1.726-.4,7.337-6.045,7.337-7.138,0-7.205-5.976-7.205-12.452" transform="translate(190.838 67.573)" fill="#fff"/>
        <path id="Path_127698" data-name="Path 127698" d="M152.837,76.365c-7.441,0-7.441-6.45-7.441-12.689s0-12.689,7.441-12.689c6.119,0,6.119,5.214,6.119,7.177V58.4h-2.587v-.237c0-3.305-1.156-4.91-3.532-4.91-4.854,0-4.854,4.146-4.854,10.422s0,10.422,4.854,10.422c2.9,0,3.539-2.889,3.565-5.312l0-.235h2.716v.239c0,1.777-.453,7.574-6.283,7.574m0-24.9c-6.97,0-6.97,5.932-6.97,12.215s0,12.215,6.97,12.215c5.06,0,5.765-4.62,5.807-6.863h-1.775c-.1,3.577-1.523,5.544-4.031,5.544-5.326,0-5.326-4.808-5.326-10.9s0-10.9,5.326-10.9c2.6,0,3.941,1.73,4,5.147h1.646c-.009-2.116-.213-6.466-5.647-6.466" transform="translate(190.703 67.438)" fill="#fff"/>
        <path id="Path_127699" data-name="Path 127699" d="M154.357,63.379v1.3c0,2.323.629,5.412,3.766,5.412,2.48,0,3.7-1.593,3.671-3.851h2.08c-.231,4.051-2.411,5.444-5.751,5.444-2.873,0-5.749-1.161-5.749-6.241V61.321c0-4.847,2.016-7.072,5.749-7.072,5.751,0,5.751,4.151,5.751,9.13Zm7.534-1.593c0-3.719-.594-5.944-3.768-5.944s-3.766,2.225-3.766,5.944Z" transform="translate(199.856 71.751)" fill="#fff"/>
        <path id="Path_127700" data-name="Path 127700" d="M158.257,72.052c-3.971,0-5.985-2.179-5.985-6.478V61.456c0-4.852,2.013-7.309,5.985-7.309,5.987,0,5.987,4.341,5.987,9.367v.237h-9.517V64.81c0,2.36.61,5.175,3.53,5.175a3.384,3.384,0,0,0,2.522-.915,3.675,3.675,0,0,0,.913-2.7l0-.239h2.571l-.014.251c-.22,3.814-2.178,5.667-5.987,5.667m0-17.431c-3.71,0-5.513,2.237-5.513,6.836v4.118c0,4.041,1.8,6,5.513,6,3.474,0,5.227-1.582,5.5-4.97h-1.6a4.031,4.031,0,0,1-1.047,2.8,3.887,3.887,0,0,1-2.857,1.054c-2.582,0-4-2.007-4-5.649V63.277h9.519c0-4.857-.088-8.657-5.516-8.657m4,7.537h-8.007v-.237c0-3.816.67-6.181,4-6.181s4,2.364,4,6.181Zm-7.534-.474h7.06c-.023-3.549-.624-5.47-3.53-5.47s-3.5,1.921-3.53,5.47" transform="translate(199.722 71.617)" fill="#fff"/>
        <path id="Path_127701" data-name="Path 127701" d="M160.747,71.351h-1.983V54.581h1.983v2.06h.067a4.815,4.815,0,0,1,4.031-2.392c4.129,0,4.559,3.089,4.559,5.282v11.82h-1.981V59.628c0-1.958-.76-3.784-3.074-3.784-1.785,0-3.6,1.226-3.6,4.98Z" transform="translate(208.237 71.751)" fill="#fff"/>
        <path id="Path_127702" data-name="Path 127702" d="M169.776,71.722h-2.455V59.763c0-1.324-.37-3.547-2.839-3.547-1.01,0-3.366.462-3.366,4.743V71.722h-2.455V54.479h2.455v1.672a4.835,4.835,0,0,1,3.863-2c4.8,0,4.8,4.153,4.8,5.519Zm-1.983-.474H169.3V59.666c0-2.348-.49-5.045-4.323-5.045a4.537,4.537,0,0,0-3.837,2.29l-.072.1h-.425V54.955h-1.512V71.249h1.512V60.959c0-4.84,2.938-5.217,3.837-5.217,2.1,0,3.31,1.466,3.31,4.02Z" transform="translate(208.103 71.617)" fill="#fff"/>
        <path id="Path_127703" data-name="Path 127703" d="M164.325,58.444V56.851H167V53.4l1.983-.864v4.318h3.37v1.593h-3.37V69.2c0,2.225.231,2.757,1.817,2.757a9.742,9.742,0,0,0,1.553-.1v1.726a17.21,17.21,0,0,1-1.884.1c-2.677,0-3.47-1.2-3.47-3.254V58.444Z" transform="translate(215.531 69.482)" fill="#fff"/>
        <path id="Path_127704" data-name="Path 127704" d="M170.605,74.13c-2.564,0-3.706-1.078-3.706-3.493V58.886h-2.677V56.819H166.9V53.446l2.455-1.068v4.441h3.37v2.067h-3.37V69.408c0,2.19.208,2.52,1.581,2.52a9.394,9.394,0,0,0,1.516-.1l.273-.042V74l-.21.023a17.822,17.822,0,0,1-1.909.1m-5.911-15.717h2.677V70.636c0,1.812.55,3.017,3.234,3.017.562,0,1.128-.026,1.648-.077v-1.24a11.309,11.309,0,0,1-1.318.065c-1.868,0-2.053-.866-2.053-2.994v-11h3.37v-1.12h-3.37V53.1l-1.512.657v3.535h-2.677Z" transform="translate(215.397 69.277)" fill="#fff"/>
        <path id="Path_127705" data-name="Path 127705" d="M170.839,56.839h.067a5.063,5.063,0,0,1,4.593-2.59v2.025a4,4,0,0,0-4.66,4.283V71.351h-1.983V54.581h1.983Z" transform="translate(221.474 71.751)" fill="#fff"/>
        <path id="Path_127706" data-name="Path 127706" d="M171.208,71.722h-2.453V54.479h2.453v1.777a5.42,5.42,0,0,1,4.422-2.109h.236v2.52l-.254-.021a3.762,3.762,0,0,0-4.4,4.048Zm-1.983-.474h1.509V60.695a4.562,4.562,0,0,1,1.343-3.454,4.512,4.512,0,0,1,3.319-1.082V54.625a4.8,4.8,0,0,0-4.149,2.46l-.067.128h-.446V54.955h-1.509Z" transform="translate(221.341 71.617)" fill="#fff"/>
        <path id="Path_127707" data-name="Path 127707" d="M174.429,63.379v1.3c0,2.323.626,5.412,3.766,5.412,2.478,0,3.7-1.593,3.669-3.851h2.083c-.231,4.051-2.413,5.444-5.751,5.444-2.873,0-5.751-1.161-5.751-6.241V61.321c0-4.847,2.018-7.072,5.751-7.072,5.751,0,5.751,4.151,5.751,9.13Zm7.534-1.593c0-3.719-.6-5.944-3.768-5.944s-3.766,2.225-3.766,5.944Z" transform="translate(226.178 71.751)" fill="#fff"/>
        <path id="Path_127708" data-name="Path 127708" d="M178.328,72.052c-3.969,0-5.987-2.179-5.987-6.478V61.456c0-4.852,2.018-7.309,5.987-7.309,5.987,0,5.987,4.341,5.987,9.367v.237H174.8V64.81c0,2.36.613,5.175,3.53,5.175a3.373,3.373,0,0,0,2.517-.913,3.666,3.666,0,0,0,.915-2.7l0-.239h2.573l-.014.251c-.22,3.814-2.175,5.667-5.987,5.667m0-17.431c-3.71,0-5.513,2.237-5.513,6.836v4.118c0,4.041,1.8,6,5.513,6,3.474,0,5.227-1.582,5.5-4.97h-1.593a4.032,4.032,0,0,1-1.049,2.8,3.881,3.881,0,0,1-2.855,1.054c-2.582,0-4-2.007-4-5.649V63.277h9.517c0-4.857-.088-8.657-5.513-8.657m4,7.537h-8.007v-.237c0-3.816.673-6.181,4-6.181s4,2.364,4,6.181Zm-7.533-.474h7.06c-.021-3.549-.624-5.47-3.53-5.47s-3.5,1.921-3.53,5.47" transform="translate(226.045 71.617)" fill="#fff"/>
        <path id="Path_127709" data-name="Path 127709" d="M75.964,65.164,101.426.578h6.766l25.64,64.586h-6.32l-6.856-17.443H88.7L81.928,65.164Zm42.645-22.811L104.72,5.946,90.564,42.353Z" transform="translate(99.635 0.764)" fill="#fff"/>
        <path id="Path_127710" data-name="Path 127710" d="M104.079,65.164V.578h9.258l24.126,56.266L162.126.578h8.814V65.164h-5.788V5.5h-.178L140.4,65.164h-5.788l-24.572-59.4h-.178v59.4Z" transform="translate(136.511 0.764)" fill="#fff"/>
        <path id="Path_127711" data-name="Path 127711" d="M156.6.578c21.1,0,33.118,10.912,33.118,32.292S177.7,65.164,156.6,65.164H139.242V.578ZM158.028,59.8c18.072,0,25.462-10.645,25.462-26.926,0-19.053-11.128-27.463-29.381-26.924h-9.08V59.8Z" transform="translate(182.632 0.764)" fill="#fff"/>
        <path id="Path_127712" data-name="Path 127712" d="M207.756,16.461c-1.068-7.871-7.834-11.093-15.136-11.093-16.47,0-21.454,15.03-21.454,28.269S176.149,61.9,192.619,61.9c7.124,0,14.246-3.577,15.848-11.627H214.7c-1.87,10.824-11.752,16.995-22.081,16.995-19.5,0-27.688-15.745-27.688-33.634C164.931,15.924,173.214,0,192.619,0c10.506,0,20.479,4.831,21.369,16.461Z" transform="translate(216.326 -0.001)" fill="#fff"/>
      </g>
    </g>
  </g>
</svg>
