<svg xmlns="http://www.w3.org/2000/svg" xmlns:xlink="http://www.w3.org/1999/xlink" width="155.258" height="53.916" viewBox="0 0 155.258 53.916">
  <defs>
    <clipPath id="clip-path">
      <rect id="Rectangle_52688" data-name="Rectangle 52688" width="155.258" height="53.916" fill="none"/>
    </clipPath>
  </defs>
  <g id="Group_121764" data-name="Group 121764" transform="translate(38 0)">
    <path id="Path_127506" data-name="Path 127506" d="M60.26,59.4v.055h.155v.453h.066v-.453h.155V59.4Z" transform="translate(-9.997 -7.94)" fill="#fff"/>
    <g id="Group_121762" data-name="Group 121762" transform="translate(-38 0)">
      <g id="Group_121761" data-name="Group 121761" clip-path="url(#clip-path)">
        <path id="Path_127507" data-name="Path 127507" d="M61.877,59.892c-.007-.122-.014-.269-.012-.377h0c-.03.1-.066.212-.11.332l-.153.423h-.085l-.141-.416c-.042-.123-.077-.236-.1-.34h0c0,.109-.009.255-.017.387l-.023.374h-.107l.061-.873h.143l.148.422c.037.108.066.2.088.294h0c.022-.088.053-.184.092-.294l.155-.422h.143l.054.873H61.9Z" transform="translate(-10.228 -9.705)" fill="#fff"/>
        <path id="Path_127508" data-name="Path 127508" d="M61.013,61.022a1.28,1.28,0,1,1,1.275-1.28,1.278,1.278,0,0,1-1.275,1.28m0-2.441a1.161,1.161,0,1,0,1.156,1.161,1.159,1.159,0,0,0-1.156-1.161" transform="translate(-9.997 -9.551)" fill="#fff"/>
        <path id="Path_127509" data-name="Path 127509" d="M60.524,59.5H60.26v-.1H60.9v.1h-.266v.777h-.113Z" transform="translate(-10.084 -9.705)" fill="#fff"/>
        <path id="Path_127510" data-name="Path 127510" d="M61.877,59.892c-.007-.122-.014-.269-.012-.377h0c-.03.1-.066.212-.11.332l-.153.423h-.085l-.141-.416c-.042-.123-.077-.236-.1-.34h0c0,.109-.009.255-.017.387l-.023.374h-.107l.061-.873h.143l.148.422c.037.108.066.2.088.294h0c.022-.088.053-.184.092-.294l.155-.422h.143l.054.873H61.9Z" transform="translate(-10.228 -9.705)" fill="#fff"/>
        <path id="Path_127511" data-name="Path 127511" d="M61.013,61.022a1.28,1.28,0,1,1,1.275-1.28,1.278,1.278,0,0,1-1.275,1.28m0-2.441a1.161,1.161,0,1,0,1.156,1.161,1.159,1.159,0,0,0-1.156-1.161" transform="translate(-9.997 -9.551)" fill="#fff"/>
        <path id="Path_127512" data-name="Path 127512" d="M10.255,9.005A.26.26,0,0,0,10.5,8.76c0-.163-.162-.326-.244-.244l-1.381.163v.244a2.47,2.47,0,0,1,1.381.082" transform="translate(-1.485 -1.388)" fill="#fff"/>
        <path id="Path_127513" data-name="Path 127513" d="M9.572,9.984a.26.26,0,0,0,.244-.245A.216.216,0,0,0,9.572,9.5l-1.381.244v.245a2.326,2.326,0,0,1,1.381,0" transform="translate(-1.371 -1.551)" fill="#fff"/>
        <path id="Path_127514" data-name="Path 127514" d="M8.97,10.96a.26.26,0,0,0,.244-.245c0-.163-.163-.244-.325-.244L7.509,10.8l.081.163a2.3,2.3,0,0,1,1.381,0" transform="translate(-1.257 -1.711)" fill="#fff"/>
        <path id="Path_127515" data-name="Path 127515" d="M8.288,12.033a.216.216,0,0,0,.244-.245c-.082-.163-.162-.244-.326-.244l-1.38.407.081.164a3.933,3.933,0,0,1,1.381-.082" transform="translate(-1.142 -1.886)" fill="#fff"/>
        <path id="Path_127516" data-name="Path 127516" d="M7.7,13.106c.081,0,.162-.163.162-.326,0-.082-.162-.163-.325-.163l-1.3.571.081.163A2.68,2.68,0,0,1,7.7,13.106" transform="translate(-1.045 -2.061)" fill="#fff"/>
        <path id="Path_127517" data-name="Path 127517" d="M6.922,14.374c.082,0,.162-.163.162-.245,0-.163-.162-.244-.325-.244l-1.3.571.081.163a2.689,2.689,0,0,1,1.381-.245" transform="translate(-0.914 -2.269)" fill="#fff"/>
        <path id="Path_127518" data-name="Path 127518" d="M6.435,15.544c.162,0,.244-.163.162-.326,0-.082-.162-.163-.325-.163l-1.3.489.081.245a2.679,2.679,0,0,1,1.381-.245" transform="translate(-0.832 -2.46)" fill="#fff"/>
        <path id="Path_127519" data-name="Path 127519" d="M6.045,16.709c.162-.082.244-.163.162-.326,0-.163-.162-.245-.325-.163l-1.3.489.081.163a2.95,2.95,0,0,1,1.381-.163" transform="translate(-0.767 -2.645)" fill="#fff"/>
        <path id="Path_127520" data-name="Path 127520" d="M5.655,17.772a.361.361,0,0,0,.082-.408c0-.081-.163-.163-.326-.163l-1.217.653.081.164a2.613,2.613,0,0,1,1.381-.245" transform="translate(-0.702 -2.81)" fill="#fff"/>
        <path id="Path_127521" data-name="Path 127521" d="M5.184,19.066c.162,0,.244-.163.162-.326,0-.082-.162-.163-.325-.082L3.8,19.311l.082.163a5.178,5.178,0,0,1,1.3-.408" transform="translate(-0.636 -3.043)" fill="#fff"/>
        <path id="Path_127522" data-name="Path 127522" d="M4.794,20.421c.162,0,.244-.163.162-.326a.419.419,0,0,0-.325-.163l-1.218.735.082.163a5.178,5.178,0,0,1,1.3-.408" transform="translate(-0.571 -3.257)" fill="#fff"/>
        <path id="Path_127523" data-name="Path 127523" d="M11.116,8.033a.259.259,0,0,0,.244-.244c0-.164-.162-.245-.325-.245l-1.381.245v.163a2.829,2.829,0,0,1,1.461.081" transform="translate(-1.616 -1.233)" fill="#fff"/>
        <path id="Path_127524" data-name="Path 127524" d="M11.9,7.058a.26.26,0,0,0,.243-.245c-.081-.163-.162-.244-.325-.244l-1.38.244v.163a2.8,2.8,0,0,1,1.461.082" transform="translate(-1.746 -1.073)" fill="#fff"/>
        <path id="Path_127525" data-name="Path 127525" d="M12.791,6.164c.162,0,.243-.163.243-.326a.26.26,0,0,0-.243-.245l-1.381.245V6a2.786,2.786,0,0,1,1.381.163" transform="translate(-1.909 -0.914)" fill="#fff"/>
        <path id="Path_127526" data-name="Path 127526" d="M13.473,5.091c.162-.081.244-.163.244-.326s-.162-.245-.325-.245l-1.3.408v.245a2.124,2.124,0,0,1,1.381-.082" transform="translate(-2.024 -0.739)" fill="#fff"/>
        <path id="Path_127527" data-name="Path 127527" d="M11.5,3.8c0-.163-.162-.245-.325-.163-.162,0-.244.163-.162.326L11.5,5.268l.162-.082A3.453,3.453,0,0,1,11.5,3.8" transform="translate(-1.838 -0.589)" fill="#fff"/>
        <path id="Path_127528" data-name="Path 127528" d="M10.629,4.488c0-.082-.162-.163-.325-.163-.082,0-.162.163-.162.326l.487,1.305h.162a3.526,3.526,0,0,1-.162-1.468" transform="translate(-1.697 -0.707)" fill="#fff"/>
        <path id="Path_127529" data-name="Path 127529" d="M9.745,5.36c0-.163-.162-.244-.325-.163-.162,0-.243.163-.162.326l.649,1.551h.163A4.922,4.922,0,0,1,9.745,5.36" transform="translate(-1.544 -0.844)" fill="#fff"/>
        <path id="Path_127530" data-name="Path 127530" d="M8.955,6.228a.436.436,0,0,0-.325-.245c-.162.082-.243.164-.243.327l.649,1.632L9.2,7.86a2.825,2.825,0,0,1-.243-1.632" transform="translate(-1.403 -0.978)" fill="#fff"/>
        <path id="Path_127531" data-name="Path 127531" d="M8.191,7.024c0-.163-.162-.163-.325-.163a.426.426,0,0,0-.162.326l.731,1.551H8.6a3.757,3.757,0,0,1-.406-1.714" transform="translate(-1.289 -1.121)" fill="#fff"/>
        <path id="Path_127532" data-name="Path 127532" d="M7.307,8.1a.421.421,0,0,0-.324-.163.3.3,0,0,0-.163.408l.732,1.55.162-.081A3.689,3.689,0,0,1,7.307,8.1" transform="translate(-1.136 -1.296)" fill="#fff"/>
        <path id="Path_127533" data-name="Path 127533" d="M6.533,9.268c0-.163-.162-.163-.325-.163a.619.619,0,0,0-.162.326l.731,1.551.162-.082a3.345,3.345,0,0,1-.406-1.632" transform="translate(-1.012 -1.488)" fill="#fff"/>
        <path id="Path_127534" data-name="Path 127534" d="M5.861,10.252c0-.082-.162-.163-.325-.082-.082,0-.162.163-.082.327l.813,1.468.162-.081a5.242,5.242,0,0,1-.569-1.632" transform="translate(-0.907 -1.656)" fill="#fff"/>
        <path id="Path_127535" data-name="Path 127535" d="M5.324,11.313A.324.324,0,0,0,5,11.15a.3.3,0,0,0-.162.408l.812,1.469.244-.082a3.024,3.024,0,0,1-.569-1.632" transform="translate(-0.804 -1.822)" fill="#fff"/>
        <path id="Path_127536" data-name="Path 127536" d="M4.589,12.4c-.082-.082-.244-.163-.325-.082-.162.082-.162.245-.082.408l.975,1.387.162-.081A4.47,4.47,0,0,1,4.589,12.4" transform="translate(-0.691 -2.007)" fill="#fff"/>
        <path id="Path_127537" data-name="Path 127537" d="M4.089,13.57c-.081-.081-.244-.163-.325-.081-.162.081-.244.244-.162.326l.974,1.469.162-.082a4.654,4.654,0,0,1-.649-1.632" transform="translate(-0.597 -2.198)" fill="#fff"/>
        <path id="Path_127538" data-name="Path 127538" d="M3.614,14.448c-.081-.081-.243-.163-.325-.081-.162.081-.162.244-.081.407L4.263,16.08,4.426,16a3.771,3.771,0,0,1-.812-1.55" transform="translate(-0.528 -2.342)" fill="#fff"/>
        <path id="Path_127539" data-name="Path 127539" d="M3.126,15.419a.2.2,0,0,0-.325-.082.2.2,0,0,0-.082.327l1.137,1.305.162-.082a4.769,4.769,0,0,1-.893-1.468" transform="translate(-0.446 -2.497)" fill="#fff"/>
        <path id="Path_127540" data-name="Path 127540" d="M2.834,16.409a.245.245,0,0,0-.325,0,.2.2,0,0,0-.082.326l1.056,1.306.162-.082a3.756,3.756,0,0,1-.812-1.55" transform="translate(-0.397 -2.671)" fill="#fff"/>
        <path id="Path_127541" data-name="Path 127541" d="M2.344,17.76c-.081-.163-.244-.163-.406-.081a.366.366,0,0,0,0,.407L3.075,19.31l.162-.163a4.2,4.2,0,0,1-.893-1.387" transform="translate(-0.314 -2.88)" fill="#fff"/>
        <path id="Path_127542" data-name="Path 127542" d="M1.96,18.945a.245.245,0,0,0-.325,0c-.082.081-.162.245-.082.326l1.218,1.306.162-.163a4.939,4.939,0,0,1-.974-1.469" transform="translate(-0.254 -3.085)" fill="#fff"/>
        <path id="Path_127543" data-name="Path 127543" d="M1.661,20.5c-.162-.081-.325-.163-.406,0a.25.25,0,0,0,0,.326l1.218,1.224.162-.163A2.881,2.881,0,0,1,1.661,20.5" transform="translate(-0.2 -3.334)" fill="#fff"/>
        <path id="Path_127544" data-name="Path 127544" d="M1.466,22.158a.268.268,0,0,0-.406,0,.25.25,0,0,0,0,.326l1.218,1.224.162-.163a4.2,4.2,0,0,1-.974-1.387" transform="translate(-0.167 -3.605)" fill="#fff"/>
        <path id="Path_127545" data-name="Path 127545" d="M1.174,24.017a.362.362,0,0,0-.406,0,.248.248,0,0,0,0,.326l1.217,1.225.162-.082a3.206,3.206,0,0,1-.974-1.469" transform="translate(-0.118 -3.914)" fill="#fff"/>
        <path id="Path_127546" data-name="Path 127546" d="M.988,25.864c-.081-.082-.243-.163-.324,0-.081.081-.162.244,0,.326l1.217,1.142.162-.081A4.251,4.251,0,0,1,.988,25.864" transform="translate(-0.095 -4.21)" fill="#fff"/>
        <path id="Path_127547" data-name="Path 127547" d="M.978,27.71c-.162-.163-.324-.163-.4-.082a.365.365,0,0,0,0,.408l1.3,1.061.162-.082A3.84,3.84,0,0,1,.978,27.71" transform="translate(-0.086 -4.505)" fill="#fff"/>
        <path id="Path_127548" data-name="Path 127548" d="M.883,29.382a.36.36,0,0,0-.406,0c-.081.163-.081.326.082.408l1.461.9.082-.163A4.55,4.55,0,0,1,.883,29.382" transform="translate(-0.071 -4.79)" fill="#fff"/>
        <path id="Path_127549" data-name="Path 127549" d="M.984,31.143a.354.354,0,0,0-.4.082.359.359,0,0,0,.081.407l1.543.735.08-.163a2.608,2.608,0,0,1-1.3-1.061" transform="translate(-0.091 -5.083)" fill="#fff"/>
        <path id="Path_127550" data-name="Path 127550" d="M1.18,32.9a.353.353,0,0,0-.406.082.359.359,0,0,0,.081.407l1.543.735.08-.163A2.6,2.6,0,0,1,1.18,32.9" transform="translate(-0.124 -5.369)" fill="#fff"/>
        <path id="Path_127551" data-name="Path 127551" d="M1.381,34.654a.357.357,0,0,0-.406.082c0,.163,0,.326.162.326l1.625.571.081-.162a3.936,3.936,0,0,1-1.461-.817" transform="translate(-0.163 -5.656)" fill="#fff"/>
        <path id="Path_127552" data-name="Path 127552" d="M1.586,36.021c-.162-.082-.325,0-.325.163-.082.082,0,.245.081.326l1.625.571.081-.163a4.345,4.345,0,0,1-1.461-.9" transform="translate(-0.205 -5.88)" fill="#fff"/>
        <path id="Path_127553" data-name="Path 127553" d="M1.878,37.289c-.162-.082-.243,0-.325.163-.081.082,0,.245.082.326l1.624.571.081-.163a4.358,4.358,0,0,1-1.461-.9" transform="translate(-0.254 -6.087)" fill="#fff"/>
        <path id="Path_127554" data-name="Path 127554" d="M2.161,38.361a.355.355,0,0,0-.406.082.609.609,0,0,0,.082.407L3.7,39.83l.162-.163a5.96,5.96,0,0,1-1.705-1.305" transform="translate(-0.294 -6.262)" fill="#fff"/>
        <path id="Path_127555" data-name="Path 127555" d="M4.435,21.879c.162-.082.162-.245.162-.408a.355.355,0,0,0-.406-.081l-1.462.9.082.163a3.8,3.8,0,0,1,1.624-.571" transform="translate(-0.457 -3.489)" fill="#fff"/>
        <path id="Path_127556" data-name="Path 127556" d="M4.16,23.354c.081-.081.162-.244.081-.326a.2.2,0,0,0-.325-.082l-1.38,1.061.081.163a3.756,3.756,0,0,1,1.543-.816" transform="translate(-0.424 -3.74)" fill="#fff"/>
        <path id="Path_127557" data-name="Path 127557" d="M4.062,25.012a.238.238,0,0,0-.243-.408L2.438,25.664l.081.163a3.756,3.756,0,0,1,1.543-.816" transform="translate(-0.408 -4.011)" fill="#fff"/>
        <path id="Path_127558" data-name="Path 127558" d="M3.883,26.668c.162-.081.162-.245.082-.408a.363.363,0,0,0-.406,0L2.34,27.4l.082.163a4.738,4.738,0,0,1,1.461-.9" transform="translate(-0.392 -4.28)" fill="#fff"/>
        <path id="Path_127559" data-name="Path 127559" d="M3.786,28.328A.2.2,0,0,0,3.867,28a.2.2,0,0,0-.325-.082l-1.3,1.224.162.163a7.754,7.754,0,0,1,1.381-.979" transform="translate(-0.375 -4.553)" fill="#fff"/>
        <path id="Path_127560" data-name="Path 127560" d="M3.9,29.79c.162-.082.162-.245,0-.408a.247.247,0,0,0-.325,0L2.438,30.688l.162.163A3.776,3.776,0,0,1,3.9,29.79" transform="translate(-0.408 -4.79)" fill="#fff"/>
        <path id="Path_127561" data-name="Path 127561" d="M4,31.155a.368.368,0,0,0,0-.408.247.247,0,0,0-.325,0L2.536,32.053l.081.163A2.846,2.846,0,0,1,4,31.155" transform="translate(-0.424 -5.013)" fill="#fff"/>
        <path id="Path_127562" data-name="Path 127562" d="M4.111,32.726a.248.248,0,0,0,0-.326c-.081-.163-.243-.082-.406,0L2.73,33.787l.162.082a5.2,5.2,0,0,1,1.218-1.143" transform="translate(-0.457 -5.278)" fill="#fff"/>
        <path id="Path_127563" data-name="Path 127563" d="M4.42,34.084a.368.368,0,0,0,0-.408c-.162-.082-.325-.082-.406.082l-.893,1.468.162.082A4.581,4.581,0,0,1,4.42,34.084" transform="translate(-0.522 -5.493)" fill="#fff"/>
        <path id="Path_127564" data-name="Path 127564" d="M5.2,37.2c.082-.163.082-.326-.081-.408a.2.2,0,0,0-.325.082L3.9,38.348l.162.081A2.847,2.847,0,0,1,5.2,37.2" transform="translate(-0.653 -6.003)" fill="#fff"/>
        <path id="Path_127565" data-name="Path 127565" d="M5.883,38.672a.361.361,0,0,0-.081-.408.356.356,0,0,0-.406.082l-.812,1.713.162.082a3.1,3.1,0,0,1,1.137-1.469" transform="translate(-0.767 -6.246)" fill="#fff"/>
        <path id="Path_127566" data-name="Path 127566" d="M4.81,35.453a.361.361,0,0,0-.081-.408c-.163-.081-.326,0-.326.082L3.511,36.84l.162.082A4.982,4.982,0,0,1,4.81,35.453" transform="translate(-0.588 -5.72)" fill="#fff"/>
        <path id="Path_127567" data-name="Path 127567" d="M11.041,3.923A29.6,29.6,0,0,0,2.19,20.816,28.2,28.2,0,0,0,6.169,39.422c.081.163.243.163.406.082a.2.2,0,0,0,.082-.326,27.711,27.711,0,0,1-3.9-18.28A28.853,28.853,0,0,1,11.366,4.331c.162-.082.162-.245,0-.408a.245.245,0,0,0-.325,0" transform="translate(-0.322 -0.631)" fill="#fff"/>
        <path id="Path_127568" data-name="Path 127568" d="M58.659,9.005a.26.26,0,0,1-.243-.245c0-.163.081-.326.243-.244l1.381.163v.244a2.47,2.47,0,0,0-1.381.082" transform="translate(-9.775 -1.388)" fill="#fff"/>
        <path id="Path_127569" data-name="Path 127569" d="M59.342,9.984a.26.26,0,0,1-.244-.245.216.216,0,0,1,.244-.244l1.381.244v.245a2.326,2.326,0,0,0-1.381,0" transform="translate(-9.89 -1.551)" fill="#fff"/>
        <path id="Path_127570" data-name="Path 127570" d="M59.927,10.96a.26.26,0,0,1-.244-.245c0-.163.162-.244.326-.244l1.38.326-.081.163a2.3,2.3,0,0,0-1.381,0" transform="translate(-9.987 -1.711)" fill="#fff"/>
        <path id="Path_127571" data-name="Path 127571" d="M60.609,12.033a.216.216,0,0,1-.243-.245c.081-.163.162-.244.325-.244l1.38.407-.081.164a3.933,3.933,0,0,0-1.381-.082" transform="translate(-10.102 -1.886)" fill="#fff"/>
        <path id="Path_127572" data-name="Path 127572" d="M61.207,13.106a.241.241,0,0,1-.162-.326c0-.082.162-.163.325-.163l1.3.571-.081.163a2.68,2.68,0,0,0-1.381-.245" transform="translate(-10.212 -2.061)" fill="#fff"/>
        <path id="Path_127573" data-name="Path 127573" d="M61.987,14.374c-.082,0-.244-.163-.162-.245,0-.163.162-.244.325-.244l1.3.571-.081.163a2.689,2.689,0,0,0-1.381-.245" transform="translate(-10.342 -2.269)" fill="#fff"/>
        <path id="Path_127574" data-name="Path 127574" d="M62.473,15.544c-.162,0-.243-.163-.162-.326,0-.082.162-.163.325-.163l1.3.489-.081.245a2.677,2.677,0,0,0-1.381-.245" transform="translate(-10.422 -2.46)" fill="#fff"/>
        <path id="Path_127575" data-name="Path 127575" d="M62.863,16.709c-.162-.082-.244-.163-.162-.326,0-.163.162-.245.325-.163l1.3.489-.081.163a2.95,2.95,0,0,0-1.381-.163" transform="translate(-10.487 -2.645)" fill="#fff"/>
        <path id="Path_127576" data-name="Path 127576" d="M63.269,17.772a.361.361,0,0,1-.082-.408c0-.081.162-.163.325-.163l1.218.653-.081.164a2.613,2.613,0,0,0-1.381-.245" transform="translate(-10.568 -2.81)" fill="#fff"/>
        <path id="Path_127577" data-name="Path 127577" d="M63.659,19.066c-.082,0-.162-.163-.082-.326,0-.082.163-.163.325-.082l1.218.653-.081.163a4.279,4.279,0,0,0-1.381-.408" transform="translate(-10.634 -3.043)" fill="#fff"/>
        <path id="Path_127578" data-name="Path 127578" d="M64.191,20.51a.306.306,0,0,1-.221-.414.417.417,0,0,1,.325-.164l1.217.735-.081.163a4.474,4.474,0,0,0-1.241-.32" transform="translate(-10.701 -3.257)" fill="#fff"/>
        <path id="Path_127579" data-name="Path 127579" d="M57.782,8.033a.259.259,0,0,1-.243-.244c0-.164.162-.245.324-.245l1.381.245v.163a2.829,2.829,0,0,0-1.461.081" transform="translate(-9.629 -1.233)" fill="#fff"/>
        <path id="Path_127580" data-name="Path 127580" d="M57,7.058a.26.26,0,0,1-.243-.245c0-.163.162-.244.325-.244l1.38.244v.163A2.838,2.838,0,0,0,57,7.058" transform="translate(-9.498 -1.073)" fill="#fff"/>
        <path id="Path_127581" data-name="Path 127581" d="M56.119,6.164c-.162,0-.325-.163-.243-.326a.26.26,0,0,1,.243-.245l1.381.245V6a2.787,2.787,0,0,0-1.381.163" transform="translate(-9.347 -0.914)" fill="#fff"/>
        <path id="Path_127582" data-name="Path 127582" d="M55.441,5.091c-.162-.081-.243-.163-.243-.326s.162-.245.325-.245l1.3.408v.245a2.124,2.124,0,0,0-1.381-.082" transform="translate(-9.237 -0.739)" fill="#fff"/>
        <path id="Path_127583" data-name="Path 127583" d="M57.091,3.985c-.038-.158.1-.277.277-.236.157-.039.275.1.235.278l-.164,1.385-.177-.04a3.45,3.45,0,0,0-.171-1.386" transform="translate(-9.553 -0.611)" fill="#fff"/>
        <path id="Path_127584" data-name="Path 127584" d="M58.481,4.488c0-.082.162-.163.324-.163.081,0,.162.163.162.326l-.486,1.305h-.162a3.553,3.553,0,0,0,.162-1.468" transform="translate(-9.759 -0.707)" fill="#fff"/>
        <path id="Path_127585" data-name="Path 127585" d="M59.326,5.36c0-.163.162-.244.325-.163.162,0,.162.163.162.326l-.649,1.551H59a4.923,4.923,0,0,0,.325-1.714" transform="translate(-9.873 -0.844)" fill="#fff"/>
        <path id="Path_127586" data-name="Path 127586" d="M60.122,6.228c.082-.163.162-.245.325-.245.162.082.243.164.243.327L60.04,7.942l-.162-.082a2.845,2.845,0,0,0,.244-1.632" transform="translate(-10.02 -0.978)" fill="#fff"/>
        <path id="Path_127587" data-name="Path 127587" d="M60.869,7.024c0-.163.162-.163.325-.163a.426.426,0,0,1,.162.326l-.731,1.551h-.162a3.757,3.757,0,0,0,.406-1.714" transform="translate(-10.118 -1.121)" fill="#fff"/>
        <path id="Path_127588" data-name="Path 127588" d="M61.747,8.1a.423.423,0,0,1,.325-.163.3.3,0,0,1,.162.408c-.082.081-.162.163-.244.163L61.5,9.893l-.162-.081.488-1.388c-.082-.081-.163-.163-.082-.326" transform="translate(-10.265 -1.296)" fill="#fff"/>
        <path id="Path_127589" data-name="Path 127589" d="M62.511,9.268c0-.163.162-.163.325-.163A.619.619,0,0,1,63,9.431l-.731,1.551-.243-.082a3.164,3.164,0,0,0,.487-1.632" transform="translate(-10.379 -1.488)" fill="#fff"/>
        <path id="Path_127590" data-name="Path 127590" d="M63.178,10.252c0-.082.162-.163.324-.082.082,0,.162.163.082.327l-.811,1.468-.162-.081a5.261,5.261,0,0,0,.568-1.632" transform="translate(-10.477 -1.656)" fill="#fff"/>
        <path id="Path_127591" data-name="Path 127591" d="M63.86,11.511a.323.323,0,0,1,.325-.163.3.3,0,0,1,.162.408l-.812,1.468-.244-.081a3.024,3.024,0,0,0,.569-1.632" transform="translate(-10.591 -1.854)" fill="#fff"/>
        <path id="Path_127592" data-name="Path 127592" d="M64.413,12.4c.082-.082.243-.163.325-.082.162.082.162.245.081.408l-.974,1.387-.162-.081a4.47,4.47,0,0,0,.731-1.632" transform="translate(-10.657 -2.007)" fill="#fff"/>
        <path id="Path_127593" data-name="Path 127593" d="M64.916,13.57c.082-.081.244-.163.325-.081a.326.326,0,0,1,.162.326l-.974,1.469-.162-.082a4.637,4.637,0,0,0,.649-1.632" transform="translate(-10.755 -2.198)" fill="#fff"/>
        <path id="Path_127594" data-name="Path 127594" d="M65.372,14.448c.081-.081.243-.163.325-.081.162.081.162.244.081.407L64.722,16.08,64.56,16a3.781,3.781,0,0,0,.812-1.55" transform="translate(-10.804 -2.342)" fill="#fff"/>
        <path id="Path_127595" data-name="Path 127595" d="M65.842,15.419a.2.2,0,0,1,.325-.082.2.2,0,0,1,.082.327l-1.137,1.305-.162-.082a4.769,4.769,0,0,0,.893-1.468" transform="translate(-10.869 -2.497)" fill="#fff"/>
        <path id="Path_127596" data-name="Path 127596" d="M66.152,16.409a.245.245,0,0,1,.325,0,.2.2,0,0,1,.081.326L65.5,18.041l-.162-.082a3.756,3.756,0,0,0,.812-1.55" transform="translate(-10.934 -2.671)" fill="#fff"/>
        <path id="Path_127597" data-name="Path 127597" d="M66.623,17.76c.082-.163.244-.163.406-.081a.366.366,0,0,1,0,.407L65.892,19.31l-.162-.163a4.2,4.2,0,0,0,.893-1.387" transform="translate(-10.999 -2.88)" fill="#fff"/>
        <path id="Path_127598" data-name="Path 127598" d="M67,18.945a.245.245,0,0,1,.325,0c.081.081.162.245.081.326l-1.217,1.306-.162-.163A4.955,4.955,0,0,0,67,18.945" transform="translate(-11.048 -3.085)" fill="#fff"/>
        <path id="Path_127599" data-name="Path 127599" d="M67.289,20.5a.268.268,0,0,1,.406,0,.25.25,0,0,1,0,.326l-1.218,1.224-.162-.163a2.881,2.881,0,0,0,.974-1.387" transform="translate(-11.097 -3.334)" fill="#fff"/>
        <path id="Path_127600" data-name="Path 127600" d="M67.484,22.158a.268.268,0,0,1,.406,0,.25.25,0,0,1,0,.326l-1.218,1.224-.162-.163a4.2,4.2,0,0,0,.974-1.387" transform="translate(-11.13 -3.605)" fill="#fff"/>
        <path id="Path_127601" data-name="Path 127601" d="M67.777,24.017a.362.362,0,0,1,.406,0,.248.248,0,0,1,0,.326l-1.217,1.225-.162-.082a3.212,3.212,0,0,0,.974-1.469" transform="translate(-11.179 -3.914)" fill="#fff"/>
        <path id="Path_127602" data-name="Path 127602" d="M67.956,25.864c.081-.082.243-.163.325,0,.081.081.162.244,0,.326l-1.218,1.142-.162-.081a4.228,4.228,0,0,0,1.056-1.387" transform="translate(-11.195 -4.21)" fill="#fff"/>
        <path id="Path_127603" data-name="Path 127603" d="M67.956,27.71c.162-.163.325-.163.406-.082a.365.365,0,0,1,0,.408l-1.3,1.061-.162-.082a3.8,3.8,0,0,0,1.056-1.305" transform="translate(-11.195 -4.505)" fill="#fff"/>
        <path id="Path_127604" data-name="Path 127604" d="M68,29.382a.266.266,0,1,1,.325.408l-1.461.9-.162-.163A4.645,4.645,0,0,0,68,29.382" transform="translate(-11.163 -4.79)" fill="#fff"/>
        <path id="Path_127605" data-name="Path 127605" d="M67.907,31.143a.355.355,0,0,1,.406.082.359.359,0,0,1-.081.407l-1.544.735-.08-.163a2.6,2.6,0,0,0,1.3-1.061" transform="translate(-11.146 -5.083)" fill="#fff"/>
        <path id="Path_127606" data-name="Path 127606" d="M67.7,32.9a.354.354,0,0,1,.406.082.614.614,0,0,1-.081.407l-1.543.735-.162-.163A2.715,2.715,0,0,0,67.7,32.9" transform="translate(-11.097 -5.369)" fill="#fff"/>
        <path id="Path_127607" data-name="Path 127607" d="M67.484,34.654a.357.357,0,0,1,.406.082c0,.163,0,.326-.162.326l-1.625.571-.081-.162a3.936,3.936,0,0,0,1.461-.817" transform="translate(-11.048 -5.656)" fill="#fff"/>
        <path id="Path_127608" data-name="Path 127608" d="M67.288,36.021c.162-.082.325,0,.325.163.082.082,0,.245-.081.326l-1.625.571-.081-.163a4.345,4.345,0,0,0,1.461-.9" transform="translate(-11.016 -5.88)" fill="#fff"/>
        <path id="Path_127609" data-name="Path 127609" d="M67,37.289c.081-.082.243,0,.325.163.081.082,0,.245-.082.326l-1.624.571-.081-.163a4.35,4.35,0,0,0,1.461-.9" transform="translate(-10.967 -6.087)" fill="#fff"/>
        <path id="Path_127610" data-name="Path 127610" d="M66.655,38.361c.162-.082.325,0,.325.082a.363.363,0,0,1,0,.407l-1.868.979-.162-.163a5.96,5.96,0,0,0,1.705-1.305" transform="translate(-10.869 -6.262)" fill="#fff"/>
        <path id="Path_127611" data-name="Path 127611" d="M64.429,21.879c-.162-.082-.162-.245-.162-.408a.355.355,0,0,1,.406-.081l1.462.9-.081.163a3.893,3.893,0,0,0-1.625-.571" transform="translate(-10.755 -3.489)" fill="#fff"/>
        <path id="Path_127612" data-name="Path 127612" d="M64.732,23.354c-.081-.081-.162-.244-.081-.326a.2.2,0,0,1,.324-.082l1.38,1.061-.081.163a3.753,3.753,0,0,0-1.542-.816" transform="translate(-10.813 -3.74)" fill="#fff"/>
        <path id="Path_127613" data-name="Path 127613" d="M64.825,25.012a.238.238,0,0,1,.243-.408l1.381,1.061-.082.163a5.533,5.533,0,0,0-1.542-.816" transform="translate(-10.825 -4.011)" fill="#fff"/>
        <path id="Path_127614" data-name="Path 127614" d="M65.02,26.668c-.162-.081-.162-.245-.082-.408a.363.363,0,0,1,.406,0,.3.3,0,0,1,.082.245l1.137.9-.082.163-1.217-.9a.152.152,0,0,1-.244,0" transform="translate(-10.858 -4.28)" fill="#fff"/>
        <path id="Path_127615" data-name="Path 127615" d="M65.035,28.328a.248.248,0,0,1,0-.326.2.2,0,0,1,.325-.082l1.3,1.224-.162.163a4.908,4.908,0,0,0-1.461-.979" transform="translate(-10.873 -4.553)" fill="#fff"/>
        <path id="Path_127616" data-name="Path 127616" d="M65.023,29.79c-.162-.082-.162-.245,0-.408a.247.247,0,0,1,.325,0l1.137,1.306-.162.163a3.761,3.761,0,0,0-1.3-1.061" transform="translate(-10.861 -4.79)" fill="#fff"/>
        <path id="Path_127617" data-name="Path 127617" d="M64.937,31.155a.368.368,0,0,1,0-.408.247.247,0,0,1,.325,0L66.4,32.053l-.081.163a2.884,2.884,0,0,0-1.381-1.061" transform="translate(-10.857 -5.013)" fill="#fff"/>
        <path id="Path_127618" data-name="Path 127618" d="M64.84,32.726a.248.248,0,0,1,0-.326c.081-.163.243-.082.325,0l1.056,1.387-.162.082a5.2,5.2,0,0,0-1.218-1.143" transform="translate(-10.84 -5.278)" fill="#fff"/>
        <path id="Path_127619" data-name="Path 127619" d="M64.548,34.084a.365.365,0,0,1,0-.408c.162-.082.325-.082.406.082l.893,1.468-.162.082a4.594,4.594,0,0,0-1.137-1.224" transform="translate(-10.791 -5.493)" fill="#fff"/>
        <path id="Path_127620" data-name="Path 127620" d="M63.769,37.2c-.082-.163-.082-.326.081-.408a.2.2,0,0,1,.325.082l.893,1.469-.162.081A4.555,4.555,0,0,0,63.769,37.2" transform="translate(-10.662 -6.003)" fill="#fff"/>
        <path id="Path_127621" data-name="Path 127621" d="M63.09,38.672a.361.361,0,0,1,.081-.408.356.356,0,0,1,.406.082l.812,1.713-.162.082a3.1,3.1,0,0,0-1.137-1.469" transform="translate(-10.552 -6.246)" fill="#fff"/>
        <path id="Path_127622" data-name="Path 127622" d="M64.158,35.453c-.082-.163-.082-.326.082-.408.081-.081.243,0,.325.082l.893,1.713-.162.082a4.984,4.984,0,0,0-1.137-1.469" transform="translate(-10.727 -5.72)" fill="#fff"/>
        <path id="Path_127623" data-name="Path 127623" d="M56.278,3.923a29.6,29.6,0,0,1,8.851,16.893A28.2,28.2,0,0,1,61.15,39.422a.282.282,0,0,1-.405.082.2.2,0,0,1-.082-.326,27.711,27.711,0,0,0,3.9-18.28A28.848,28.848,0,0,0,55.954,4.331c-.162-.082-.162-.245,0-.408a.245.245,0,0,1,.325,0" transform="translate(-9.343 -0.631)" fill="#fff"/>
        <path id="Path_127624" data-name="Path 127624" d="M60.469,42.026l-1.1-3.352A24.013,24.013,0,0,1,48.478,51.283v5.578h-.6v1A29.728,29.728,0,0,0,65.666,37.783Z" transform="translate(-8.013 -6.173)" fill="#fff"/>
        <path id="Path_127625" data-name="Path 127625" d="M17.188,56.861V51.266h.062a23.342,23.342,0,0,1-11-12.373L5.2,42.026,0,37.782A29.732,29.732,0,0,0,17.783,57.858v-1Z" transform="translate(0 -6.173)" fill="#fff"/>
        <path id="Path_127626" data-name="Path 127626" d="M44,59.576H20.519v-5.8H44Zm-23.279-.2H43.8v-5.39H20.723Z" transform="translate(-3.434 -8.786)" fill="#fff"/>
        <path id="Path_127627" data-name="Path 127627" d="M34.212,58.884a2.04,2.04,0,1,1,2.03-2.04,2.037,2.037,0,0,1-2.03,2.04m0-3.793a1.754,1.754,0,1,0,1.745,1.754,1.752,1.752,0,0,0-1.745-1.754" transform="translate(-5.385 -8.954)" fill="#fff"/>
        <path id="Path_127628" data-name="Path 127628" d="M41.314,58.884a2.04,2.04,0,1,1,2.031-2.04,2.036,2.036,0,0,1-2.031,2.04m0-3.793a1.754,1.754,0,1,0,1.745,1.754,1.752,1.752,0,0,0-1.745-1.754" transform="translate(-6.574 -8.954)" fill="#fff"/>
        <path id="Path_127629" data-name="Path 127629" d="M37.763,58.884a2.04,2.04,0,1,1,2.031-2.04,2.036,2.036,0,0,1-2.031,2.04m0-3.793a1.754,1.754,0,1,0,1.745,1.754,1.752,1.752,0,0,0-1.745-1.754" transform="translate(-5.98 -8.954)" fill="#fff"/>
        <path id="Path_127630" data-name="Path 127630" d="M30.661,58.884a2.04,2.04,0,1,1,2.031-2.04,2.037,2.037,0,0,1-2.031,2.04m0-3.793a1.754,1.754,0,1,0,1.745,1.754,1.751,1.751,0,0,0-1.745-1.754" transform="translate(-4.791 -8.954)" fill="#fff"/>
        <path id="Path_127631" data-name="Path 127631" d="M27.11,58.884a2.04,2.04,0,1,1,2.031-2.04,2.037,2.037,0,0,1-2.031,2.04m0-3.793a1.754,1.754,0,1,0,1.744,1.754,1.752,1.752,0,0,0-1.744-1.754" transform="translate(-4.197 -8.954)" fill="#fff"/>
        <path id="Path_127632" data-name="Path 127632" d="M23.559,58.884a2.04,2.04,0,1,1,2.031-2.04,2.037,2.037,0,0,1-2.031,2.04m0-3.793A1.754,1.754,0,1,0,25.3,56.845a1.752,1.752,0,0,0-1.744-1.754" transform="translate(-3.603 -8.954)" fill="#fff"/>
        <path id="Path_127633" data-name="Path 127633" d="M44.865,58.884a2.04,2.04,0,1,1,2.031-2.04,2.037,2.037,0,0,1-2.031,2.04m0-3.793a1.754,1.754,0,1,0,1.745,1.754,1.751,1.751,0,0,0-1.745-1.754" transform="translate(-7.168 -8.954)" fill="#fff"/>
        <path id="Path_127634" data-name="Path 127634" d="M53.351,22.439l-.014-.27-.219-.159c-.185-.134-.381-.259-.587-.391A3.714,3.714,0,0,1,50.547,19.3a3.726,3.726,0,0,1,.873-2.926c.131-.2.266-.4.381-.6l.135-.234-.1-.252c-.261-.684-.559-1.366-.883-2.026l-.122-.247-.27-.056c-.222-.047-.454-.079-.7-.115a3.423,3.423,0,0,1-2.651-1.261,3.4,3.4,0,0,1-.243-2.938c.051-.228.1-.442.134-.654l.046-.278-.193-.2c-.477-.507-.987-1-1.515-1.47l-.211-.187-.276.058c-.214.044-.437.1-.654.163a5.924,5.924,0,0,1-1.535.273A2.436,2.436,0,0,1,41.4,5.938a3.338,3.338,0,0,1-1.3-2.61c-.035-.224-.071-.456-.118-.673l-.06-.276-.256-.118c-.63-.289-1.286-.554-1.948-.788l-.264-.094-.234.155c-.182.12-.361.254-.551.4a3.861,3.861,0,0,1-2.273,1.017,2.543,2.543,0,0,1-.5-.049A3.426,3.426,0,0,1,31.667.979c-.13-.207-.253-.4-.384-.588L31.122.166,30.846.155C30.5.141,30.186.134,29.9.134c-.411,0-.837.012-1.263.034l-.269.014L28.21.4c-.132.183-.257.38-.391.589a3.7,3.7,0,0,1-2.307,1.991,2.815,2.815,0,0,1-.585.064A4.281,4.281,0,0,1,22.594,2.1c-.206-.138-.4-.267-.6-.381l-.233-.136-.251.1c-.683.263-1.362.561-2.018.887l-.246.123-.056.269c-.046.223-.078.453-.114.7A3.442,3.442,0,0,1,17.82,6.327a2.512,2.512,0,0,1-1.487.461A6.541,6.541,0,0,1,14.9,6.573c-.228-.052-.444-.1-.657-.136l-.276-.046-.2.193c-.5.479-1,.991-1.464,1.521l-.187.213.057.278c.044.213.1.427.162.657a3.339,3.339,0,0,1-.132,2.916,3.311,3.311,0,0,1-2.6,1.308c-.235.037-.457.072-.671.12l-.275.06-.117.257c-.288.632-.552,1.29-.785,1.955l-.093.264.154.235c.119.183.253.363.395.553A3.386,3.386,0,0,1,9.169,19.7a3.436,3.436,0,0,1-1.91,2.235c-.2.124-.4.252-.586.386l-.225.161-.011.276c-.013.349-.021.658-.021.95,0,.414.012.841.034,1.268l.014.27.219.158c.187.136.391.266.588.392a3.711,3.711,0,0,1,1.983,2.316,3.726,3.726,0,0,1-.873,2.927c-.137.207-.266.4-.382.6l-.135.234.1.252c.261.685.559,1.367.883,2.026l.122.248.27.056c.222.046.452.079.7.115a3.466,3.466,0,0,1,2.651,1.261,3.392,3.392,0,0,1,.244,2.937c-.051.228-.1.443-.134.656l-.046.278.192.2c.478.507.988,1,1.516,1.469l.211.188.276-.058c.212-.044.425-.1.655-.163a5.953,5.953,0,0,1,1.535-.273,2.428,2.428,0,0,1,1.369.406,3.338,3.338,0,0,1,1.3,2.61c.016.1.034.192.05.288h.187c-.017-.1-.034-.208-.051-.317a3.531,3.531,0,0,0-1.386-2.74,2.62,2.62,0,0,0-1.471-.436,6.1,6.1,0,0,0-1.585.279c-.225.06-.436.118-.643.161l-.185.038-.141-.125c-.525-.465-1.03-.955-1.5-1.457l-.128-.137.031-.185c.034-.208.082-.422.133-.648a3.588,3.588,0,0,0-.274-3.083,3.619,3.619,0,0,0-2.779-1.34c-.241-.034-.47-.067-.687-.112l-.18-.038-.082-.165c-.322-.655-.617-1.331-.876-2.01l-.064-.168.09-.156c.112-.193.24-.388.376-.593a3.876,3.876,0,0,0,.9-3.07,3.86,3.86,0,0,0-2.067-2.436c-.206-.131-.4-.255-.579-.385l-.146-.106-.009-.18c-.022-.424-.034-.848-.034-1.258,0-.287.007-.595.021-.942l.007-.184.149-.107c.179-.129.371-.251.576-.38a3.633,3.633,0,0,0,2-2.359,3.579,3.579,0,0,0-1-2.928c-.14-.188-.272-.366-.389-.544l-.1-.156.062-.177c.231-.66.494-1.312.779-1.939l.078-.171.182-.041c.209-.046.429-.08.66-.117a3.505,3.505,0,0,0,2.729-1.391A3.534,3.534,0,0,0,12.512,9.2c-.06-.224-.117-.438-.16-.645l-.037-.185.124-.141C12.9,7.7,13.39,7.2,13.891,6.721l.136-.129.184.031c.208.034.421.083.646.134a6.671,6.671,0,0,0,1.476.22,2.7,2.7,0,0,0,1.6-.5,3.637,3.637,0,0,0,1.335-2.79c.035-.242.067-.471.112-.689l.037-.18.164-.082c.651-.323,1.325-.619,2-.879l.167-.064.155.09c.194.112.387.241.591.376a4.411,4.411,0,0,0,2.435.972,3.027,3.027,0,0,0,.624-.068,3.853,3.853,0,0,0,2.427-2.075c.131-.206.254-.4.384-.58l.1-.146.18-.01c.422-.022.844-.033,1.253-.033.285,0,.591.007.938.02l.184.008L31.13.5c.128.18.249.373.377.579a3.628,3.628,0,0,0,2.351,2,2.836,2.836,0,0,0,.532.052,4.008,4.008,0,0,0,2.385-1.054c.187-.141.364-.274.542-.391l.156-.1.176.062c.657.233,1.307.5,1.931.783l.171.078.041.184c.046.209.081.429.117.663A3.526,3.526,0,0,0,41.294,6.1a2.614,2.614,0,0,0,1.471.437,6.1,6.1,0,0,0,1.585-.279c.224-.061.436-.118.643-.161l.184-.038.142.125c.524.465,1.029.955,1.5,1.458l.128.136-.031.185c-.034.208-.082.422-.133.649a3.586,3.586,0,0,0,.274,3.082,3.619,3.619,0,0,0,2.779,1.34c.241.034.47.068.686.112l.181.038.081.165c.323.655.618,1.331.877,2.01l.064.168-.09.156c-.112.193-.24.387-.376.593a3.875,3.875,0,0,0-.9,3.07,3.863,3.863,0,0,0,2.067,2.436c.206.131.4.255.579.385l.146.105.009.181c.022.424.033.848.033,1.258,0,.287-.006.595-.02.942l-.007.184-.149.108c-.179.129-.371.25-.576.379a3.633,3.633,0,0,0-2,2.359,3.584,3.584,0,0,0,1,2.928c.141.188.273.366.39.544l.1.157-.062.177c-.232.661-.495,1.314-.779,1.938l-.078.171-.182.04c-.209.047-.429.081-.66.118a3.507,3.507,0,0,0-2.73,1.391,3.539,3.539,0,0,0-.156,3.069c.06.225.117.438.161.645l.037.185-.124.141c-.463.525-.951,1.033-1.452,1.509l-.136.129-.184-.031c-.208-.034-.421-.083-.646-.134a6.664,6.664,0,0,0-1.477-.22,2.7,2.7,0,0,0-1.595.5,3.641,3.641,0,0,0-1.336,2.79c-.032.228-.064.444-.106.652h.192c.038-.2.068-.4.1-.625a3.488,3.488,0,0,1,1.257-2.662,2.506,2.506,0,0,1,1.486-.461,6.544,6.544,0,0,1,1.439.216c.226.051.441.1.653.136l.276.046.2-.193c.505-.48,1-.992,1.464-1.521l.187-.212-.057-.277c-.044-.214-.1-.429-.163-.658a3.339,3.339,0,0,1,.133-2.916,3.307,3.307,0,0,1,2.6-1.308c.235-.038.456-.073.671-.12l.275-.061.117-.256c.287-.631.551-1.288.785-1.955l.093-.264-.153-.235c-.119-.181-.25-.357-.4-.553a3.389,3.389,0,0,1-.963-2.779,3.438,3.438,0,0,1,1.916-2.238c.2-.13.4-.252.58-.383l.225-.161.011-.276c.013-.348.021-.658.021-.95,0-.413-.012-.841-.034-1.268" transform="translate(-1.074 -0.022)" fill="#fff"/>
        <path id="Path_127635" data-name="Path 127635" d="M30.65,4.61A19.828,19.828,0,1,0,50.4,24.438,19.812,19.812,0,0,0,30.65,4.61M49.98,23.948l-.746.026-.012-.374.746-.027ZM49.9,22.6l-.743.079-.039-.372.743-.079Zm-.174-1.343-.736.131-.066-.369.736-.131Zm-.269-1.327-.724.182-.091-.364.725-.182ZM49.1,18.62l-.71.232-.115-.356.709-.232Zm-.45-1.277-.693.28-.14-.347L48.507,17ZM48.11,16.1l-.67.329-.165-.336.671-.329Zm-.622-1.2-.647.375-.187-.325.646-.375Zm-.7-1.155-.62.419-.209-.31.619-.42Zm-1.013-1.4.231.3-.59.462-.23-.3Zm-.877-1.029.25.279-.555.5-.25-.279Zm-.948-.965.269.26-.519.539-.269-.26Zm-1.012-.9.286.241-.48.575-.286-.242Zm-1.072-.823.3.22-.44.607-.3-.22Zm-1.126-.747.317.2-.4.636-.317-.2Zm-1.176-.665.331.176-.351.662-.33-.176Zm-1.218-.582.341.152-.3.685-.341-.152Zm-1.256-.5.35.128-.255.7-.351-.128ZM35.8,5.735l.359.1-.206.72-.359-.1ZM34.487,5.42l.366.078-.155.734-.365-.078ZM33.156,5.2l.371.052-.1.743-.37-.052Zm-1.343-.129.372.026-.052.748-.373-.026Zm-1.349-.033h.373v.75h-.373Zm-.976.033.052.748-.372.027L29.116,5.1ZM28.145,5.2l.1.743-.369.052-.1-.743Zm-1.331.223.155.733-.366.078L26.448,5.5ZM25.5,5.735l.206.721-.358.1-.207-.72Zm-1.287.406.256.7-.351.129-.255-.7Zm-1.256.5.3.685-.341.152-.3-.684Zm-1.22.582.351.662-.33.177-.351-.663Zm-1.174.666.395.636-.316.2-.4-.636Zm-1.127.746.439.607-.3.22-.439-.607Zm-1.072.823.48.575-.286.241-.48-.575Zm-1.012.9.519.539-.269.261-.519-.54Zm-.947.965.555.5-.25.279-.555-.5Zm-.878,1.029.589.462-.23.3L15.3,12.64Zm-.8,1.088.619.419-.21.31-.619-.419ZM14,14.574l.647.375-.187.325-.647-.375Zm-.645,1.19.671.329-.164.337-.67-.329ZM12.793,17l.693.281-.14.348-.693-.281Zm-.474,1.268.71.232-.115.356L12.2,18.62Zm-.385,1.3.726.182-.092.364-.724-.182Zm-.292,1.322.735.131-.065.369-.736-.131Zm-.2,1.339.744.079-.04.372L11.4,22.6Zm-.107,1.349.748.027-.014.375-.746-.027Zm-.012,1.355.747-.026.013.375-.748.026ZM11.4,26.28l.744-.078.039.372-.744.078Zm.175,1.343.736-.13.065.369-.736.13Zm.268,1.327.724-.182.092.365-.726.182Zm.359,1.306.711-.232.115.357-.71.231Zm.45,1.277.694-.28.139.348-.693.28Zm.537,1.242.672-.329.164.338-.672.328Zm.622,1.2.647-.375.187.325L14,34.3Zm.7,1.155.62-.419.209.311-.619.419Zm1.013,1.4-.23-.294.589-.462.231.3Zm.878,1.03-.25-.279.555-.5.25.279Zm.947.965-.269-.26.52-.54.268.26Zm1.012.9-.286-.241.481-.575.286.242Zm1.071.823-.3-.22.44-.607.3.22Zm1.127.747-.316-.2.4-.636.316.2Zm1.175.665-.33-.176.351-.662.33.176Zm1.219.583-.341-.153.3-.685.341.152Zm1.256.494-.351-.129.256-.7.351.129Zm1.287.406-.359-.1.207-.721.359.1Zm1.312.315-.365-.078.156-.734.365.078Zm1.331.223-.37-.053.1-.742.37.052Zm1.344.128-.372-.027.052-.747.372.026Zm1.349.034h-.373v-.75h.373Zm.976-.034-.052-.748.372-.026.053.748Zm1.344-.128-.1-.743.37-.052.1.742Zm1.331-.223-.155-.734.365-.078.155.734ZM35.8,43.14l-.206-.72.359-.1.206.72Zm1.288-.406-.256-.7.351-.128.256.7Zm1.256-.494-.3-.685.341-.153.3.685Zm1.219-.582L39.213,41l.33-.176.351.662Zm1.175-.666-.4-.636.316-.2.4.637Zm1.127-.747-.44-.607.3-.22.44.607Zm1.072-.823-.48-.574.285-.241.48.574ZM30.65,42.566a18.128,18.128,0,1,1,18.06-18.128A18.094,18.094,0,0,1,30.65,42.566m13.3-4.041-.519-.54.269-.26.519.54Zm.948-.965-.555-.5.25-.279.555.5Zm.877-1.03-.589-.462.23-.3.59.462Zm.8-1.088-.619-.419.209-.311.62.419ZM47.3,34.3l-.646-.375.187-.325.647.375Zm.645-1.191-.671-.329.165-.336.67.329Zm.561-1.232-.693-.28.14-.348.693.281Zm.474-1.268-.709-.231.115-.357.71.232Zm.385-1.3-.725-.182.091-.365.724.182Zm.293-1.323-.736-.13.066-.369.736.13Zm.2-1.339-.743-.079.039-.372.743.078Zm.107-1.35-.746-.026.012-.375.746.027Z" transform="translate(-1.824 -0.753)" fill="#fff"/>
        <path id="Path_127636" data-name="Path 127636" d="M52.914,24.745c.012-.308.019-.617.019-.927q0-.622-.033-1.238c-.917-.665-2.416-1.273-2.793-3.049s.753-2.947,1.319-3.93q-.386-1.013-.862-1.977c-1.092-.228-2.687-.152-3.7-1.606s-.385-2.919-.2-4.01q-.707-.75-1.48-1.434c-1.077.223-2.507.912-3.981-.049s-1.428-2.559-1.665-3.637q-.928-.427-1.9-.771c-.92.608-2,1.784-3.737,1.448S31.587,1.74,30.937.831c-.306-.012-.615-.02-.923-.02-.414,0-.825.013-1.233.033-.664.92-1.268,2.425-3.038,2.8s-2.936-.754-3.915-1.323q-1.008.388-1.97.865c-.226,1.1-.152,2.7-1.6,3.712s-2.908.386-3.994.2q-.747.71-1.429,1.485c.222,1.081.908,2.517-.049,4s-2.55,1.435-3.623,1.672q-.426.932-.768,1.908c.606.924,1.778,2.007,1.442,3.751s-1.817,2.322-2.723,2.973c-.011.308-.019.617-.019.927q0,.622.032,1.238c.918.666,2.417,1.273,2.794,3.05s-.753,2.947-1.32,3.93q.387,1.014.863,1.978c1.092.227,2.687.151,3.7,1.606s.385,2.919.2,4.009q.707.75,1.48,1.434c1.076-.223,2.507-.911,3.981.049,1.361.888,1.427,2.312,1.615,3.373h3.437a3.161,3.161,0,0,1,2.251-.413,3.037,3.037,0,0,1,1.056.413h5.933a3.228,3.228,0,0,1,1.168-.5,3.537,3.537,0,0,1,2.612.5h3.191l.083-.038c.226-1.1.151-2.7,1.6-3.712s2.908-.386,3.994-.2q.747-.71,1.429-1.485c-.222-1.08-.908-2.516.048-4s2.55-1.434,3.624-1.672q.426-.932.768-1.908c-.605-.923-1.778-2.007-1.442-3.751s1.817-2.322,2.723-2.974m-22.9,19.279A20.205,20.205,0,1,1,50.142,23.818,20.19,20.19,0,0,1,30.014,44.023" transform="translate(-1.187 -0.133)" fill="#fff"/>
        <path id="Path_127637" data-name="Path 127637" d="M32.767,12.067,19.213,31.807l14.666-4.115Z" transform="translate(-3.215 -1.972)" fill="#fff"/>
        <path id="Path_127638" data-name="Path 127638" d="M31.8,13.023,21.3,23.168l-2.1,8.2Z" transform="translate(-3.214 -2.128)" fill="#fff"/>
        <path id="Path_127639" data-name="Path 127639" d="M44.834,37.54,32.486,41.583l5.806,1.329Z" transform="translate(-5.436 -6.133)" fill="#fff"/>
        <path id="Path_127640" data-name="Path 127640" d="M22.652,21.885l9.578-9.254-6.048,3.726Z" transform="translate(-3.791 -2.064)" fill="#fff"/>
        <path id="Path_127641" data-name="Path 127641" d="M32.111,40.286l13.044-4.271-8.86-4.837Z" transform="translate(-5.374 -5.094)" fill="#fff"/>
        <path id="Path_127642" data-name="Path 127642" d="M42.156,25.67l3.458-3.158L36.335,12.5Z" transform="translate(-6.08 -2.043)" fill="#fff"/>
        <path id="Path_127643" data-name="Path 127643" d="M41.8,25.878,35.94,12.621l1.07,15.048Z" transform="translate(-6.014 -2.062)" fill="#fff"/>
        <path id="Path_127644" data-name="Path 127644" d="M37.532,30.587l8.493,4.637-3.8-6.39Z" transform="translate(-6.281 -4.711)" fill="#fff"/>
        <path id="Path_127645" data-name="Path 127645" d="M43.516,28.018l3.778,6.35-.39-9.444Z" transform="translate(-7.282 -4.072)" fill="#fff"/>
        <path id="Path_127646" data-name="Path 127646" d="M33.763,31.209,19.294,35.27l10.274,5.075Z" transform="translate(-3.229 -5.099)" fill="#fff"/>
        <path id="Path_127647" data-name="Path 127647" d="M78.758,36.178l2.679,8.636h-.8l-.69-2.272H76.579L75.9,44.814h-.762l2.714-8.636Zm.988,5.718-1.465-4.88h-.023L76.806,41.9Z" transform="translate(-12.574 -5.911)" fill="#fff"/>
        <path id="Path_127648" data-name="Path 127648" d="M81.528,44.882h-.976l-.69-2.273H76.619l-.679,2.273H75l2.768-8.807H78.8Zm-.85-.172h.62l-2.625-8.464h-.78l-2.66,8.464h.583l.679-2.272h3.495Zm-.841-2.748H76.668l1.5-5.051h.15ZM76.9,41.793h2.712l-1.361-4.537Z" transform="translate(-12.551 -5.894)" fill="#fff"/>
        <path id="Path_127649" data-name="Path 127649" d="M83.994,39.338H83.03v-.574h.964V37.747c0-.574.083-1.627,1.535-1.627a3.473,3.473,0,0,1,.4.049v.6H85.4c-.69,0-.69.622-.69.969v1.029h1.214v.574H84.709V44.8h-.714Z" transform="translate(-13.894 -5.901)" fill="#fff"/>
        <path id="Path_127650" data-name="Path 127650" d="M84.776,44.873h-.884V39.407h-.964v-.745h.964v-.931a1.485,1.485,0,0,1,1.62-1.712,1.967,1.967,0,0,1,.278.028l.212.03v.758h-.62c-.559,0-.605.437-.605.883v.943h1.214v.745H84.776Zm-.714-.171h.544V39.236h1.215v-.4H84.606V37.719c0-.342,0-1.054.776-1.054h.45v-.438l-.067-.01a1.852,1.852,0,0,0-.253-.027c-1.286,0-1.45.823-1.45,1.541v1.1H83.1v.4h.964Z" transform="translate(-13.877 -5.885)" fill="#fff"/>
        <path id="Path_127651" data-name="Path 127651" d="M88.232,40.07h.023a1.826,1.826,0,0,1,1.655-.933v.73a1.439,1.439,0,0,0-1.679,1.543V45.3h-.714v-6.04h.714Z" transform="translate(-14.645 -6.394)" fill="#fff"/>
        <path id="Path_127652" data-name="Path 127652" d="M88.3,45.366h-.884V39.155H88.3v.639a1.955,1.955,0,0,1,1.594-.759h.085v.908l-.092-.008A1.356,1.356,0,0,0,88.3,41.393Zm-.714-.171h.545v-3.8a1.639,1.639,0,0,1,.483-1.244,1.6,1.6,0,0,1,1.2-.39v-.552a1.728,1.728,0,0,0-1.495.886l-.024.046h-.16v-.813h-.545Z" transform="translate(-14.628 -6.377)" fill="#fff"/>
        <path id="Path_127653" data-name="Path 127653" d="M91.478,36.178h.881v.909h-.881Zm.083,2.6h.714v6.04h-.714Z" transform="translate(-15.308 -5.911)" fill="#fff"/>
        <path id="Path_127654" data-name="Path 127654" d="M92.344,44.882h-.884V38.671h.884Zm-.714-.172h.545V38.842h-.545Zm.8-7.556H91.376v-1.08h1.051Zm-.881-.171h.711v-.738h-.711Z" transform="translate(-15.291 -5.894)" fill="#fff"/>
        <path id="Path_127655" data-name="Path 127655" d="M96.946,40.991c.036-.754-.238-1.28-1.06-1.28a.992.992,0,0,0-.963.694,8.28,8.28,0,0,0-.166,1.9c0,1.088,0,2.536,1.106,2.536.941,0,1.059-.6,1.095-1.328h.714a1.608,1.608,0,0,1-1.643,1.9c-2.035,0-2.035-1.615-2.035-3.11a8.041,8.041,0,0,1,.178-2,1.736,1.736,0,0,1,1.81-1.172,1.563,1.563,0,0,1,1.678,1.854Z" transform="translate(-15.729 -6.394)" fill="#fff"/>
        <path id="Path_127656" data-name="Path 127656" d="M96.013,45.485c-2.121,0-2.121-1.7-2.121-3.2a8.037,8.037,0,0,1,.183-2.025,1.811,1.811,0,0,1,1.89-1.23,1.766,1.766,0,0,1,1.323.49,1.9,1.9,0,0,1,.44,1.453l0,.081H96.84l0-.09a1.242,1.242,0,0,0-.249-.935.961.961,0,0,0-.726-.255.908.908,0,0,0-.883.637,8.339,8.339,0,0,0-.162,1.874c0,1.092,0,2.45,1.022,2.45.879,0,.976-.54,1.01-1.247l0-.081h.878l0,.083a1.967,1.967,0,0,1-.466,1.491,1.778,1.778,0,0,1-1.261.5m-.047-6.28a1.654,1.654,0,0,0-1.729,1.116,7.4,7.4,0,0,0-.173,1.969c0,1.487,0,3.024,1.95,3.024a1.6,1.6,0,0,0,1.139-.447,1.757,1.757,0,0,0,.42-1.283h-.55c-.041.684-.19,1.328-1.176,1.328-1.192,0-1.192-1.515-1.192-2.621a8.316,8.316,0,0,1,.172-1.93,1.073,1.073,0,0,1,1.044-.751,1.121,1.121,0,0,1,.849.308,1.339,1.339,0,0,1,.3.972h.545a1.692,1.692,0,0,0-.4-1.246,1.6,1.6,0,0,0-1.2-.438" transform="translate(-15.712 -6.377)" fill="#fff"/>
        <path id="Path_127657" data-name="Path 127657" d="M102.793,44.555h-.024a1.926,1.926,0,0,1-1.7.861,1.594,1.594,0,0,1-1.654-1.781c0-2.118,2.119-1.9,3.333-2v-.5c0-.884-.262-1.423-1.214-1.423-.655,0-1.179.323-1.179,1.041H99.59c.06-1.16.953-1.615,2-1.615.607,0,1.869.06,1.869,1.6v3.038a13.08,13.08,0,0,0,.071,1.519h-.738Zm-.047-2.344c-1.024.036-2.571-.084-2.571,1.387,0,.682.345,1.244,1.083,1.244a1.547,1.547,0,0,0,1.488-1.531Z" transform="translate(-16.636 -6.394)" fill="#fff"/>
        <path id="Path_127658" data-name="Path 127658" d="M101.049,45.485a1.676,1.676,0,0,1-1.739-1.867c0-1.932,1.686-2,2.918-2.056.146-.006.285-.012.415-.02v-.423c0-.963-.316-1.338-1.129-1.338-.685,0-1.094.357-1.094.955v.085h-.937l.005-.09c.056-1.078.815-1.7,2.085-1.7a1.653,1.653,0,0,1,1.954,1.689v3.038a12.864,12.864,0,0,0,.071,1.51l.009.094h-.917v-.6a2.043,2.043,0,0,1-1.641.72m.465-5.876c1.152,0,1.3.806,1.3,1.508V41.7l-.078.006c-.154.013-.323.02-.5.028-1.227.052-2.755.117-2.755,1.885a1.5,1.5,0,0,0,1.57,1.7,1.835,1.835,0,0,0,1.631-.823l.026-.038h.154V45.2h.56a12.927,12.927,0,0,1-.062-1.433V40.724c0-1.361-1.018-1.518-1.784-1.518a1.7,1.7,0,0,0-1.908,1.443h.588a1.115,1.115,0,0,1,1.261-1.04m-.274,5.3c-.721,0-1.168-.51-1.168-1.329,0-1.418,1.362-1.446,2.357-1.466.1,0,.2,0,.3-.007l.087,0V43.3a1.637,1.637,0,0,1-1.573,1.616m1.4-2.629-.211.005c-1.027.02-2.191.044-2.191,1.294,0,.56.262,1.159,1,1.159a1.462,1.462,0,0,0,1.4-1.446Z" transform="translate(-16.619 -6.377)" fill="#fff"/>
        <path id="Path_127659" data-name="Path 127659" d="M106.658,45.3h-.714v-6.04h.714V40h.024a1.737,1.737,0,0,1,1.452-.862c1.488,0,1.643,1.113,1.643,1.9V45.3h-.714V41.075c0-.705-.274-1.363-1.107-1.363-.643,0-1.3.442-1.3,1.794Z" transform="translate(-17.729 -6.394)" fill="#fff"/>
        <path id="Path_127660" data-name="Path 127660" d="M109.845,45.366h-.884V41.058c0-.477-.133-1.278-1.022-1.278-.365,0-1.213.166-1.213,1.708v3.877h-.884V39.155h.884v.6a1.744,1.744,0,0,1,1.391-.722,1.684,1.684,0,0,1,1.728,1.988Zm-.714-.171h.545V41.023c0-.846-.177-1.817-1.558-1.817a1.636,1.636,0,0,0-1.382.825l-.026.037h-.153v-.741h-.545V45.2h.545V41.489c0-1.744,1.058-1.879,1.383-1.879.757,0,1.192.528,1.192,1.448Z" transform="translate(-17.712 -6.377)" fill="#fff"/>
        <path id="Path_127661" data-name="Path 127661" d="M115.322,44.814V36.178h1.3l2.535,7.8h.024l2.5-7.8h1.215v8.636h-.762V36.919h-.024l-2.524,7.894H118.7l-2.6-7.894h-.023v7.894Z" transform="translate(-19.298 -5.911)" fill="#fff"/>
        <path id="Path_127662" data-name="Path 127662" d="M122.961,44.882h-.932V37.374l-2.4,7.509h-1.005l-2.472-7.52v7.52h-.932V36.076h1.445l.018.059,2.466,7.585,2.451-7.644h1.361Zm-.762-.171h.592V36.247h-1.067l-2.5,7.8h-.147l-.019-.059-2.516-7.74H115.39v8.465h.592V36.817h.17l2.6,7.894h.758l2.524-7.894h.171Z" transform="translate(-19.281 -5.894)" fill="#fff"/>
        <path id="Path_127663" data-name="Path 127663" d="M126.343,36.178h.881v.909h-.881Zm.083,2.6h.714v6.04h-.714Z" transform="translate(-21.143 -5.911)" fill="#fff"/>
        <path id="Path_127664" data-name="Path 127664" d="M127.209,44.882h-.884V38.671h.884Zm-.714-.172h.545V38.842h-.545Zm.8-7.556h-1.051v-1.08h1.051Zm-.88-.171h.711v-.738h-.711Z" transform="translate(-21.125 -5.894)" fill="#fff"/>
        <path id="Path_127665" data-name="Path 127665" d="M129.9,45.3h-.714v-6.04h.714V40h.024a1.737,1.737,0,0,1,1.452-.862c1.488,0,1.643,1.113,1.643,1.9V45.3h-.714V41.075c0-.705-.274-1.363-1.107-1.363-.642,0-1.3.442-1.3,1.794Z" transform="translate(-21.619 -6.394)" fill="#fff"/>
        <path id="Path_127666" data-name="Path 127666" d="M133.089,45.366H132.2V41.058c0-.477-.133-1.278-1.022-1.278-.365,0-1.213.166-1.213,1.708v3.877h-.883V39.155h.883v.6a1.744,1.744,0,0,1,1.391-.722,1.684,1.684,0,0,1,1.728,1.988Zm-.714-.171h.545V41.023c0-.846-.177-1.817-1.558-1.817a1.636,1.636,0,0,0-1.382.825l-.026.037H129.8v-.741h-.544V45.2h.544V41.489c0-1.744,1.058-1.879,1.383-1.879.757,0,1.192.528,1.192,1.448Z" transform="translate(-21.602 -6.377)" fill="#fff"/>
        <path id="Path_127667" data-name="Path 127667" d="M135.92,42.427v.467c0,.837.227,1.949,1.357,1.949a1.234,1.234,0,0,0,1.321-1.387h.75a1.824,1.824,0,0,1-2.072,1.961c-1.036,0-2.072-.418-2.072-2.248V41.686c0-1.746.727-2.548,2.072-2.548,2.072,0,2.072,1.5,2.072,3.289Zm2.714-.574c0-1.339-.215-2.141-1.357-2.141s-1.357.8-1.357,2.141Z" transform="translate(-22.626 -6.394)" fill="#fff"/>
        <path id="Path_127668" data-name="Path 127668" d="M137.26,45.485c-1.431,0-2.157-.785-2.157-2.333V41.668c0-1.748.726-2.633,2.157-2.633,2.156,0,2.156,1.564,2.156,3.374v.085h-3.428v.382c0,.85.221,1.864,1.272,1.864a1.218,1.218,0,0,0,.907-.329,1.323,1.323,0,0,0,.329-.972v-.086h.926l-.005.09a1.911,1.911,0,0,1-2.156,2.041m0-6.279c-1.337,0-1.987.806-1.987,2.462v1.483c0,1.456.649,2.163,1.987,2.163a1.73,1.73,0,0,0,1.98-1.79h-.575a1.448,1.448,0,0,1-.378,1.007,1.4,1.4,0,0,1-1.027.38c-.931,0-1.443-.723-1.443-2.035v-.552h3.429c0-1.749-.032-3.118-1.986-3.118m1.441,2.715h-2.884v-.085c0-1.375.242-2.226,1.443-2.226s1.441.852,1.441,2.226Zm-2.714-.171h2.544c-.009-1.278-.226-1.97-1.271-1.97s-1.263.692-1.272,1.97" transform="translate(-22.608 -6.377)" fill="#fff"/>
        <path id="Path_127669" data-name="Path 127669" d="M142.367,40.07h.023a1.826,1.826,0,0,1,1.654-.933v.73a1.439,1.439,0,0,0-1.678,1.543V45.3h-.714v-6.04h.714Z" transform="translate(-23.705 -6.394)" fill="#fff"/>
        <path id="Path_127670" data-name="Path 127670" d="M142.435,45.366h-.884V39.155h.884v.639a1.954,1.954,0,0,1,1.593-.759h.085v.908l-.092-.008a1.356,1.356,0,0,0-1.586,1.458Zm-.714-.171h.545v-3.8a1.639,1.639,0,0,1,.483-1.244,1.608,1.608,0,0,1,1.195-.39v-.552a1.728,1.728,0,0,0-1.494.886l-.024.046h-.16v-.813h-.545Z" transform="translate(-23.687 -6.377)" fill="#fff"/>
        <path id="Path_127671" data-name="Path 127671" d="M148.479,44.555h-.023a1.929,1.929,0,0,1-1.7.861,1.594,1.594,0,0,1-1.655-1.781c0-2.118,2.119-1.9,3.333-2v-.5c0-.884-.261-1.423-1.214-1.423-.655,0-1.178.323-1.178,1.041h-.762c.059-1.16.952-1.615,2-1.615.607,0,1.869.06,1.869,1.6v3.038a12.93,12.93,0,0,0,.072,1.519h-.739Zm-.047-2.344c-1.023.036-2.571-.084-2.571,1.387,0,.682.346,1.244,1.083,1.244a1.547,1.547,0,0,0,1.488-1.531Z" transform="translate(-24.281 -6.394)" fill="#fff"/>
        <path id="Path_127672" data-name="Path 127672" d="M146.735,45.485A1.676,1.676,0,0,1,145,43.618c0-1.932,1.686-2,2.918-2.056.146-.006.285-.012.415-.02v-.423c0-.963-.316-1.338-1.129-1.338-.684,0-1.093.357-1.093.955v.085h-.936l0-.09c.055-1.078.814-1.7,2.084-1.7a1.653,1.653,0,0,1,1.954,1.689v3.038a12.869,12.869,0,0,0,.071,1.51l.01.094h-.918v-.6a2.041,2.041,0,0,1-1.641.721m.465-5.876c1.145,0,1.3.762,1.3,1.508V41.7l-.078.006c-.154.013-.323.02-.5.028-1.227.052-2.755.117-2.755,1.885a1.5,1.5,0,0,0,1.57,1.7,1.837,1.837,0,0,0,1.632-.823l.025-.038h.155V45.2h.559a12.927,12.927,0,0,1-.062-1.433V40.724c0-1.361-1.018-1.518-1.784-1.518a1.7,1.7,0,0,0-1.908,1.443h.589a1.114,1.114,0,0,1,1.261-1.04m-.274,5.3c-.72,0-1.168-.51-1.168-1.329,0-1.418,1.362-1.446,2.357-1.466.1,0,.2,0,.3-.007l.087,0V43.3a1.637,1.637,0,0,1-1.573,1.616m1.4-2.629-.211.005c-1.027.02-2.191.044-2.191,1.294,0,.56.262,1.159,1,1.159a1.462,1.462,0,0,0,1.4-1.446Z" transform="translate(-24.264 -6.377)" fill="#fff"/>
        <rect id="Rectangle_52686" data-name="Rectangle 52686" width="0.714" height="8.636" transform="translate(126.495 30.268)" fill="#fff"/>
        <path id="Path_127673" data-name="Path 127673" d="M152.7,44.882h-.884V36.076h.884Zm-.714-.172h.544V36.246h-.544Z" transform="translate(-25.405 -5.894)" fill="#fff"/>
        <path id="Path_127674" data-name="Path 127674" d="M156.216,45.417c-1.3,0-1.809-.633-1.8-1.913h.726c0,.825.191,1.375,1.107,1.375a.936.936,0,0,0,1.023-1.065c0-1.579-2.7-1.171-2.7-3.169,0-1.113.762-1.508,1.809-1.508,1.191,0,1.572.826,1.572,1.747h-.7c-.036-.766-.238-1.172-1.047-1.172a.858.858,0,0,0-.917.873c0,1.507,2.7,1.1,2.7,3.121a1.568,1.568,0,0,1-1.774,1.71" transform="translate(-25.841 -6.394)" fill="#fff"/>
        <path id="Path_127675" data-name="Path 127675" d="M156.2,45.485a1.892,1.892,0,0,1-1.415-.465,2.068,2.068,0,0,1-.467-1.534V43.4h.9v.085c0,.8.171,1.29,1.023,1.29.622,0,.938-.33.938-.979,0-.691-.55-.969-1.186-1.292-.711-.36-1.516-.768-1.516-1.878,0-1.042.654-1.592,1.894-1.592,1.068,0,1.656.65,1.656,1.831v.085h-.868l0-.081c-.033-.707-.2-1.091-.963-1.091a.776.776,0,0,0-.832.788c0,.645.535.91,1.156,1.217.725.36,1.546.766,1.546,1.9a1.648,1.648,0,0,1-1.858,1.8m-1.712-1.913A1.847,1.847,0,0,0,154.9,44.9a1.736,1.736,0,0,0,1.294.415,1.482,1.482,0,0,0,1.689-1.625c0-1.032-.738-1.4-1.452-1.751-.643-.318-1.25-.619-1.25-1.37a.939.939,0,0,1,1-.959c.863,0,1.081.446,1.128,1.172h.536c-.02-.738-.3-1.575-1.485-1.575-1.144,0-1.724.479-1.724,1.421,0,1,.724,1.372,1.423,1.726.629.319,1.279.648,1.279,1.444a1.019,1.019,0,0,1-1.108,1.15c-1.008,0-1.181-.65-1.192-1.375Z" transform="translate(-25.824 -6.377)" fill="#fff"/>
        <path id="Path_127676" data-name="Path 127676" d="M76.025,51.29H78.3c2.4,0,2.7,1.411,2.7,4.354,0,2.87-.417,4.282-3.012,4.282H76.025Zm.762,7.99h.928c2.3,0,2.524-.622,2.524-4.151,0-2.476-.333-3.193-2.452-3.193h-1Z" transform="translate(-12.722 -8.379)" fill="#fff"/>
        <path id="Path_127677" data-name="Path 127677" d="M77.972,59.993H75.923V51.187h2.358c2.6,0,2.788,1.677,2.788,4.439,0,2.959-.463,4.367-3.1,4.367m-1.879-.171h1.879c2.5,0,2.927-1.294,2.927-4.2s-.258-4.268-2.618-4.268H76.093Zm1.605-.475H76.685V51.833H77.77c2.187,0,2.537.779,2.537,3.28,0,3.87-.461,4.235-2.609,4.235m-.843-.171H77.7c2.165,0,2.439-.456,2.439-4.064,0-2.446-.295-3.109-2.367-3.109h-.915Z" transform="translate(-12.705 -8.363)" fill="#fff"/>
        <path id="Path_127678" data-name="Path 127678" d="M84.158,57.538V58c0,.837.226,1.949,1.356,1.949a1.234,1.234,0,0,0,1.321-1.387h.75a1.824,1.824,0,0,1-2.072,1.961c-1.035,0-2.071-.418-2.071-2.248V56.8c0-1.746.726-2.548,2.071-2.548,2.072,0,2.072,1.5,2.072,3.289Zm2.714-.574c0-1.339-.214-2.141-1.357-2.141s-1.356.8-1.356,2.141Z" transform="translate(-13.964 -8.863)" fill="#fff"/>
        <path id="Path_127679" data-name="Path 127679" d="M85.5,60.6c-1.431,0-2.156-.785-2.156-2.333V56.78c0-1.748.725-2.633,2.156-2.633,2.157,0,2.157,1.564,2.157,3.374v.085H84.226v.382c0,.85.22,1.864,1.271,1.864a1.216,1.216,0,0,0,.908-.33,1.321,1.321,0,0,0,.329-.971v-.086h.926l0,.09A1.912,1.912,0,0,1,85.5,60.6m0-6.279c-1.336,0-1.986.806-1.986,2.462v1.483c0,1.456.649,2.163,1.986,2.163a1.73,1.73,0,0,0,1.981-1.79H86.9a1.449,1.449,0,0,1-.378,1.007,1.4,1.4,0,0,1-1.028.38c-.93,0-1.442-.723-1.442-2.035v-.552h3.429c0-1.749-.032-3.118-1.987-3.118m1.442,2.715H84.056v-.085c0-1.375.241-2.226,1.442-2.226s1.442.852,1.442,2.226Zm-2.714-.171h2.543c-.008-1.278-.225-1.97-1.271-1.97s-1.262.692-1.271,1.97" transform="translate(-13.947 -8.846)" fill="#fff"/>
        <path id="Path_127680" data-name="Path 127680" d="M91.319,59.523h.023l1.465-5.131h.69l-1.785,6.04H90.89l-1.785-6.04h.774Z" transform="translate(-14.911 -8.886)" fill="#fff"/>
        <path id="Path_127681" data-name="Path 127681" d="M91.752,60.5H90.8l-.018-.061-1.818-6.15h.952l.017.063,1.371,4.883L92.72,54.29h.868Zm-.822-.171h.694l1.735-5.869h-.512l-1.465,5.131h-.152l-.017-.063-1.423-5.068h-.6Z" transform="translate(-14.888 -8.87)" fill="#fff"/>
        <path id="Path_127682" data-name="Path 127682" d="M95.78,57.538V58c0,.837.226,1.949,1.356,1.949a1.234,1.234,0,0,0,1.321-1.387h.75a1.824,1.824,0,0,1-2.072,1.961c-1.035,0-2.071-.418-2.071-2.248V56.8c0-1.746.726-2.548,2.071-2.548,2.072,0,2.072,1.5,2.072,3.289Zm2.714-.574c0-1.339-.214-2.141-1.357-2.141s-1.356.8-1.356,2.141Z" transform="translate(-15.909 -8.863)" fill="#fff"/>
        <path id="Path_127683" data-name="Path 127683" d="M97.12,60.6c-1.431,0-2.156-.785-2.156-2.333V56.78c0-1.748.725-2.633,2.156-2.633,2.157,0,2.157,1.564,2.157,3.374v.085H95.848v.382c0,.85.22,1.864,1.271,1.864a1.216,1.216,0,0,0,.908-.33,1.321,1.321,0,0,0,.329-.971v-.086h.926l-.005.09A1.912,1.912,0,0,1,97.12,60.6m0-6.279c-1.336,0-1.986.806-1.986,2.462v1.483c0,1.456.649,2.163,1.986,2.163a1.73,1.73,0,0,0,1.981-1.79h-.575a1.449,1.449,0,0,1-.378,1.007,1.4,1.4,0,0,1-1.028.38c-.93,0-1.442-.723-1.442-2.035v-.552h3.429c0-1.749-.032-3.118-1.987-3.118m1.442,2.715H95.678v-.085c0-1.375.241-2.226,1.442-2.226s1.442.852,1.442,2.226Zm-2.714-.171h2.543c-.008-1.278-.225-1.97-1.271-1.97s-1.262.692-1.271,1.97" transform="translate(-15.891 -8.846)" fill="#fff"/>
        <rect id="Rectangle_52687" data-name="Rectangle 52687" width="0.714" height="8.636" transform="translate(84.716 42.91)" fill="#fff"/>
        <path id="Path_127684" data-name="Path 127684" d="M102.524,59.993h-.884V51.187h.884Zm-.714-.171h.545V51.358h-.545Z" transform="translate(-17.009 -8.363)" fill="#fff"/>
        <path id="Path_127685" data-name="Path 127685" d="M104.3,58.041v-1.3c0-1.567.667-2.488,2.072-2.488s2.072.921,2.072,2.488v1.3c0,1.567-.667,2.488-2.072,2.488s-2.072-.921-2.072-2.488m.714-.658c0,1.579.179,2.572,1.357,2.572s1.357-.993,1.357-2.572-.178-2.56-1.357-2.56-1.357.993-1.357,2.56" transform="translate(-17.454 -8.863)" fill="#fff"/>
        <path id="Path_127686" data-name="Path 127686" d="M106.355,60.6c-1.411,0-2.157-.889-2.157-2.573v-1.3c0-1.683.746-2.573,2.157-2.573s2.157.89,2.157,2.573v1.3c0,1.683-.746,2.573-2.157,2.573m0-6.279c-1.642,0-1.987,1.306-1.987,2.4v1.3c0,1.1.345,2.4,1.987,2.4s1.987-1.307,1.987-2.4v-1.3c0-1.1-.345-2.4-1.987-2.4m0,5.7c-1.332,0-1.442-1.257-1.442-2.657s.11-2.645,1.442-2.645,1.442,1.251,1.442,2.645-.111,2.657-1.442,2.657m0-5.131c-1.069,0-1.272.869-1.272,2.474s.2,2.486,1.272,2.486,1.272-.873,1.272-2.486-.2-2.474-1.272-2.474" transform="translate(-17.437 -8.846)" fill="#fff"/>
        <path id="Path_127687" data-name="Path 127687" d="M111.409,55.1l.024-.012a1.776,1.776,0,0,1,1.452-.837c1.881,0,1.893,1.651,1.893,2.44v1.352c0,1.566-.535,2.487-2.072,2.487a1.47,1.47,0,0,1-1.25-.789l-.023-.012v2.966h-.714V54.369h.69Zm.024,2.823c0,1.375.619,2.033,1.273,2.033,1.179,0,1.357-.992,1.357-2.571s-.178-2.56-1.357-2.56c-.464,0-1.273.526-1.273,2.021Z" transform="translate(-18.528 -8.863)" fill="#fff"/>
        <path id="Path_127688" data-name="Path 127688" d="M111.5,62.762h-.885v-8.5h.861v.574a1.837,1.837,0,0,1,1.391-.694c1.978,0,1.978,1.77,1.978,2.526v1.352c0,1.755-.685,2.573-2.157,2.573a1.472,1.472,0,0,1-1.188-.64Zm-.714-.171h.545v-3.02l.167.085.012.019a1.4,1.4,0,0,0,1.178.75c1.374,0,1.987-.74,1.987-2.4V56.672c0-.764,0-2.354-1.808-2.354a1.686,1.686,0,0,0-1.381.8l-.012.02-.167.082v-.781h-.52Zm1.9-2.568c-.676,0-1.358-.655-1.358-2.118V56.827c0-1.535.833-2.107,1.358-2.107,1.331,0,1.442,1.251,1.442,2.645s-.111,2.657-1.442,2.657m0-5.131c-.46,0-1.188.525-1.188,1.936V57.9c0,1.345.6,1.948,1.188,1.948,1.069,0,1.272-.873,1.272-2.486s-.2-2.474-1.272-2.474" transform="translate(-18.511 -8.846)" fill="#fff"/>
        <path id="Path_127689" data-name="Path 127689" d="M117.594,60.409h-.714V54.357h.643v.754h.024a1.619,1.619,0,0,1,1.428-.862,1.4,1.4,0,0,1,1.37.945,1.588,1.588,0,0,1,1.475-.945,1.524,1.524,0,0,1,1.56,1.663v4.5h-.714V56.091c-.012-.6-.226-1.268-.928-1.268-.9,0-1.25.909-1.25,1.7v3.887h-.714V56.091c-.012-.6-.226-1.268-.928-1.268-.9,0-1.25.909-1.25,1.7Z" transform="translate(-19.559 -8.863)" fill="#fff"/>
        <path id="Path_127690" data-name="Path 127690" d="M123.448,60.478h-.884v-4.4c-.007-.355-.1-1.182-.843-1.182-.805,0-1.165.81-1.165,1.613v3.972h-.884v-4.4c-.007-.355-.1-1.182-.843-1.182-.805,0-1.165.81-1.165,1.613v3.972h-.884V54.255h.813v.592a1.665,1.665,0,0,1,1.367-.7,1.5,1.5,0,0,1,1.38.834,1.655,1.655,0,0,1,1.465-.834,1.6,1.6,0,0,1,1.644,1.745Zm-.714-.171h.544V55.9a1.441,1.441,0,0,0-1.474-1.578,1.5,1.5,0,0,0-1.4.9l-.091.183-.066-.193a1.309,1.309,0,0,0-1.288-.888,1.535,1.535,0,0,0-1.355.819l-.025.043h-.157v-.754h-.473v5.882h.544v-3.8c0-.888.413-1.784,1.336-1.784.618,0,1,.5,1.013,1.351v4.234h.544v-3.8c0-.888.413-1.784,1.336-1.784.618,0,1,.5,1.013,1.351Z" transform="translate(-19.542 -8.846)" fill="#fff"/>
        <path id="Path_127691" data-name="Path 127691" d="M126.814,57.538V58c0,.837.226,1.949,1.357,1.949a1.233,1.233,0,0,0,1.321-1.387h.751a1.825,1.825,0,0,1-2.072,1.961c-1.036,0-2.07-.418-2.07-2.248V56.8c0-1.746.725-2.548,2.07-2.548,2.072,0,2.072,1.5,2.072,3.289Zm2.714-.574c0-1.339-.214-2.141-1.357-2.141s-1.357.8-1.357,2.141Z" transform="translate(-21.102 -8.863)" fill="#fff"/>
        <path id="Path_127692" data-name="Path 127692" d="M128.155,60.6c-1.431,0-2.157-.785-2.157-2.333V56.78c0-1.748.725-2.633,2.157-2.633,2.156,0,2.156,1.564,2.156,3.374v.085h-3.428v.382c0,.85.221,1.864,1.272,1.864a1.215,1.215,0,0,0,.907-.33,1.322,1.322,0,0,0,.33-.971l0-.086h.926l-.005.09a1.911,1.911,0,0,1-2.156,2.041m0-6.279c-1.337,0-1.987.806-1.987,2.462v1.483c0,1.456.649,2.163,1.987,2.163a1.73,1.73,0,0,0,1.98-1.79h-.575a1.452,1.452,0,0,1-.377,1.007,1.4,1.4,0,0,1-1.028.38c-.931,0-1.443-.723-1.443-2.035v-.552h3.429c0-1.749-.032-3.118-1.986-3.118m1.441,2.715h-2.884v-.085c0-1.375.241-2.226,1.443-2.226s1.441.852,1.441,2.226Zm-2.714-.171h2.544c-.009-1.278-.226-1.97-1.271-1.97s-1.263.692-1.272,1.97" transform="translate(-21.085 -8.846)" fill="#fff"/>
        <path id="Path_127693" data-name="Path 127693" d="M133.2,60.409h-.714v-6.04h.714v.742h.024a1.735,1.735,0,0,1,1.452-.862c1.487,0,1.642,1.113,1.642,1.9v4.258h-.714V56.187c0-.705-.274-1.363-1.107-1.363-.643,0-1.3.442-1.3,1.794Z" transform="translate(-22.171 -8.863)" fill="#fff"/>
        <path id="Path_127694" data-name="Path 127694" d="M136.391,60.478h-.884V56.17c0-.477-.133-1.278-1.022-1.278-.364,0-1.212.166-1.212,1.708v3.877h-.884V54.267h.884v.6a1.742,1.742,0,0,1,1.391-.722,1.684,1.684,0,0,1,1.728,1.988Zm-.714-.171h.544V56.135c0-.846-.177-1.817-1.557-1.817a1.634,1.634,0,0,0-1.382.825l-.026.037H133.1v-.741h-.545v5.869h.545V56.6c0-1.744,1.058-1.879,1.382-1.879.758,0,1.192.528,1.192,1.448Z" transform="translate(-22.154 -8.846)" fill="#fff"/>
        <path id="Path_127695" data-name="Path 127695" d="M138.051,54.662v-.574h.964V52.844l.714-.311v1.555h1.214v.574H139.73v3.875c0,.8.083.993.654.993a3.509,3.509,0,0,0,.56-.036v.622a6.184,6.184,0,0,1-.678.036c-.965,0-1.251-.431-1.251-1.172V54.662Z" transform="translate(-23.102 -8.582)" fill="#fff"/>
        <path id="Path_127696" data-name="Path 127696" d="M140.248,60.213c-.923,0-1.335-.388-1.335-1.258V54.722h-.964v-.745h.964V52.763l.884-.385v1.6h1.214v.745H139.8v3.79c0,.789.075.908.57.908a3.377,3.377,0,0,0,.546-.035l.1-.015v.8l-.076.008a6.408,6.408,0,0,1-.688.037m-2.129-5.661h.964v4.4c0,.653.2,1.087,1.165,1.087.2,0,.408-.009.594-.028v-.447a4.074,4.074,0,0,1-.475.023c-.673,0-.739-.312-.739-1.078V54.552h1.214v-.4h-1.214v-1.51l-.545.237v1.273h-.964Z" transform="translate(-23.085 -8.557)" fill="#fff"/>
        <path id="Path_127697" data-name="Path 127697" d="M145.5,55.575c0-2.333.024-4.485,2.6-4.485,2.082,0,2.118,1.723,2.118,2.5h-.762c0-.957-.261-1.854-1.356-1.854-1.809,0-1.833,1.543-1.833,3.839s.024,3.839,1.833,3.839c.988,0,1.356-.885,1.369-2h.809c0,.622-.142,2.643-2.177,2.643-2.571,0-2.6-2.153-2.6-4.485" transform="translate(-24.348 -8.347)" fill="#fff"/>
        <path id="Path_127698" data-name="Path 127698" d="M148.076,60.129c-2.68,0-2.68-2.323-2.68-4.571s0-4.571,2.68-4.571c2.2,0,2.2,1.878,2.2,2.585v.085h-.932v-.085c0-1.191-.416-1.769-1.272-1.769-1.749,0-1.749,1.493-1.749,3.754s0,3.754,1.749,3.754c1.044,0,1.275-1.041,1.284-1.913v-.085h.978V57.4c0,.64-.163,2.728-2.263,2.728m0-8.97c-2.51,0-2.51,2.137-2.51,4.4s0,4.4,2.51,4.4c1.823,0,2.077-1.664,2.092-2.472h-.639c-.035,1.288-.549,2-1.452,2-1.918,0-1.918-1.732-1.918-3.925s0-3.925,1.918-3.925c.936,0,1.42.623,1.441,1.854h.593c0-.762-.077-2.329-2.034-2.329" transform="translate(-24.331 -8.33)" fill="#fff"/>
        <path id="Path_127699" data-name="Path 127699" d="M153.088,57.538V58c0,.837.227,1.949,1.356,1.949a1.234,1.234,0,0,0,1.322-1.387h.749a1.823,1.823,0,0,1-2.072,1.961c-1.035,0-2.071-.418-2.071-2.248V56.8c0-1.746.726-2.548,2.071-2.548,2.072,0,2.072,1.5,2.072,3.289Zm2.714-.574c0-1.339-.214-2.141-1.357-2.141s-1.356.8-1.356,2.141Z" transform="translate(-25.499 -8.863)" fill="#fff"/>
        <path id="Path_127700" data-name="Path 127700" d="M154.428,60.6c-1.431,0-2.156-.785-2.156-2.333V56.78c0-1.748.725-2.633,2.156-2.633,2.157,0,2.157,1.564,2.157,3.374v.085h-3.428v.382c0,.85.22,1.864,1.271,1.864a1.219,1.219,0,0,0,.908-.33,1.324,1.324,0,0,0,.329-.971l0-.086h.926l0,.09a1.912,1.912,0,0,1-2.157,2.041m0-6.279c-1.336,0-1.986.806-1.986,2.462v1.483c0,1.456.649,2.163,1.986,2.163a1.73,1.73,0,0,0,1.981-1.79h-.575a1.452,1.452,0,0,1-.377,1.007,1.4,1.4,0,0,1-1.029.38c-.93,0-1.442-.723-1.442-2.035v-.552h3.429c0-1.749-.032-3.118-1.987-3.118m1.442,2.715h-2.884v-.085c0-1.375.241-2.226,1.442-2.226s1.442.852,1.442,2.226Zm-2.714-.171H155.7c-.008-1.278-.225-1.97-1.271-1.97s-1.262.692-1.271,1.97" transform="translate(-25.482 -8.846)" fill="#fff"/>
        <path id="Path_127701" data-name="Path 127701" d="M159.478,60.409h-.714v-6.04h.714v.742h.024a1.734,1.734,0,0,1,1.452-.862c1.487,0,1.642,1.113,1.642,1.9v4.258h-.714V56.187c0-.705-.274-1.363-1.107-1.363-.643,0-1.3.442-1.3,1.794Z" transform="translate(-26.568 -8.863)" fill="#fff"/>
        <path id="Path_127702" data-name="Path 127702" d="M162.665,60.478h-.884V56.17c0-.477-.133-1.278-1.023-1.278-.364,0-1.212.166-1.212,1.708v3.877h-.884V54.267h.884v.6a1.742,1.742,0,0,1,1.391-.722,1.684,1.684,0,0,1,1.728,1.988Zm-.714-.171h.544V56.135c0-.846-.177-1.817-1.557-1.817a1.634,1.634,0,0,0-1.382.825l-.026.037h-.153v-.741h-.545v5.869h.545V56.6c0-1.744,1.058-1.879,1.382-1.879.758,0,1.192.528,1.192,1.448Z" transform="translate(-26.551 -8.846)" fill="#fff"/>
        <path id="Path_127703" data-name="Path 127703" d="M164.325,54.662v-.574h.964V52.844l.714-.311v1.555h1.214v.574H166v3.875c0,.8.083.993.654.993a3.51,3.51,0,0,0,.56-.036v.622a6.2,6.2,0,0,1-.679.036c-.964,0-1.25-.431-1.25-1.172V54.662Z" transform="translate(-27.499 -8.582)" fill="#fff"/>
        <path id="Path_127704" data-name="Path 127704" d="M166.522,60.213c-.923,0-1.335-.388-1.335-1.258V54.722h-.964v-.745h.964V52.763l.884-.385v1.6h1.214v.745h-1.214v3.79c0,.789.075.908.57.908a3.384,3.384,0,0,0,.546-.035l.1-.015v.8l-.076.008a6.42,6.42,0,0,1-.688.037m-2.129-5.661h.964v4.4c0,.653.2,1.087,1.165,1.087.2,0,.406-.009.594-.028v-.447a4.075,4.075,0,0,1-.475.023c-.673,0-.739-.312-.739-1.078V54.552h1.214v-.4H165.9v-1.51l-.545.237v1.273h-.964Z" transform="translate(-27.481 -8.557)" fill="#fff"/>
        <path id="Path_127705" data-name="Path 127705" d="M169.57,55.182h.024a1.824,1.824,0,0,1,1.654-.933v.73a1.439,1.439,0,0,0-1.679,1.543v3.888h-.714v-6.04h.714Z" transform="translate(-28.257 -8.863)" fill="#fff"/>
        <path id="Path_127706" data-name="Path 127706" d="M169.638,60.478h-.883V54.267h.883v.64a1.952,1.952,0,0,1,1.593-.76h.085v.908l-.092-.008a1.355,1.355,0,0,0-1.586,1.458Zm-.714-.171h.544v-3.8a1.643,1.643,0,0,1,.484-1.244,1.625,1.625,0,0,1,1.2-.39v-.552a1.729,1.729,0,0,0-1.495.886l-.024.046h-.161v-.813h-.544Z" transform="translate(-28.24 -8.846)" fill="#fff"/>
        <path id="Path_127707" data-name="Path 127707" d="M173.158,57.538V58c0,.837.226,1.949,1.356,1.949a1.234,1.234,0,0,0,1.321-1.387h.75a1.824,1.824,0,0,1-2.072,1.961c-1.035,0-2.072-.418-2.072-2.248V56.8c0-1.746.727-2.548,2.072-2.548,2.072,0,2.072,1.5,2.072,3.289Zm2.714-.574c0-1.339-.215-2.141-1.357-2.141s-1.356.8-1.356,2.141Z" transform="translate(-28.857 -8.863)" fill="#fff"/>
        <path id="Path_127708" data-name="Path 127708" d="M174.5,60.6c-1.43,0-2.157-.785-2.157-2.333V56.78c0-1.748.727-2.633,2.157-2.633,2.157,0,2.157,1.564,2.157,3.374v.085h-3.428v.382c0,.85.221,1.864,1.271,1.864a1.215,1.215,0,0,0,.907-.329,1.32,1.32,0,0,0,.33-.972l0-.086h.927l0,.09A1.911,1.911,0,0,1,174.5,60.6m0-6.279c-1.336,0-1.986.806-1.986,2.462v1.483c0,1.456.649,2.163,1.986,2.163a1.729,1.729,0,0,0,1.98-1.79H175.9a1.452,1.452,0,0,1-.378,1.007,1.4,1.4,0,0,1-1.028.38c-.93,0-1.442-.723-1.442-2.035v-.552h3.428c0-1.749-.032-3.118-1.986-3.118m1.442,2.715h-2.884v-.085c0-1.375.242-2.226,1.442-2.226s1.442.852,1.442,2.226Zm-2.714-.171h2.543c-.007-1.278-.225-1.97-1.271-1.97s-1.262.692-1.271,1.97" transform="translate(-28.84 -8.846)" fill="#fff"/>
        <path id="Path_127709" data-name="Path 127709" d="M75.964,23.842,85.136.578h2.437l9.236,23.264H94.532l-2.47-6.283H80.55l-2.438,6.283Zm15.361-8.217-5-13.114-5.1,13.114Z" transform="translate(-12.712 -0.095)" fill="#fff"/>
        <path id="Path_127710" data-name="Path 127710" d="M104.079,23.842V.578h3.335l8.69,20.267L124.988.578h3.175V23.842h-2.085V2.35h-.064l-8.85,21.492h-2.085l-8.851-21.4h-.064v21.4Z" transform="translate(-17.417 -0.095)" fill="#fff"/>
        <path id="Path_127711" data-name="Path 127711" d="M145.5.578c7.6,0,11.929,3.93,11.929,11.632S153.1,23.842,145.5,23.842h-6.254V.578Zm.513,21.331c6.51,0,9.172-3.834,9.172-9.7,0-6.863-4.008-9.892-10.583-9.7h-3.271v19.4Z" transform="translate(-23.301 -0.095)" fill="#fff"/>
        <path id="Path_127712" data-name="Path 127712" d="M180.357,5.929c-.385-2.835-2.822-4-5.452-4-5.933,0-7.728,5.414-7.728,10.183S168.972,22.3,174.9,22.3c2.566,0,5.132-1.288,5.709-4.188h2.245c-.674,3.9-4.233,6.122-7.954,6.122-7.023,0-9.974-5.672-9.974-12.115C164.931,5.736,167.914,0,174.9,0c3.784,0,7.377,1.74,7.7,5.929Z" transform="translate(-27.6 0)" fill="#fff"/>
      </g>
    </g>
  </g>
</svg>
