<svg xmlns="http://www.w3.org/2000/svg" xmlns:xlink="http://www.w3.org/1999/xlink" width="229" height="228" viewBox="0 0 229 228">
  <defs>
    <clipPath id="clip-path">
      <rect id="Rectangle_52695" data-name="Rectangle 52695" width="113" height="105.067" fill="none"/>
    </clipPath>
  </defs>
  <g id="Group_121772" data-name="Group 121772" transform="translate(-1262 -2305)">
    <path id="Path_127721" data-name="Path 127721" d="M114.5,0C177.737,0,229,51.04,229,114S177.737,228,114.5,228,0,176.96,0,114,51.263,0,114.5,0Z" transform="translate(1262 2305)" fill="#cfa532"/>
    <g id="Group_121770" data-name="Group 121770" transform="translate(1324 2362.876)">
      <g id="Group_121769" data-name="Group 121769" clip-path="url(#clip-path)">
        <path id="Path_127722" data-name="Path 127722" d="M127.809,8.557v40.68c-1.659,5.3-4.681,8.364-10.358,8.977l-58.595.166C53.912,61.791,49.283,68.5,44.69,71.835c-1.518,1.1-3.406,2.227-4.806.29-1.551-2.146,2.024-10.744,1.508-13.815-7.046-.787-10.513-4.86-11.035-11.814-.685-9.116-.95-27.775.075-36.63C31.037,4.642,34.757.378,40.151,0l78.882.008c4.5.917,7.515,4.309,8.777,8.55M42.934,68.317c.865.226,1.005-.346,1.511-.744,3.866-3.054,8.285-9.2,12.3-11.809a5.64,5.64,0,0,1,2.131-.882l58.661-.1c5.018-.356,6.926-4.251,7.281-8.79.691-8.827.849-25.978-.024-34.665-.479-4.763-2.824-7.877-7.758-8.313-24.152-2.133-51.4,1.656-75.876,0A7.371,7.371,0,0,0,33.882,9.3c1.112,12.333-1.446,27.17,0,39.2a7.78,7.78,0,0,0,5.4,6.153c1.786.415,4.258-.474,5.292,1.741,1.079,2.311-1.294,9.146-1.639,11.927" transform="translate(-14.809 0)"/>
        <path id="Path_127723" data-name="Path 127723" d="M0,72.36c1.028-2.4,1.706-4.709,3.845-6.451,1.372-1.117,7.137-3.86,7.47-1.141.293,2.393-2.819,2.063-4.247,2.857-2.542,1.415-3.692,4.311-3.992,7.057-.926,8.5-.818,26.483-.081,35.111.347,4.054,1.746,7.465,6.016,8.549,1.857.472,4.6-.238,5.353,2.215.695,2.27-1.825,8.784-1.8,11.567,4.132-2.352,11.771-12.9,15.847-13.528,18.8-1.3,39.7,1.624,58.246-.012,11.89-1.049,5.376-16.169,7.707-23.834l2.5-.22c.791.483.774,14.684.57,16.747a11.349,11.349,0,0,1-7.167,9.908L29.4,121.6c-2.38.438-8.573,7.729-10.815,9.776-.922.842-5.7,5.166-6.309,5.27-1.828.315-3.134-.3-3.284-2.261s2.533-12.345,2.053-12.808c-5.473.657-9.58-3.67-11.05-8.54Z" transform="translate(0 -31.66)"/>
        <rect id="Rectangle_52692" data-name="Rectangle 52692" width="67.231" height="3.569" transform="translate(31.171 27.116)"/>
        <rect id="Rectangle_52693" data-name="Rectangle 52693" width="67.36" height="3.013" transform="translate(31.107 14.585)"/>
        <rect id="Rectangle_52694" data-name="Rectangle 52694" width="35.162" height="3.54" transform="translate(31.168 40.198)"/>
      </g>
    </g>
  </g>
</svg>
