<svg xmlns="http://www.w3.org/2000/svg" xmlns:xlink="http://www.w3.org/1999/xlink" width="229" height="228" viewBox="0 0 229 228">
  <defs>
    <clipPath id="clip-path">
      <rect id="Rectangle_52691" data-name="Rectangle 52691" width="59.041" height="116.638" fill="none"/>
    </clipPath>
  </defs>
  <g id="Group_121771" data-name="Group 121771" transform="translate(-810 -2305)">
    <ellipse id="Ellipse_3654" data-name="Ellipse 3654" cx="114.5" cy="114" rx="114.5" ry="114" transform="translate(810 2305)" fill="#cfa532"/>
    <g id="Group_121768" data-name="Group 121768" transform="translate(898.668 2360.377)">
      <g id="Group_121767" data-name="Group 121767" clip-path="url(#clip-path)">
        <path id="Path_127719" data-name="Path 127719" d="M118.046.043a18.126,18.126,0,0,1,19.276,16.533v35.2c-2.411,21.91-33.589,21.911-36,0v-35.2A18.165,18.165,0,0,1,118.046.043M117.728,3.2a17.323,17.323,0,0,0-5.353,1.594V32.582h5.353Zm8.542,1.594A17.323,17.323,0,0,0,120.917,3.2V32.582h5.353ZM109.3,7.185a4.566,4.566,0,0,0-1.311,1.137,15.641,15.641,0,0,0-3.591,8.823l0,15.437h4.9Zm24.942,25.4,0-15.437a15.641,15.641,0,0,0-3.591-8.823,4.566,4.566,0,0,0-1.311-1.137v25.4Zm0,3.189H104.4V51.316c1.882,18.4,27.956,18.4,29.837,0Z" transform="translate(-89.783 0)"/>
        <path id="Path_127720" data-name="Path 127720" d="M34.664,384.682c4.37.136,8.8-.222,13.155.09.132.01.294-.1.443-.079a1.686,1.686,0,0,1,1.663,1.526c.286,2.506-.216,5.527,0,8.089a1.645,1.645,0,0,1-1.536,1.425L9.6,395.678a1.419,1.419,0,0,1-1.138-1.367c-.257-2.654.2-5.728.012-8.427a1.813,1.813,0,0,1,1.531-1.2H23.731v-25.91c-1.068-.4-2.274-.585-3.39-.938C7.808,353.87.559,342.748.151,329.848c-.125-3.942-.265-8.995,0-12.879.049-.723.129-1.417.837-1.783,1.27-.657,2.268.258,2.362,1.555.7,9.637-1.782,17.3,3.392,26.333,10.636,18.56,38.592,16.967,46.962-2.733,3.249-7.647,1.652-15.944,2.04-24.04.234-1.649,2.956-2,3.177.447.377,4.17-.282,8.873.007,13.1a29.135,29.135,0,0,1-22.9,28.7,4.15,4.15,0,0,0-1.368.341ZM31.475,359.17H26.806v25.511h4.669ZM11.545,392.654H46.851V387.87H11.545Z" transform="translate(0 -279.096)"/>
      </g>
    </g>
  </g>
</svg>
