<svg xmlns="http://www.w3.org/2000/svg" xmlns:xlink="http://www.w3.org/1999/xlink" width="229" height="228" viewBox="0 0 229 228">
  <defs>
    <clipPath id="clip-path">
      <rect id="Rectangle_52698" data-name="Rectangle 52698" width="113" height="96.948" fill="none"/>
    </clipPath>
  </defs>
  <g id="Group_121775" data-name="Group 121775" transform="translate(-1345 -2275)">
    <path id="Path_127721" data-name="Path 127721" d="M114.5,0C177.737,0,229,51.04,229,114S177.737,228,114.5,228,0,176.96,0,114,51.263,0,114.5,0Z" transform="translate(1345 2275)" fill="#cfa532"/>
    <g id="Group_121774" data-name="Group 121774" transform="translate(1407 2340)">
      <g id="Group_121773" data-name="Group 121773" clip-path="url(#clip-path)">
        <path id="Path_127724" data-name="Path 127724" d="M113,1.541V3.048L108.949,4.27l-.47,1.037-.258,64.027a4.494,4.494,0,0,1-1,1.012H58.76v9.793L84.792,93.78l-.211,2.734-2.723.236L58.76,85.412v9.793c0,2.324-4.52,2.324-4.52,0V85.412L31.142,96.75l-2.723-.236c-.546-.4-.422-2.142-.211-2.734.557-1.564,23.161-11.194,26.032-13.641V70.346H5.776a4.494,4.494,0,0,1-1-1.012L4.051,4.27,0,3.048V1.541L2.227,0H110.773Zm-8.538,2.511H8.538V66.328h95.924Z"/>
        <path id="Path_127725" data-name="Path 127725" d="M68.7,41.779a15.4,15.4,0,1,1-15.4-15.4,15.4,15.4,0,0,1,15.4,15.4M64.068,43.8h-11.8a7.7,7.7,0,0,1-1.256-1.758v-11.3C42.948,32.953,39.2,42.516,44.969,49.089a10.99,10.99,0,0,0,19.1-5.288" transform="translate(-18.868 -13.131)"/>
        <rect id="Rectangle_52696" data-name="Rectangle 52696" width="74.932" height="4.573" transform="translate(19.034 52.744)"/>
        <path id="Path_127726" data-name="Path 127726" d="M117.455,26.166c.561-.559,1.835-.576,2.618-.643,6.957-.591,22.381-.766,29.16.012,3.855.442,3.723,4.129.516,4.552-9.552-.852-20.832,1.061-30.165-.014-2.358-.272-3.965-2.078-2.128-3.907" transform="translate(-58.07 -12.451)"/>
        <path id="Path_127727" data-name="Path 127727" d="M151.5,83.215c-.56.558-1.835.577-2.618.643-7.152.6-22.135.733-29.159-.021-2.578-.276-3.61-1.81-2.045-4.065l33.44-.2c1.264.609,1.273,2.758.381,3.648" transform="translate(-58.21 -39.607)"/>
        <rect id="Rectangle_52697" data-name="Rectangle 52697" width="35.204" height="4.018" transform="translate(58.735 26.652)"/>
      </g>
    </g>
  </g>
</svg>
