<svg id="Group_121777" data-name="Group 121777" xmlns="http://www.w3.org/2000/svg" xmlns:xlink="http://www.w3.org/1999/xlink" width="49" height="45.745" viewBox="0 0 49 45.745">
  <defs>
    <clipPath id="clip-path">
      <rect id="Rectangle_52700" data-name="Rectangle 52700" width="49" height="45.745" fill="none"/>
    </clipPath>
  </defs>
  <g id="Group_121776" data-name="Group 121776" transform="translate(0 0)" clip-path="url(#clip-path)">
    <path id="Path_127728" data-name="Path 127728" d="M3.141,59.808c.946.575.149,9.477.76,11.587a8.512,8.512,0,0,0,5.13,4.915c9.434-.339,20.271,1.069,29.553.2,8.7-.818,6.371-9.128,6.89-14.878.2-2.233.718-2.094,2.871-1.819,1.576,8.274.979,18.773-9.4,19.985-6.561.766-21.3.638-28.013.06C.652,78.968-.8,69.917.314,61.245a1.78,1.78,0,0,1,2.827-1.437" transform="translate(0 -34.582)" fill="#fff"/>
    <path id="Path_127729" data-name="Path 127729" d="M41.629,28.094c2.192-1.179,8.114-8.942,9.855-9.216,1.984-.313,2.392,1.237,1.467,2.753L41.024,33.558a1.537,1.537,0,0,1-1.257.419c-1.481-.145-10.674-10.855-12.808-12.345-1.243-2.124.206-3.6,2.346-2.347,2.628,1.541,6,7.076,8.975,8.81V1.1A2.58,2.58,0,0,1,39.768.031C40.3-.19,41.629.792,41.629,1.1Z" transform="translate(-15.409 0.001)" fill="#fff"/>
  </g>
</svg>
